G04 #@! TF.GenerationSoftware,KiCad,Pcbnew,7.0.7-7.0.7~ubuntu22.04.1*
G04 #@! TF.CreationDate,2024-01-07T15:40:38+01:00*
G04 #@! TF.ProjectId,pico-dap-swd,7069636f-2d64-4617-902d-7377642e6b69,rev?*
G04 #@! TF.SameCoordinates,Original*
G04 #@! TF.FileFunction,Soldermask,Bot*
G04 #@! TF.FilePolarity,Negative*
%FSLAX46Y46*%
G04 Gerber Fmt 4.6, Leading zero omitted, Abs format (unit mm)*
G04 Created by KiCad (PCBNEW 7.0.7-7.0.7~ubuntu22.04.1) date 2024-01-07 15:40:38*
%MOMM*%
%LPD*%
G01*
G04 APERTURE LIST*
%ADD10O,1.700000X1.700000*%
%ADD11R,1.700000X1.700000*%
%ADD12O,1.500000X1.500000*%
%ADD13O,1.800000X1.800000*%
%ADD14R,0.750000X3.000000*%
G04 APERTURE END LIST*
D10*
X83150000Y-85310000D03*
D11*
X80610000Y-85310000D03*
D10*
X78070000Y-85310000D03*
X89500000Y-37280000D03*
X89500000Y-39820000D03*
D11*
X89500000Y-42360000D03*
D10*
X89500000Y-44900000D03*
X89500000Y-47440000D03*
X89500000Y-49980000D03*
X89500000Y-52520000D03*
D11*
X89500000Y-55060000D03*
D10*
X89500000Y-57600000D03*
X89500000Y-60140000D03*
X89500000Y-62680000D03*
X89500000Y-65220000D03*
D11*
X89500000Y-67760000D03*
D10*
X89500000Y-70300000D03*
X89500000Y-72840000D03*
X89500000Y-75380000D03*
X89500000Y-77920000D03*
D11*
X89500000Y-80460000D03*
D10*
X89500000Y-83000000D03*
X89500000Y-85540000D03*
X71720000Y-85540000D03*
X71720000Y-83000000D03*
D11*
X71720000Y-80460000D03*
D10*
X71720000Y-77920000D03*
X71720000Y-75380000D03*
X71720000Y-72840000D03*
X71720000Y-70300000D03*
D11*
X71720000Y-67760000D03*
D10*
X71720000Y-65220000D03*
X71720000Y-62680000D03*
X71720000Y-60140000D03*
X71720000Y-57600000D03*
D11*
X71720000Y-55060000D03*
D10*
X71720000Y-52520000D03*
X71720000Y-49980000D03*
X71720000Y-47440000D03*
X71720000Y-44900000D03*
D11*
X71720000Y-42360000D03*
D10*
X71720000Y-39820000D03*
X71720000Y-37280000D03*
D12*
X83035000Y-40440000D03*
X78185000Y-40440000D03*
D13*
X77885000Y-37410000D03*
X83335000Y-37410000D03*
D14*
X83040000Y-91512500D03*
X81770000Y-91512500D03*
X80500000Y-91512500D03*
X79230000Y-91512500D03*
X77960000Y-91512500D03*
M02*
