G04 #@! TF.GenerationSoftware,KiCad,Pcbnew,7.0.7-7.0.7~ubuntu22.04.1*
G04 #@! TF.CreationDate,2024-01-07T15:40:38+01:00*
G04 #@! TF.ProjectId,pico-dap-swd,7069636f-2d64-4617-902d-7377642e6b69,rev?*
G04 #@! TF.SameCoordinates,Original*
G04 #@! TF.FileFunction,Legend,Top*
G04 #@! TF.FilePolarity,Positive*
%FSLAX46Y46*%
G04 Gerber Fmt 4.6, Leading zero omitted, Abs format (unit mm)*
G04 Created by KiCad (PCBNEW 7.0.7-7.0.7~ubuntu22.04.1) date 2024-01-07 15:40:38*
%MOMM*%
%LPD*%
G01*
G04 APERTURE LIST*
%ADD10C,0.150000*%
%ADD11C,0.120000*%
%ADD12R,1.700000X3.500000*%
%ADD13O,1.700000X1.700000*%
%ADD14R,1.700000X1.700000*%
%ADD15R,3.500000X1.700000*%
%ADD16O,1.500000X1.500000*%
%ADD17O,1.800000X1.800000*%
%ADD18R,0.750000X3.000000*%
G04 APERTURE END LIST*
D10*
X92707998Y-58000868D02*
X92627185Y-58027805D01*
X92627185Y-58027805D02*
X92546373Y-58108618D01*
X92546373Y-58108618D02*
X92492498Y-58216367D01*
X92492498Y-58216367D02*
X92492498Y-58324117D01*
X92492498Y-58324117D02*
X92519436Y-58404929D01*
X92519436Y-58404929D02*
X92600248Y-58539616D01*
X92600248Y-58539616D02*
X92681060Y-58620428D01*
X92681060Y-58620428D02*
X92815747Y-58701241D01*
X92815747Y-58701241D02*
X92896560Y-58728178D01*
X92896560Y-58728178D02*
X93004309Y-58728178D01*
X93004309Y-58728178D02*
X93112059Y-58674303D01*
X93112059Y-58674303D02*
X93165934Y-58620428D01*
X93165934Y-58620428D02*
X93219808Y-58512679D01*
X93219808Y-58512679D02*
X93219808Y-58458804D01*
X93219808Y-58458804D02*
X93031247Y-58270242D01*
X93031247Y-58270242D02*
X92923497Y-58377992D01*
X93516120Y-58270242D02*
X92950434Y-57704557D01*
X92950434Y-57704557D02*
X93165934Y-57489057D01*
X93165934Y-57489057D02*
X93246746Y-57462120D01*
X93246746Y-57462120D02*
X93300621Y-57462120D01*
X93300621Y-57462120D02*
X93381433Y-57489057D01*
X93381433Y-57489057D02*
X93462245Y-57569870D01*
X93462245Y-57569870D02*
X93489182Y-57650682D01*
X93489182Y-57650682D02*
X93489182Y-57704557D01*
X93489182Y-57704557D02*
X93462245Y-57785369D01*
X93462245Y-57785369D02*
X93246746Y-58000868D01*
X93543057Y-57219683D02*
X93543057Y-57165809D01*
X93543057Y-57165809D02*
X93569995Y-57084996D01*
X93569995Y-57084996D02*
X93704682Y-56950309D01*
X93704682Y-56950309D02*
X93785494Y-56923372D01*
X93785494Y-56923372D02*
X93839369Y-56923372D01*
X93839369Y-56923372D02*
X93920181Y-56950309D01*
X93920181Y-56950309D02*
X93974056Y-57004184D01*
X93974056Y-57004184D02*
X94027930Y-57111934D01*
X94027930Y-57111934D02*
X94027930Y-57758431D01*
X94027930Y-57758431D02*
X94378117Y-57408245D01*
X94000993Y-56653998D02*
X94378117Y-56276874D01*
X94378117Y-56276874D02*
X94701366Y-57084996D01*
X93448651Y-63353710D02*
X92990716Y-63272898D01*
X93125403Y-63676959D02*
X92559717Y-63111274D01*
X92559717Y-63111274D02*
X92775216Y-62895775D01*
X92775216Y-62895775D02*
X92856029Y-62868837D01*
X92856029Y-62868837D02*
X92909903Y-62868837D01*
X92909903Y-62868837D02*
X92990716Y-62895775D01*
X92990716Y-62895775D02*
X93071528Y-62976587D01*
X93071528Y-62976587D02*
X93098465Y-63057399D01*
X93098465Y-63057399D02*
X93098465Y-63111274D01*
X93098465Y-63111274D02*
X93071528Y-63192086D01*
X93071528Y-63192086D02*
X92856029Y-63407585D01*
X93125403Y-62545588D02*
X93583338Y-63003524D01*
X93583338Y-63003524D02*
X93664151Y-63030462D01*
X93664151Y-63030462D02*
X93718025Y-63030462D01*
X93718025Y-63030462D02*
X93798838Y-63003524D01*
X93798838Y-63003524D02*
X93906587Y-62895775D01*
X93906587Y-62895775D02*
X93933525Y-62814962D01*
X93933525Y-62814962D02*
X93933525Y-62761088D01*
X93933525Y-62761088D02*
X93906587Y-62680275D01*
X93906587Y-62680275D02*
X93448651Y-62222340D01*
X94283711Y-62518651D02*
X93718025Y-61952966D01*
X93718025Y-61952966D02*
X94606959Y-62195402D01*
X94606959Y-62195402D02*
X94041274Y-61629717D01*
X66599998Y-70690868D02*
X66519185Y-70717805D01*
X66519185Y-70717805D02*
X66438373Y-70798618D01*
X66438373Y-70798618D02*
X66384498Y-70906367D01*
X66384498Y-70906367D02*
X66384498Y-71014117D01*
X66384498Y-71014117D02*
X66411436Y-71094929D01*
X66411436Y-71094929D02*
X66492248Y-71229616D01*
X66492248Y-71229616D02*
X66573060Y-71310428D01*
X66573060Y-71310428D02*
X66707747Y-71391241D01*
X66707747Y-71391241D02*
X66788560Y-71418178D01*
X66788560Y-71418178D02*
X66896309Y-71418178D01*
X66896309Y-71418178D02*
X67004059Y-71364303D01*
X67004059Y-71364303D02*
X67057934Y-71310428D01*
X67057934Y-71310428D02*
X67111808Y-71202679D01*
X67111808Y-71202679D02*
X67111808Y-71148804D01*
X67111808Y-71148804D02*
X66923247Y-70960242D01*
X66923247Y-70960242D02*
X66815497Y-71067992D01*
X67408120Y-70960242D02*
X66842434Y-70394557D01*
X66842434Y-70394557D02*
X67057934Y-70179057D01*
X67057934Y-70179057D02*
X67138746Y-70152120D01*
X67138746Y-70152120D02*
X67192621Y-70152120D01*
X67192621Y-70152120D02*
X67273433Y-70179057D01*
X67273433Y-70179057D02*
X67354245Y-70259870D01*
X67354245Y-70259870D02*
X67381182Y-70340682D01*
X67381182Y-70340682D02*
X67381182Y-70394557D01*
X67381182Y-70394557D02*
X67354245Y-70475369D01*
X67354245Y-70475369D02*
X67138746Y-70690868D01*
X68270117Y-70098245D02*
X67946868Y-70421494D01*
X68108492Y-70259870D02*
X67542807Y-69694184D01*
X67542807Y-69694184D02*
X67569744Y-69828871D01*
X67569744Y-69828871D02*
X67569744Y-69936621D01*
X67569744Y-69936621D02*
X67542807Y-70017433D01*
X68054618Y-69182373D02*
X68108492Y-69128499D01*
X68108492Y-69128499D02*
X68189305Y-69101561D01*
X68189305Y-69101561D02*
X68243179Y-69101561D01*
X68243179Y-69101561D02*
X68323992Y-69128499D01*
X68323992Y-69128499D02*
X68458679Y-69209311D01*
X68458679Y-69209311D02*
X68593366Y-69343998D01*
X68593366Y-69343998D02*
X68674178Y-69478685D01*
X68674178Y-69478685D02*
X68701115Y-69559497D01*
X68701115Y-69559497D02*
X68701115Y-69613372D01*
X68701115Y-69613372D02*
X68674178Y-69694184D01*
X68674178Y-69694184D02*
X68620303Y-69748059D01*
X68620303Y-69748059D02*
X68539491Y-69774996D01*
X68539491Y-69774996D02*
X68485616Y-69774996D01*
X68485616Y-69774996D02*
X68404804Y-69748059D01*
X68404804Y-69748059D02*
X68270117Y-69667247D01*
X68270117Y-69667247D02*
X68135430Y-69532560D01*
X68135430Y-69532560D02*
X68054618Y-69397873D01*
X68054618Y-69397873D02*
X68027680Y-69317060D01*
X68027680Y-69317060D02*
X68027680Y-69263186D01*
X68027680Y-69263186D02*
X68054618Y-69182373D01*
X67023372Y-39931494D02*
X66942560Y-39958431D01*
X66942560Y-39958431D02*
X66861748Y-40039243D01*
X66861748Y-40039243D02*
X66807873Y-40146993D01*
X66807873Y-40146993D02*
X66807873Y-40254742D01*
X66807873Y-40254742D02*
X66834810Y-40335555D01*
X66834810Y-40335555D02*
X66915623Y-40470242D01*
X66915623Y-40470242D02*
X66996435Y-40551054D01*
X66996435Y-40551054D02*
X67131122Y-40631866D01*
X67131122Y-40631866D02*
X67211934Y-40658803D01*
X67211934Y-40658803D02*
X67319684Y-40658803D01*
X67319684Y-40658803D02*
X67427433Y-40604929D01*
X67427433Y-40604929D02*
X67481308Y-40551054D01*
X67481308Y-40551054D02*
X67535183Y-40443304D01*
X67535183Y-40443304D02*
X67535183Y-40389429D01*
X67535183Y-40389429D02*
X67346621Y-40200868D01*
X67346621Y-40200868D02*
X67238871Y-40308617D01*
X67831494Y-40200868D02*
X67265809Y-39635182D01*
X67265809Y-39635182D02*
X67481308Y-39419683D01*
X67481308Y-39419683D02*
X67562120Y-39392746D01*
X67562120Y-39392746D02*
X67615995Y-39392746D01*
X67615995Y-39392746D02*
X67696807Y-39419683D01*
X67696807Y-39419683D02*
X67777619Y-39500495D01*
X67777619Y-39500495D02*
X67804557Y-39581307D01*
X67804557Y-39581307D02*
X67804557Y-39635182D01*
X67804557Y-39635182D02*
X67777619Y-39715994D01*
X67777619Y-39715994D02*
X67562120Y-39931494D01*
X68693491Y-39338871D02*
X68370242Y-39662120D01*
X68531867Y-39500495D02*
X67966181Y-38934810D01*
X67966181Y-38934810D02*
X67993119Y-39069497D01*
X67993119Y-39069497D02*
X67993119Y-39177246D01*
X67993119Y-39177246D02*
X67966181Y-39258059D01*
X66453998Y-75770868D02*
X66373185Y-75797805D01*
X66373185Y-75797805D02*
X66292373Y-75878618D01*
X66292373Y-75878618D02*
X66238498Y-75986367D01*
X66238498Y-75986367D02*
X66238498Y-76094117D01*
X66238498Y-76094117D02*
X66265436Y-76174929D01*
X66265436Y-76174929D02*
X66346248Y-76309616D01*
X66346248Y-76309616D02*
X66427060Y-76390428D01*
X66427060Y-76390428D02*
X66561747Y-76471241D01*
X66561747Y-76471241D02*
X66642560Y-76498178D01*
X66642560Y-76498178D02*
X66750309Y-76498178D01*
X66750309Y-76498178D02*
X66858059Y-76444303D01*
X66858059Y-76444303D02*
X66911934Y-76390428D01*
X66911934Y-76390428D02*
X66965808Y-76282679D01*
X66965808Y-76282679D02*
X66965808Y-76228804D01*
X66965808Y-76228804D02*
X66777247Y-76040242D01*
X66777247Y-76040242D02*
X66669497Y-76147992D01*
X67262120Y-76040242D02*
X66696434Y-75474557D01*
X66696434Y-75474557D02*
X66911934Y-75259057D01*
X66911934Y-75259057D02*
X66992746Y-75232120D01*
X66992746Y-75232120D02*
X67046621Y-75232120D01*
X67046621Y-75232120D02*
X67127433Y-75259057D01*
X67127433Y-75259057D02*
X67208245Y-75339870D01*
X67208245Y-75339870D02*
X67235182Y-75420682D01*
X67235182Y-75420682D02*
X67235182Y-75474557D01*
X67235182Y-75474557D02*
X67208245Y-75555369D01*
X67208245Y-75555369D02*
X66992746Y-75770868D01*
X68124117Y-75178245D02*
X67800868Y-75501494D01*
X67962492Y-75339870D02*
X67396807Y-74774184D01*
X67396807Y-74774184D02*
X67423744Y-74908871D01*
X67423744Y-74908871D02*
X67423744Y-75016621D01*
X67423744Y-75016621D02*
X67396807Y-75097433D01*
X67827805Y-74450935D02*
X67827805Y-74397060D01*
X67827805Y-74397060D02*
X67854743Y-74316248D01*
X67854743Y-74316248D02*
X67989430Y-74181561D01*
X67989430Y-74181561D02*
X68070242Y-74154624D01*
X68070242Y-74154624D02*
X68124117Y-74154624D01*
X68124117Y-74154624D02*
X68204929Y-74181561D01*
X68204929Y-74181561D02*
X68258804Y-74235436D01*
X68258804Y-74235436D02*
X68312679Y-74343186D01*
X68312679Y-74343186D02*
X68312679Y-74989683D01*
X68312679Y-74989683D02*
X68662865Y-74639497D01*
X92530749Y-40480242D02*
X93284996Y-40857366D01*
X93284996Y-40857366D02*
X92907873Y-40103118D01*
X93608245Y-40480242D02*
X93715995Y-40426367D01*
X93715995Y-40426367D02*
X93850682Y-40291680D01*
X93850682Y-40291680D02*
X93877619Y-40210868D01*
X93877619Y-40210868D02*
X93877619Y-40156993D01*
X93877619Y-40156993D02*
X93850682Y-40076181D01*
X93850682Y-40076181D02*
X93796807Y-40022306D01*
X93796807Y-40022306D02*
X93715995Y-39995369D01*
X93715995Y-39995369D02*
X93662120Y-39995369D01*
X93662120Y-39995369D02*
X93581308Y-40022306D01*
X93581308Y-40022306D02*
X93446621Y-40103118D01*
X93446621Y-40103118D02*
X93365808Y-40130056D01*
X93365808Y-40130056D02*
X93311934Y-40130056D01*
X93311934Y-40130056D02*
X93231121Y-40103118D01*
X93231121Y-40103118D02*
X93177247Y-40049244D01*
X93177247Y-40049244D02*
X93150309Y-39968431D01*
X93150309Y-39968431D02*
X93150309Y-39914557D01*
X93150309Y-39914557D02*
X93177247Y-39833744D01*
X93177247Y-39833744D02*
X93311934Y-39699057D01*
X93311934Y-39699057D02*
X93419683Y-39645183D01*
X94039244Y-39564370D02*
X94308618Y-39833744D01*
X93554370Y-39456621D02*
X94039244Y-39564370D01*
X94039244Y-39564370D02*
X93931494Y-39079497D01*
X94631866Y-39456621D02*
X94739616Y-39402746D01*
X94739616Y-39402746D02*
X94874303Y-39268059D01*
X94874303Y-39268059D02*
X94901240Y-39187247D01*
X94901240Y-39187247D02*
X94901240Y-39133372D01*
X94901240Y-39133372D02*
X94874303Y-39052560D01*
X94874303Y-39052560D02*
X94820428Y-38998685D01*
X94820428Y-38998685D02*
X94739616Y-38971748D01*
X94739616Y-38971748D02*
X94685741Y-38971748D01*
X94685741Y-38971748D02*
X94604929Y-38998685D01*
X94604929Y-38998685D02*
X94470242Y-39079497D01*
X94470242Y-39079497D02*
X94389430Y-39106435D01*
X94389430Y-39106435D02*
X94335555Y-39106435D01*
X94335555Y-39106435D02*
X94254743Y-39079497D01*
X94254743Y-39079497D02*
X94200868Y-39025622D01*
X94200868Y-39025622D02*
X94173930Y-38944810D01*
X94173930Y-38944810D02*
X94173930Y-38890935D01*
X94173930Y-38890935D02*
X94200868Y-38810123D01*
X94200868Y-38810123D02*
X94335555Y-38675436D01*
X94335555Y-38675436D02*
X94443304Y-38621561D01*
X66553998Y-83390868D02*
X66473185Y-83417805D01*
X66473185Y-83417805D02*
X66392373Y-83498618D01*
X66392373Y-83498618D02*
X66338498Y-83606367D01*
X66338498Y-83606367D02*
X66338498Y-83714117D01*
X66338498Y-83714117D02*
X66365436Y-83794929D01*
X66365436Y-83794929D02*
X66446248Y-83929616D01*
X66446248Y-83929616D02*
X66527060Y-84010428D01*
X66527060Y-84010428D02*
X66661747Y-84091241D01*
X66661747Y-84091241D02*
X66742560Y-84118178D01*
X66742560Y-84118178D02*
X66850309Y-84118178D01*
X66850309Y-84118178D02*
X66958059Y-84064303D01*
X66958059Y-84064303D02*
X67011934Y-84010428D01*
X67011934Y-84010428D02*
X67065808Y-83902679D01*
X67065808Y-83902679D02*
X67065808Y-83848804D01*
X67065808Y-83848804D02*
X66877247Y-83660242D01*
X66877247Y-83660242D02*
X66769497Y-83767992D01*
X67362120Y-83660242D02*
X66796434Y-83094557D01*
X66796434Y-83094557D02*
X67011934Y-82879057D01*
X67011934Y-82879057D02*
X67092746Y-82852120D01*
X67092746Y-82852120D02*
X67146621Y-82852120D01*
X67146621Y-82852120D02*
X67227433Y-82879057D01*
X67227433Y-82879057D02*
X67308245Y-82959870D01*
X67308245Y-82959870D02*
X67335182Y-83040682D01*
X67335182Y-83040682D02*
X67335182Y-83094557D01*
X67335182Y-83094557D02*
X67308245Y-83175369D01*
X67308245Y-83175369D02*
X67092746Y-83390868D01*
X68224117Y-82798245D02*
X67900868Y-83121494D01*
X68062492Y-82959870D02*
X67496807Y-82394184D01*
X67496807Y-82394184D02*
X67523744Y-82528871D01*
X67523744Y-82528871D02*
X67523744Y-82636621D01*
X67523744Y-82636621D02*
X67496807Y-82717433D01*
X68331866Y-81936248D02*
X68708990Y-82313372D01*
X67981680Y-81855436D02*
X68251054Y-82394184D01*
X68251054Y-82394184D02*
X68601240Y-82043998D01*
X67096435Y-67908431D02*
X67015623Y-67935368D01*
X67015623Y-67935368D02*
X66934811Y-68016180D01*
X66934811Y-68016180D02*
X66880936Y-68123930D01*
X66880936Y-68123930D02*
X66880936Y-68231680D01*
X66880936Y-68231680D02*
X66907873Y-68312492D01*
X66907873Y-68312492D02*
X66988685Y-68447179D01*
X66988685Y-68447179D02*
X67069498Y-68527991D01*
X67069498Y-68527991D02*
X67204185Y-68608803D01*
X67204185Y-68608803D02*
X67284997Y-68635741D01*
X67284997Y-68635741D02*
X67392746Y-68635741D01*
X67392746Y-68635741D02*
X67500496Y-68581866D01*
X67500496Y-68581866D02*
X67554371Y-68527991D01*
X67554371Y-68527991D02*
X67608246Y-68420241D01*
X67608246Y-68420241D02*
X67608246Y-68366367D01*
X67608246Y-68366367D02*
X67419684Y-68177805D01*
X67419684Y-68177805D02*
X67311934Y-68285554D01*
X67904557Y-68177805D02*
X67338872Y-67612119D01*
X67338872Y-67612119D02*
X68227806Y-67854556D01*
X68227806Y-67854556D02*
X67662120Y-67288871D01*
X68497180Y-67585182D02*
X67931494Y-67019497D01*
X67931494Y-67019497D02*
X68066181Y-66884810D01*
X68066181Y-66884810D02*
X68173931Y-66830935D01*
X68173931Y-66830935D02*
X68281680Y-66830935D01*
X68281680Y-66830935D02*
X68362493Y-66857872D01*
X68362493Y-66857872D02*
X68497180Y-66938685D01*
X68497180Y-66938685D02*
X68577992Y-67019497D01*
X68577992Y-67019497D02*
X68658804Y-67154184D01*
X68658804Y-67154184D02*
X68685741Y-67234996D01*
X68685741Y-67234996D02*
X68685741Y-67342746D01*
X68685741Y-67342746D02*
X68631867Y-67450495D01*
X68631867Y-67450495D02*
X68497180Y-67585182D01*
X92707998Y-65610868D02*
X92627185Y-65637805D01*
X92627185Y-65637805D02*
X92546373Y-65718618D01*
X92546373Y-65718618D02*
X92492498Y-65826367D01*
X92492498Y-65826367D02*
X92492498Y-65934117D01*
X92492498Y-65934117D02*
X92519436Y-66014929D01*
X92519436Y-66014929D02*
X92600248Y-66149616D01*
X92600248Y-66149616D02*
X92681060Y-66230428D01*
X92681060Y-66230428D02*
X92815747Y-66311241D01*
X92815747Y-66311241D02*
X92896560Y-66338178D01*
X92896560Y-66338178D02*
X93004309Y-66338178D01*
X93004309Y-66338178D02*
X93112059Y-66284303D01*
X93112059Y-66284303D02*
X93165934Y-66230428D01*
X93165934Y-66230428D02*
X93219808Y-66122679D01*
X93219808Y-66122679D02*
X93219808Y-66068804D01*
X93219808Y-66068804D02*
X93031247Y-65880242D01*
X93031247Y-65880242D02*
X92923497Y-65987992D01*
X93516120Y-65880242D02*
X92950434Y-65314557D01*
X92950434Y-65314557D02*
X93165934Y-65099057D01*
X93165934Y-65099057D02*
X93246746Y-65072120D01*
X93246746Y-65072120D02*
X93300621Y-65072120D01*
X93300621Y-65072120D02*
X93381433Y-65099057D01*
X93381433Y-65099057D02*
X93462245Y-65179870D01*
X93462245Y-65179870D02*
X93489182Y-65260682D01*
X93489182Y-65260682D02*
X93489182Y-65314557D01*
X93489182Y-65314557D02*
X93462245Y-65395369D01*
X93462245Y-65395369D02*
X93246746Y-65610868D01*
X93543057Y-64829683D02*
X93543057Y-64775809D01*
X93543057Y-64775809D02*
X93569995Y-64694996D01*
X93569995Y-64694996D02*
X93704682Y-64560309D01*
X93704682Y-64560309D02*
X93785494Y-64533372D01*
X93785494Y-64533372D02*
X93839369Y-64533372D01*
X93839369Y-64533372D02*
X93920181Y-64560309D01*
X93920181Y-64560309D02*
X93974056Y-64614184D01*
X93974056Y-64614184D02*
X94027930Y-64721934D01*
X94027930Y-64721934D02*
X94027930Y-65368431D01*
X94027930Y-65368431D02*
X94378117Y-65018245D01*
X94081805Y-64290935D02*
X94081805Y-64237060D01*
X94081805Y-64237060D02*
X94108743Y-64156248D01*
X94108743Y-64156248D02*
X94243430Y-64021561D01*
X94243430Y-64021561D02*
X94324242Y-63994624D01*
X94324242Y-63994624D02*
X94378117Y-63994624D01*
X94378117Y-63994624D02*
X94458929Y-64021561D01*
X94458929Y-64021561D02*
X94512804Y-64075436D01*
X94512804Y-64075436D02*
X94566679Y-64183186D01*
X94566679Y-64183186D02*
X94566679Y-64829683D01*
X94566679Y-64829683D02*
X94916865Y-64479497D01*
X92707998Y-70700868D02*
X92627185Y-70727805D01*
X92627185Y-70727805D02*
X92546373Y-70808618D01*
X92546373Y-70808618D02*
X92492498Y-70916367D01*
X92492498Y-70916367D02*
X92492498Y-71024117D01*
X92492498Y-71024117D02*
X92519436Y-71104929D01*
X92519436Y-71104929D02*
X92600248Y-71239616D01*
X92600248Y-71239616D02*
X92681060Y-71320428D01*
X92681060Y-71320428D02*
X92815747Y-71401241D01*
X92815747Y-71401241D02*
X92896560Y-71428178D01*
X92896560Y-71428178D02*
X93004309Y-71428178D01*
X93004309Y-71428178D02*
X93112059Y-71374303D01*
X93112059Y-71374303D02*
X93165934Y-71320428D01*
X93165934Y-71320428D02*
X93219808Y-71212679D01*
X93219808Y-71212679D02*
X93219808Y-71158804D01*
X93219808Y-71158804D02*
X93031247Y-70970242D01*
X93031247Y-70970242D02*
X92923497Y-71077992D01*
X93516120Y-70970242D02*
X92950434Y-70404557D01*
X92950434Y-70404557D02*
X93165934Y-70189057D01*
X93165934Y-70189057D02*
X93246746Y-70162120D01*
X93246746Y-70162120D02*
X93300621Y-70162120D01*
X93300621Y-70162120D02*
X93381433Y-70189057D01*
X93381433Y-70189057D02*
X93462245Y-70269870D01*
X93462245Y-70269870D02*
X93489182Y-70350682D01*
X93489182Y-70350682D02*
X93489182Y-70404557D01*
X93489182Y-70404557D02*
X93462245Y-70485369D01*
X93462245Y-70485369D02*
X93246746Y-70700868D01*
X93543057Y-69919683D02*
X93543057Y-69865809D01*
X93543057Y-69865809D02*
X93569995Y-69784996D01*
X93569995Y-69784996D02*
X93704682Y-69650309D01*
X93704682Y-69650309D02*
X93785494Y-69623372D01*
X93785494Y-69623372D02*
X93839369Y-69623372D01*
X93839369Y-69623372D02*
X93920181Y-69650309D01*
X93920181Y-69650309D02*
X93974056Y-69704184D01*
X93974056Y-69704184D02*
X94027930Y-69811934D01*
X94027930Y-69811934D02*
X94027930Y-70458431D01*
X94027930Y-70458431D02*
X94378117Y-70108245D01*
X94916865Y-69569497D02*
X94593616Y-69892746D01*
X94755240Y-69731121D02*
X94189555Y-69165436D01*
X94189555Y-69165436D02*
X94216492Y-69300123D01*
X94216492Y-69300123D02*
X94216492Y-69407873D01*
X94216492Y-69407873D02*
X94189555Y-69488685D01*
X67123372Y-57721494D02*
X67042560Y-57748431D01*
X67042560Y-57748431D02*
X66961748Y-57829243D01*
X66961748Y-57829243D02*
X66907873Y-57936993D01*
X66907873Y-57936993D02*
X66907873Y-58044742D01*
X66907873Y-58044742D02*
X66934810Y-58125555D01*
X66934810Y-58125555D02*
X67015623Y-58260242D01*
X67015623Y-58260242D02*
X67096435Y-58341054D01*
X67096435Y-58341054D02*
X67231122Y-58421866D01*
X67231122Y-58421866D02*
X67311934Y-58448803D01*
X67311934Y-58448803D02*
X67419684Y-58448803D01*
X67419684Y-58448803D02*
X67527433Y-58394929D01*
X67527433Y-58394929D02*
X67581308Y-58341054D01*
X67581308Y-58341054D02*
X67635183Y-58233304D01*
X67635183Y-58233304D02*
X67635183Y-58179429D01*
X67635183Y-58179429D02*
X67446621Y-57990868D01*
X67446621Y-57990868D02*
X67338871Y-58098617D01*
X67931494Y-57990868D02*
X67365809Y-57425182D01*
X67365809Y-57425182D02*
X67581308Y-57209683D01*
X67581308Y-57209683D02*
X67662120Y-57182746D01*
X67662120Y-57182746D02*
X67715995Y-57182746D01*
X67715995Y-57182746D02*
X67796807Y-57209683D01*
X67796807Y-57209683D02*
X67877619Y-57290495D01*
X67877619Y-57290495D02*
X67904557Y-57371307D01*
X67904557Y-57371307D02*
X67904557Y-57425182D01*
X67904557Y-57425182D02*
X67877619Y-57505994D01*
X67877619Y-57505994D02*
X67662120Y-57721494D01*
X68173931Y-56617060D02*
X68066181Y-56724810D01*
X68066181Y-56724810D02*
X68039244Y-56805622D01*
X68039244Y-56805622D02*
X68039244Y-56859497D01*
X68039244Y-56859497D02*
X68066181Y-56994184D01*
X68066181Y-56994184D02*
X68146993Y-57128871D01*
X68146993Y-57128871D02*
X68362493Y-57344370D01*
X68362493Y-57344370D02*
X68443305Y-57371307D01*
X68443305Y-57371307D02*
X68497180Y-57371307D01*
X68497180Y-57371307D02*
X68577992Y-57344370D01*
X68577992Y-57344370D02*
X68685741Y-57236620D01*
X68685741Y-57236620D02*
X68712679Y-57155808D01*
X68712679Y-57155808D02*
X68712679Y-57101933D01*
X68712679Y-57101933D02*
X68685741Y-57021121D01*
X68685741Y-57021121D02*
X68551054Y-56886434D01*
X68551054Y-56886434D02*
X68470242Y-56859497D01*
X68470242Y-56859497D02*
X68416367Y-56859497D01*
X68416367Y-56859497D02*
X68335555Y-56886434D01*
X68335555Y-56886434D02*
X68227806Y-56994184D01*
X68227806Y-56994184D02*
X68200868Y-57074996D01*
X68200868Y-57074996D02*
X68200868Y-57128871D01*
X68200868Y-57128871D02*
X68227806Y-57209683D01*
X92707998Y-78310868D02*
X92627185Y-78337805D01*
X92627185Y-78337805D02*
X92546373Y-78418618D01*
X92546373Y-78418618D02*
X92492498Y-78526367D01*
X92492498Y-78526367D02*
X92492498Y-78634117D01*
X92492498Y-78634117D02*
X92519436Y-78714929D01*
X92519436Y-78714929D02*
X92600248Y-78849616D01*
X92600248Y-78849616D02*
X92681060Y-78930428D01*
X92681060Y-78930428D02*
X92815747Y-79011241D01*
X92815747Y-79011241D02*
X92896560Y-79038178D01*
X92896560Y-79038178D02*
X93004309Y-79038178D01*
X93004309Y-79038178D02*
X93112059Y-78984303D01*
X93112059Y-78984303D02*
X93165934Y-78930428D01*
X93165934Y-78930428D02*
X93219808Y-78822679D01*
X93219808Y-78822679D02*
X93219808Y-78768804D01*
X93219808Y-78768804D02*
X93031247Y-78580242D01*
X93031247Y-78580242D02*
X92923497Y-78687992D01*
X93516120Y-78580242D02*
X92950434Y-78014557D01*
X92950434Y-78014557D02*
X93165934Y-77799057D01*
X93165934Y-77799057D02*
X93246746Y-77772120D01*
X93246746Y-77772120D02*
X93300621Y-77772120D01*
X93300621Y-77772120D02*
X93381433Y-77799057D01*
X93381433Y-77799057D02*
X93462245Y-77879870D01*
X93462245Y-77879870D02*
X93489182Y-77960682D01*
X93489182Y-77960682D02*
X93489182Y-78014557D01*
X93489182Y-78014557D02*
X93462245Y-78095369D01*
X93462245Y-78095369D02*
X93246746Y-78310868D01*
X94378117Y-77718245D02*
X94054868Y-78041494D01*
X94216492Y-77879870D02*
X93650807Y-77314184D01*
X93650807Y-77314184D02*
X93677744Y-77448871D01*
X93677744Y-77448871D02*
X93677744Y-77556621D01*
X93677744Y-77556621D02*
X93650807Y-77637433D01*
X94378117Y-77071747D02*
X94297305Y-77098685D01*
X94297305Y-77098685D02*
X94243430Y-77098685D01*
X94243430Y-77098685D02*
X94162618Y-77071747D01*
X94162618Y-77071747D02*
X94135680Y-77044810D01*
X94135680Y-77044810D02*
X94108743Y-76963998D01*
X94108743Y-76963998D02*
X94108743Y-76910123D01*
X94108743Y-76910123D02*
X94135680Y-76829311D01*
X94135680Y-76829311D02*
X94243430Y-76721561D01*
X94243430Y-76721561D02*
X94324242Y-76694624D01*
X94324242Y-76694624D02*
X94378117Y-76694624D01*
X94378117Y-76694624D02*
X94458929Y-76721561D01*
X94458929Y-76721561D02*
X94485866Y-76748499D01*
X94485866Y-76748499D02*
X94512804Y-76829311D01*
X94512804Y-76829311D02*
X94512804Y-76883186D01*
X94512804Y-76883186D02*
X94485866Y-76963998D01*
X94485866Y-76963998D02*
X94378117Y-77071747D01*
X94378117Y-77071747D02*
X94351179Y-77152560D01*
X94351179Y-77152560D02*
X94351179Y-77206434D01*
X94351179Y-77206434D02*
X94378117Y-77287247D01*
X94378117Y-77287247D02*
X94485866Y-77394996D01*
X94485866Y-77394996D02*
X94566679Y-77421934D01*
X94566679Y-77421934D02*
X94620553Y-77421934D01*
X94620553Y-77421934D02*
X94701366Y-77394996D01*
X94701366Y-77394996D02*
X94809115Y-77287247D01*
X94809115Y-77287247D02*
X94836053Y-77206434D01*
X94836053Y-77206434D02*
X94836053Y-77152560D01*
X94836053Y-77152560D02*
X94809115Y-77071747D01*
X94809115Y-77071747D02*
X94701366Y-76963998D01*
X94701366Y-76963998D02*
X94620553Y-76937060D01*
X94620553Y-76937060D02*
X94566679Y-76937060D01*
X94566679Y-76937060D02*
X94485866Y-76963998D01*
X67023372Y-45021494D02*
X66942560Y-45048431D01*
X66942560Y-45048431D02*
X66861748Y-45129243D01*
X66861748Y-45129243D02*
X66807873Y-45236993D01*
X66807873Y-45236993D02*
X66807873Y-45344742D01*
X66807873Y-45344742D02*
X66834810Y-45425555D01*
X66834810Y-45425555D02*
X66915623Y-45560242D01*
X66915623Y-45560242D02*
X66996435Y-45641054D01*
X66996435Y-45641054D02*
X67131122Y-45721866D01*
X67131122Y-45721866D02*
X67211934Y-45748803D01*
X67211934Y-45748803D02*
X67319684Y-45748803D01*
X67319684Y-45748803D02*
X67427433Y-45694929D01*
X67427433Y-45694929D02*
X67481308Y-45641054D01*
X67481308Y-45641054D02*
X67535183Y-45533304D01*
X67535183Y-45533304D02*
X67535183Y-45479429D01*
X67535183Y-45479429D02*
X67346621Y-45290868D01*
X67346621Y-45290868D02*
X67238871Y-45398617D01*
X67831494Y-45290868D02*
X67265809Y-44725182D01*
X67265809Y-44725182D02*
X67481308Y-44509683D01*
X67481308Y-44509683D02*
X67562120Y-44482746D01*
X67562120Y-44482746D02*
X67615995Y-44482746D01*
X67615995Y-44482746D02*
X67696807Y-44509683D01*
X67696807Y-44509683D02*
X67777619Y-44590495D01*
X67777619Y-44590495D02*
X67804557Y-44671307D01*
X67804557Y-44671307D02*
X67804557Y-44725182D01*
X67804557Y-44725182D02*
X67777619Y-44805994D01*
X67777619Y-44805994D02*
X67562120Y-45021494D01*
X67858432Y-44240309D02*
X67858432Y-44186434D01*
X67858432Y-44186434D02*
X67885369Y-44105622D01*
X67885369Y-44105622D02*
X68020056Y-43970935D01*
X68020056Y-43970935D02*
X68100868Y-43943998D01*
X68100868Y-43943998D02*
X68154743Y-43943998D01*
X68154743Y-43943998D02*
X68235555Y-43970935D01*
X68235555Y-43970935D02*
X68289430Y-44024810D01*
X68289430Y-44024810D02*
X68343305Y-44132559D01*
X68343305Y-44132559D02*
X68343305Y-44779057D01*
X68343305Y-44779057D02*
X68693491Y-44428871D01*
X92707998Y-75770868D02*
X92627185Y-75797805D01*
X92627185Y-75797805D02*
X92546373Y-75878618D01*
X92546373Y-75878618D02*
X92492498Y-75986367D01*
X92492498Y-75986367D02*
X92492498Y-76094117D01*
X92492498Y-76094117D02*
X92519436Y-76174929D01*
X92519436Y-76174929D02*
X92600248Y-76309616D01*
X92600248Y-76309616D02*
X92681060Y-76390428D01*
X92681060Y-76390428D02*
X92815747Y-76471241D01*
X92815747Y-76471241D02*
X92896560Y-76498178D01*
X92896560Y-76498178D02*
X93004309Y-76498178D01*
X93004309Y-76498178D02*
X93112059Y-76444303D01*
X93112059Y-76444303D02*
X93165934Y-76390428D01*
X93165934Y-76390428D02*
X93219808Y-76282679D01*
X93219808Y-76282679D02*
X93219808Y-76228804D01*
X93219808Y-76228804D02*
X93031247Y-76040242D01*
X93031247Y-76040242D02*
X92923497Y-76147992D01*
X93516120Y-76040242D02*
X92950434Y-75474557D01*
X92950434Y-75474557D02*
X93165934Y-75259057D01*
X93165934Y-75259057D02*
X93246746Y-75232120D01*
X93246746Y-75232120D02*
X93300621Y-75232120D01*
X93300621Y-75232120D02*
X93381433Y-75259057D01*
X93381433Y-75259057D02*
X93462245Y-75339870D01*
X93462245Y-75339870D02*
X93489182Y-75420682D01*
X93489182Y-75420682D02*
X93489182Y-75474557D01*
X93489182Y-75474557D02*
X93462245Y-75555369D01*
X93462245Y-75555369D02*
X93246746Y-75770868D01*
X94378117Y-75178245D02*
X94054868Y-75501494D01*
X94216492Y-75339870D02*
X93650807Y-74774184D01*
X93650807Y-74774184D02*
X93677744Y-74908871D01*
X93677744Y-74908871D02*
X93677744Y-75016621D01*
X93677744Y-75016621D02*
X93650807Y-75097433D01*
X94647491Y-74908871D02*
X94755240Y-74801121D01*
X94755240Y-74801121D02*
X94782178Y-74720309D01*
X94782178Y-74720309D02*
X94782178Y-74666434D01*
X94782178Y-74666434D02*
X94755240Y-74531747D01*
X94755240Y-74531747D02*
X94674428Y-74397060D01*
X94674428Y-74397060D02*
X94458929Y-74181561D01*
X94458929Y-74181561D02*
X94378117Y-74154624D01*
X94378117Y-74154624D02*
X94324242Y-74154624D01*
X94324242Y-74154624D02*
X94243430Y-74181561D01*
X94243430Y-74181561D02*
X94135680Y-74289311D01*
X94135680Y-74289311D02*
X94108743Y-74370123D01*
X94108743Y-74370123D02*
X94108743Y-74423998D01*
X94108743Y-74423998D02*
X94135680Y-74504810D01*
X94135680Y-74504810D02*
X94270367Y-74639497D01*
X94270367Y-74639497D02*
X94351179Y-74666434D01*
X94351179Y-74666434D02*
X94405054Y-74666434D01*
X94405054Y-74666434D02*
X94485866Y-74639497D01*
X94485866Y-74639497D02*
X94593616Y-74531747D01*
X94593616Y-74531747D02*
X94620553Y-74450935D01*
X94620553Y-74450935D02*
X94620553Y-74397060D01*
X94620553Y-74397060D02*
X94593616Y-74316248D01*
X92707998Y-73230868D02*
X92627185Y-73257805D01*
X92627185Y-73257805D02*
X92546373Y-73338618D01*
X92546373Y-73338618D02*
X92492498Y-73446367D01*
X92492498Y-73446367D02*
X92492498Y-73554117D01*
X92492498Y-73554117D02*
X92519436Y-73634929D01*
X92519436Y-73634929D02*
X92600248Y-73769616D01*
X92600248Y-73769616D02*
X92681060Y-73850428D01*
X92681060Y-73850428D02*
X92815747Y-73931241D01*
X92815747Y-73931241D02*
X92896560Y-73958178D01*
X92896560Y-73958178D02*
X93004309Y-73958178D01*
X93004309Y-73958178D02*
X93112059Y-73904303D01*
X93112059Y-73904303D02*
X93165934Y-73850428D01*
X93165934Y-73850428D02*
X93219808Y-73742679D01*
X93219808Y-73742679D02*
X93219808Y-73688804D01*
X93219808Y-73688804D02*
X93031247Y-73500242D01*
X93031247Y-73500242D02*
X92923497Y-73607992D01*
X93516120Y-73500242D02*
X92950434Y-72934557D01*
X92950434Y-72934557D02*
X93165934Y-72719057D01*
X93165934Y-72719057D02*
X93246746Y-72692120D01*
X93246746Y-72692120D02*
X93300621Y-72692120D01*
X93300621Y-72692120D02*
X93381433Y-72719057D01*
X93381433Y-72719057D02*
X93462245Y-72799870D01*
X93462245Y-72799870D02*
X93489182Y-72880682D01*
X93489182Y-72880682D02*
X93489182Y-72934557D01*
X93489182Y-72934557D02*
X93462245Y-73015369D01*
X93462245Y-73015369D02*
X93246746Y-73230868D01*
X93543057Y-72449683D02*
X93543057Y-72395809D01*
X93543057Y-72395809D02*
X93569995Y-72314996D01*
X93569995Y-72314996D02*
X93704682Y-72180309D01*
X93704682Y-72180309D02*
X93785494Y-72153372D01*
X93785494Y-72153372D02*
X93839369Y-72153372D01*
X93839369Y-72153372D02*
X93920181Y-72180309D01*
X93920181Y-72180309D02*
X93974056Y-72234184D01*
X93974056Y-72234184D02*
X94027930Y-72341934D01*
X94027930Y-72341934D02*
X94027930Y-72988431D01*
X94027930Y-72988431D02*
X94378117Y-72638245D01*
X94162618Y-71722373D02*
X94216492Y-71668499D01*
X94216492Y-71668499D02*
X94297305Y-71641561D01*
X94297305Y-71641561D02*
X94351179Y-71641561D01*
X94351179Y-71641561D02*
X94431992Y-71668499D01*
X94431992Y-71668499D02*
X94566679Y-71749311D01*
X94566679Y-71749311D02*
X94701366Y-71883998D01*
X94701366Y-71883998D02*
X94782178Y-72018685D01*
X94782178Y-72018685D02*
X94809115Y-72099497D01*
X94809115Y-72099497D02*
X94809115Y-72153372D01*
X94809115Y-72153372D02*
X94782178Y-72234184D01*
X94782178Y-72234184D02*
X94728303Y-72288059D01*
X94728303Y-72288059D02*
X94647491Y-72314996D01*
X94647491Y-72314996D02*
X94593616Y-72314996D01*
X94593616Y-72314996D02*
X94512804Y-72288059D01*
X94512804Y-72288059D02*
X94378117Y-72207247D01*
X94378117Y-72207247D02*
X94243430Y-72072560D01*
X94243430Y-72072560D02*
X94162618Y-71937873D01*
X94162618Y-71937873D02*
X94135680Y-71857060D01*
X94135680Y-71857060D02*
X94135680Y-71803186D01*
X94135680Y-71803186D02*
X94162618Y-71722373D01*
X67096435Y-42508431D02*
X67015623Y-42535368D01*
X67015623Y-42535368D02*
X66934811Y-42616180D01*
X66934811Y-42616180D02*
X66880936Y-42723930D01*
X66880936Y-42723930D02*
X66880936Y-42831680D01*
X66880936Y-42831680D02*
X66907873Y-42912492D01*
X66907873Y-42912492D02*
X66988685Y-43047179D01*
X66988685Y-43047179D02*
X67069498Y-43127991D01*
X67069498Y-43127991D02*
X67204185Y-43208803D01*
X67204185Y-43208803D02*
X67284997Y-43235741D01*
X67284997Y-43235741D02*
X67392746Y-43235741D01*
X67392746Y-43235741D02*
X67500496Y-43181866D01*
X67500496Y-43181866D02*
X67554371Y-43127991D01*
X67554371Y-43127991D02*
X67608246Y-43020241D01*
X67608246Y-43020241D02*
X67608246Y-42966367D01*
X67608246Y-42966367D02*
X67419684Y-42777805D01*
X67419684Y-42777805D02*
X67311934Y-42885554D01*
X67904557Y-42777805D02*
X67338872Y-42212119D01*
X67338872Y-42212119D02*
X68227806Y-42454556D01*
X68227806Y-42454556D02*
X67662120Y-41888871D01*
X68497180Y-42185182D02*
X67931494Y-41619497D01*
X67931494Y-41619497D02*
X68066181Y-41484810D01*
X68066181Y-41484810D02*
X68173931Y-41430935D01*
X68173931Y-41430935D02*
X68281680Y-41430935D01*
X68281680Y-41430935D02*
X68362493Y-41457872D01*
X68362493Y-41457872D02*
X68497180Y-41538685D01*
X68497180Y-41538685D02*
X68577992Y-41619497D01*
X68577992Y-41619497D02*
X68658804Y-41754184D01*
X68658804Y-41754184D02*
X68685741Y-41834996D01*
X68685741Y-41834996D02*
X68685741Y-41942746D01*
X68685741Y-41942746D02*
X68631867Y-42050495D01*
X68631867Y-42050495D02*
X68497180Y-42185182D01*
X67096435Y-80608431D02*
X67015623Y-80635368D01*
X67015623Y-80635368D02*
X66934811Y-80716180D01*
X66934811Y-80716180D02*
X66880936Y-80823930D01*
X66880936Y-80823930D02*
X66880936Y-80931680D01*
X66880936Y-80931680D02*
X66907873Y-81012492D01*
X66907873Y-81012492D02*
X66988685Y-81147179D01*
X66988685Y-81147179D02*
X67069498Y-81227991D01*
X67069498Y-81227991D02*
X67204185Y-81308803D01*
X67204185Y-81308803D02*
X67284997Y-81335741D01*
X67284997Y-81335741D02*
X67392746Y-81335741D01*
X67392746Y-81335741D02*
X67500496Y-81281866D01*
X67500496Y-81281866D02*
X67554371Y-81227991D01*
X67554371Y-81227991D02*
X67608246Y-81120241D01*
X67608246Y-81120241D02*
X67608246Y-81066367D01*
X67608246Y-81066367D02*
X67419684Y-80877805D01*
X67419684Y-80877805D02*
X67311934Y-80985554D01*
X67904557Y-80877805D02*
X67338872Y-80312119D01*
X67338872Y-80312119D02*
X68227806Y-80554556D01*
X68227806Y-80554556D02*
X67662120Y-79988871D01*
X68497180Y-80285182D02*
X67931494Y-79719497D01*
X67931494Y-79719497D02*
X68066181Y-79584810D01*
X68066181Y-79584810D02*
X68173931Y-79530935D01*
X68173931Y-79530935D02*
X68281680Y-79530935D01*
X68281680Y-79530935D02*
X68362493Y-79557872D01*
X68362493Y-79557872D02*
X68497180Y-79638685D01*
X68497180Y-79638685D02*
X68577992Y-79719497D01*
X68577992Y-79719497D02*
X68658804Y-79854184D01*
X68658804Y-79854184D02*
X68685741Y-79934996D01*
X68685741Y-79934996D02*
X68685741Y-80042746D01*
X68685741Y-80042746D02*
X68631867Y-80150495D01*
X68631867Y-80150495D02*
X68497180Y-80285182D01*
X67123372Y-47561494D02*
X67042560Y-47588431D01*
X67042560Y-47588431D02*
X66961748Y-47669243D01*
X66961748Y-47669243D02*
X66907873Y-47776993D01*
X66907873Y-47776993D02*
X66907873Y-47884742D01*
X66907873Y-47884742D02*
X66934810Y-47965555D01*
X66934810Y-47965555D02*
X67015623Y-48100242D01*
X67015623Y-48100242D02*
X67096435Y-48181054D01*
X67096435Y-48181054D02*
X67231122Y-48261866D01*
X67231122Y-48261866D02*
X67311934Y-48288803D01*
X67311934Y-48288803D02*
X67419684Y-48288803D01*
X67419684Y-48288803D02*
X67527433Y-48234929D01*
X67527433Y-48234929D02*
X67581308Y-48181054D01*
X67581308Y-48181054D02*
X67635183Y-48073304D01*
X67635183Y-48073304D02*
X67635183Y-48019429D01*
X67635183Y-48019429D02*
X67446621Y-47830868D01*
X67446621Y-47830868D02*
X67338871Y-47938617D01*
X67931494Y-47830868D02*
X67365809Y-47265182D01*
X67365809Y-47265182D02*
X67581308Y-47049683D01*
X67581308Y-47049683D02*
X67662120Y-47022746D01*
X67662120Y-47022746D02*
X67715995Y-47022746D01*
X67715995Y-47022746D02*
X67796807Y-47049683D01*
X67796807Y-47049683D02*
X67877619Y-47130495D01*
X67877619Y-47130495D02*
X67904557Y-47211307D01*
X67904557Y-47211307D02*
X67904557Y-47265182D01*
X67904557Y-47265182D02*
X67877619Y-47345994D01*
X67877619Y-47345994D02*
X67662120Y-47561494D01*
X67877619Y-46753372D02*
X68227806Y-46403185D01*
X68227806Y-46403185D02*
X68254743Y-46807246D01*
X68254743Y-46807246D02*
X68335555Y-46726434D01*
X68335555Y-46726434D02*
X68416367Y-46699497D01*
X68416367Y-46699497D02*
X68470242Y-46699497D01*
X68470242Y-46699497D02*
X68551054Y-46726434D01*
X68551054Y-46726434D02*
X68685741Y-46861121D01*
X68685741Y-46861121D02*
X68712679Y-46941933D01*
X68712679Y-46941933D02*
X68712679Y-46995808D01*
X68712679Y-46995808D02*
X68685741Y-47076620D01*
X68685741Y-47076620D02*
X68524117Y-47238245D01*
X68524117Y-47238245D02*
X68443305Y-47265182D01*
X68443305Y-47265182D02*
X68389430Y-47265182D01*
X67123372Y-37401494D02*
X67042560Y-37428431D01*
X67042560Y-37428431D02*
X66961748Y-37509243D01*
X66961748Y-37509243D02*
X66907873Y-37616993D01*
X66907873Y-37616993D02*
X66907873Y-37724742D01*
X66907873Y-37724742D02*
X66934810Y-37805555D01*
X66934810Y-37805555D02*
X67015623Y-37940242D01*
X67015623Y-37940242D02*
X67096435Y-38021054D01*
X67096435Y-38021054D02*
X67231122Y-38101866D01*
X67231122Y-38101866D02*
X67311934Y-38128803D01*
X67311934Y-38128803D02*
X67419684Y-38128803D01*
X67419684Y-38128803D02*
X67527433Y-38074929D01*
X67527433Y-38074929D02*
X67581308Y-38021054D01*
X67581308Y-38021054D02*
X67635183Y-37913304D01*
X67635183Y-37913304D02*
X67635183Y-37859429D01*
X67635183Y-37859429D02*
X67446621Y-37670868D01*
X67446621Y-37670868D02*
X67338871Y-37778617D01*
X67931494Y-37670868D02*
X67365809Y-37105182D01*
X67365809Y-37105182D02*
X67581308Y-36889683D01*
X67581308Y-36889683D02*
X67662120Y-36862746D01*
X67662120Y-36862746D02*
X67715995Y-36862746D01*
X67715995Y-36862746D02*
X67796807Y-36889683D01*
X67796807Y-36889683D02*
X67877619Y-36970495D01*
X67877619Y-36970495D02*
X67904557Y-37051307D01*
X67904557Y-37051307D02*
X67904557Y-37105182D01*
X67904557Y-37105182D02*
X67877619Y-37185994D01*
X67877619Y-37185994D02*
X67662120Y-37401494D01*
X68039244Y-36431747D02*
X68093119Y-36377872D01*
X68093119Y-36377872D02*
X68173931Y-36350935D01*
X68173931Y-36350935D02*
X68227806Y-36350935D01*
X68227806Y-36350935D02*
X68308618Y-36377872D01*
X68308618Y-36377872D02*
X68443305Y-36458685D01*
X68443305Y-36458685D02*
X68577992Y-36593372D01*
X68577992Y-36593372D02*
X68658804Y-36728059D01*
X68658804Y-36728059D02*
X68685741Y-36808871D01*
X68685741Y-36808871D02*
X68685741Y-36862746D01*
X68685741Y-36862746D02*
X68658804Y-36943558D01*
X68658804Y-36943558D02*
X68604929Y-36997433D01*
X68604929Y-36997433D02*
X68524117Y-37024370D01*
X68524117Y-37024370D02*
X68470242Y-37024370D01*
X68470242Y-37024370D02*
X68389430Y-36997433D01*
X68389430Y-36997433D02*
X68254743Y-36916620D01*
X68254743Y-36916620D02*
X68120056Y-36781933D01*
X68120056Y-36781933D02*
X68039244Y-36647246D01*
X68039244Y-36647246D02*
X68012306Y-36566434D01*
X68012306Y-36566434D02*
X68012306Y-36512559D01*
X68012306Y-36512559D02*
X68039244Y-36431747D01*
X67123372Y-52641494D02*
X67042560Y-52668431D01*
X67042560Y-52668431D02*
X66961748Y-52749243D01*
X66961748Y-52749243D02*
X66907873Y-52856993D01*
X66907873Y-52856993D02*
X66907873Y-52964742D01*
X66907873Y-52964742D02*
X66934810Y-53045555D01*
X66934810Y-53045555D02*
X67015623Y-53180242D01*
X67015623Y-53180242D02*
X67096435Y-53261054D01*
X67096435Y-53261054D02*
X67231122Y-53341866D01*
X67231122Y-53341866D02*
X67311934Y-53368803D01*
X67311934Y-53368803D02*
X67419684Y-53368803D01*
X67419684Y-53368803D02*
X67527433Y-53314929D01*
X67527433Y-53314929D02*
X67581308Y-53261054D01*
X67581308Y-53261054D02*
X67635183Y-53153304D01*
X67635183Y-53153304D02*
X67635183Y-53099429D01*
X67635183Y-53099429D02*
X67446621Y-52910868D01*
X67446621Y-52910868D02*
X67338871Y-53018617D01*
X67931494Y-52910868D02*
X67365809Y-52345182D01*
X67365809Y-52345182D02*
X67581308Y-52129683D01*
X67581308Y-52129683D02*
X67662120Y-52102746D01*
X67662120Y-52102746D02*
X67715995Y-52102746D01*
X67715995Y-52102746D02*
X67796807Y-52129683D01*
X67796807Y-52129683D02*
X67877619Y-52210495D01*
X67877619Y-52210495D02*
X67904557Y-52291307D01*
X67904557Y-52291307D02*
X67904557Y-52345182D01*
X67904557Y-52345182D02*
X67877619Y-52425994D01*
X67877619Y-52425994D02*
X67662120Y-52641494D01*
X68200868Y-51510123D02*
X67931494Y-51779497D01*
X67931494Y-51779497D02*
X68173931Y-52075808D01*
X68173931Y-52075808D02*
X68173931Y-52021933D01*
X68173931Y-52021933D02*
X68200868Y-51941121D01*
X68200868Y-51941121D02*
X68335555Y-51806434D01*
X68335555Y-51806434D02*
X68416367Y-51779497D01*
X68416367Y-51779497D02*
X68470242Y-51779497D01*
X68470242Y-51779497D02*
X68551054Y-51806434D01*
X68551054Y-51806434D02*
X68685741Y-51941121D01*
X68685741Y-51941121D02*
X68712679Y-52021933D01*
X68712679Y-52021933D02*
X68712679Y-52075808D01*
X68712679Y-52075808D02*
X68685741Y-52156620D01*
X68685741Y-52156620D02*
X68551054Y-52291307D01*
X68551054Y-52291307D02*
X68470242Y-52318245D01*
X68470242Y-52318245D02*
X68416367Y-52318245D01*
X84514761Y-87934200D02*
X84629047Y-87972295D01*
X84629047Y-87972295D02*
X84819523Y-87972295D01*
X84819523Y-87972295D02*
X84895714Y-87934200D01*
X84895714Y-87934200D02*
X84933809Y-87896104D01*
X84933809Y-87896104D02*
X84971904Y-87819914D01*
X84971904Y-87819914D02*
X84971904Y-87743723D01*
X84971904Y-87743723D02*
X84933809Y-87667533D01*
X84933809Y-87667533D02*
X84895714Y-87629438D01*
X84895714Y-87629438D02*
X84819523Y-87591342D01*
X84819523Y-87591342D02*
X84667142Y-87553247D01*
X84667142Y-87553247D02*
X84590952Y-87515152D01*
X84590952Y-87515152D02*
X84552857Y-87477057D01*
X84552857Y-87477057D02*
X84514761Y-87400866D01*
X84514761Y-87400866D02*
X84514761Y-87324676D01*
X84514761Y-87324676D02*
X84552857Y-87248485D01*
X84552857Y-87248485D02*
X84590952Y-87210390D01*
X84590952Y-87210390D02*
X84667142Y-87172295D01*
X84667142Y-87172295D02*
X84857619Y-87172295D01*
X84857619Y-87172295D02*
X84971904Y-87210390D01*
X85238571Y-87172295D02*
X85429047Y-87972295D01*
X85429047Y-87972295D02*
X85581428Y-87400866D01*
X85581428Y-87400866D02*
X85733809Y-87972295D01*
X85733809Y-87972295D02*
X85924286Y-87172295D01*
X86229048Y-87972295D02*
X86229048Y-87172295D01*
X86229048Y-87172295D02*
X86419524Y-87172295D01*
X86419524Y-87172295D02*
X86533810Y-87210390D01*
X86533810Y-87210390D02*
X86610000Y-87286580D01*
X86610000Y-87286580D02*
X86648095Y-87362771D01*
X86648095Y-87362771D02*
X86686191Y-87515152D01*
X86686191Y-87515152D02*
X86686191Y-87629438D01*
X86686191Y-87629438D02*
X86648095Y-87781819D01*
X86648095Y-87781819D02*
X86610000Y-87858009D01*
X86610000Y-87858009D02*
X86533810Y-87934200D01*
X86533810Y-87934200D02*
X86419524Y-87972295D01*
X86419524Y-87972295D02*
X86229048Y-87972295D01*
X87029048Y-87972295D02*
X87029048Y-87172295D01*
X87562381Y-87172295D02*
X87714762Y-87172295D01*
X87714762Y-87172295D02*
X87790952Y-87210390D01*
X87790952Y-87210390D02*
X87867143Y-87286580D01*
X87867143Y-87286580D02*
X87905238Y-87438961D01*
X87905238Y-87438961D02*
X87905238Y-87705628D01*
X87905238Y-87705628D02*
X87867143Y-87858009D01*
X87867143Y-87858009D02*
X87790952Y-87934200D01*
X87790952Y-87934200D02*
X87714762Y-87972295D01*
X87714762Y-87972295D02*
X87562381Y-87972295D01*
X87562381Y-87972295D02*
X87486190Y-87934200D01*
X87486190Y-87934200D02*
X87410000Y-87858009D01*
X87410000Y-87858009D02*
X87371904Y-87705628D01*
X87371904Y-87705628D02*
X87371904Y-87438961D01*
X87371904Y-87438961D02*
X87410000Y-87286580D01*
X87410000Y-87286580D02*
X87486190Y-87210390D01*
X87486190Y-87210390D02*
X87562381Y-87172295D01*
X67123372Y-65341494D02*
X67042560Y-65368431D01*
X67042560Y-65368431D02*
X66961748Y-65449243D01*
X66961748Y-65449243D02*
X66907873Y-65556993D01*
X66907873Y-65556993D02*
X66907873Y-65664742D01*
X66907873Y-65664742D02*
X66934810Y-65745555D01*
X66934810Y-65745555D02*
X67015623Y-65880242D01*
X67015623Y-65880242D02*
X67096435Y-65961054D01*
X67096435Y-65961054D02*
X67231122Y-66041866D01*
X67231122Y-66041866D02*
X67311934Y-66068803D01*
X67311934Y-66068803D02*
X67419684Y-66068803D01*
X67419684Y-66068803D02*
X67527433Y-66014929D01*
X67527433Y-66014929D02*
X67581308Y-65961054D01*
X67581308Y-65961054D02*
X67635183Y-65853304D01*
X67635183Y-65853304D02*
X67635183Y-65799429D01*
X67635183Y-65799429D02*
X67446621Y-65610868D01*
X67446621Y-65610868D02*
X67338871Y-65718617D01*
X67931494Y-65610868D02*
X67365809Y-65045182D01*
X67365809Y-65045182D02*
X67581308Y-64829683D01*
X67581308Y-64829683D02*
X67662120Y-64802746D01*
X67662120Y-64802746D02*
X67715995Y-64802746D01*
X67715995Y-64802746D02*
X67796807Y-64829683D01*
X67796807Y-64829683D02*
X67877619Y-64910495D01*
X67877619Y-64910495D02*
X67904557Y-64991307D01*
X67904557Y-64991307D02*
X67904557Y-65045182D01*
X67904557Y-65045182D02*
X67877619Y-65125994D01*
X67877619Y-65125994D02*
X67662120Y-65341494D01*
X68524117Y-65018245D02*
X68631867Y-64910495D01*
X68631867Y-64910495D02*
X68658804Y-64829683D01*
X68658804Y-64829683D02*
X68658804Y-64775808D01*
X68658804Y-64775808D02*
X68631867Y-64641121D01*
X68631867Y-64641121D02*
X68551054Y-64506434D01*
X68551054Y-64506434D02*
X68335555Y-64290935D01*
X68335555Y-64290935D02*
X68254743Y-64263998D01*
X68254743Y-64263998D02*
X68200868Y-64263998D01*
X68200868Y-64263998D02*
X68120056Y-64290935D01*
X68120056Y-64290935D02*
X68012306Y-64398685D01*
X68012306Y-64398685D02*
X67985369Y-64479497D01*
X67985369Y-64479497D02*
X67985369Y-64533372D01*
X67985369Y-64533372D02*
X68012306Y-64614184D01*
X68012306Y-64614184D02*
X68146993Y-64748871D01*
X68146993Y-64748871D02*
X68227806Y-64775808D01*
X68227806Y-64775808D02*
X68281680Y-64775808D01*
X68281680Y-64775808D02*
X68362493Y-64748871D01*
X68362493Y-64748871D02*
X68470242Y-64641121D01*
X68470242Y-64641121D02*
X68497180Y-64560309D01*
X68497180Y-64560309D02*
X68497180Y-64506434D01*
X68497180Y-64506434D02*
X68470242Y-64425622D01*
X92707998Y-52656868D02*
X92627185Y-52683805D01*
X92627185Y-52683805D02*
X92546373Y-52764618D01*
X92546373Y-52764618D02*
X92492498Y-52872367D01*
X92492498Y-52872367D02*
X92492498Y-52980117D01*
X92492498Y-52980117D02*
X92519436Y-53060929D01*
X92519436Y-53060929D02*
X92600248Y-53195616D01*
X92600248Y-53195616D02*
X92681060Y-53276428D01*
X92681060Y-53276428D02*
X92815747Y-53357241D01*
X92815747Y-53357241D02*
X92896560Y-53384178D01*
X92896560Y-53384178D02*
X93004309Y-53384178D01*
X93004309Y-53384178D02*
X93112059Y-53330303D01*
X93112059Y-53330303D02*
X93165934Y-53276428D01*
X93165934Y-53276428D02*
X93219808Y-53168679D01*
X93219808Y-53168679D02*
X93219808Y-53114804D01*
X93219808Y-53114804D02*
X93031247Y-52926242D01*
X93031247Y-52926242D02*
X92923497Y-53033992D01*
X93516120Y-52926242D02*
X92950434Y-52360557D01*
X92950434Y-52360557D02*
X93165934Y-52145057D01*
X93165934Y-52145057D02*
X93246746Y-52118120D01*
X93246746Y-52118120D02*
X93300621Y-52118120D01*
X93300621Y-52118120D02*
X93381433Y-52145057D01*
X93381433Y-52145057D02*
X93462245Y-52225870D01*
X93462245Y-52225870D02*
X93489182Y-52306682D01*
X93489182Y-52306682D02*
X93489182Y-52360557D01*
X93489182Y-52360557D02*
X93462245Y-52441369D01*
X93462245Y-52441369D02*
X93246746Y-52656868D01*
X93543057Y-51875683D02*
X93543057Y-51821809D01*
X93543057Y-51821809D02*
X93569995Y-51740996D01*
X93569995Y-51740996D02*
X93704682Y-51606309D01*
X93704682Y-51606309D02*
X93785494Y-51579372D01*
X93785494Y-51579372D02*
X93839369Y-51579372D01*
X93839369Y-51579372D02*
X93920181Y-51606309D01*
X93920181Y-51606309D02*
X93974056Y-51660184D01*
X93974056Y-51660184D02*
X94027930Y-51767934D01*
X94027930Y-51767934D02*
X94027930Y-52414431D01*
X94027930Y-52414431D02*
X94378117Y-52064245D01*
X94378117Y-51417747D02*
X94297305Y-51444685D01*
X94297305Y-51444685D02*
X94243430Y-51444685D01*
X94243430Y-51444685D02*
X94162618Y-51417747D01*
X94162618Y-51417747D02*
X94135680Y-51390810D01*
X94135680Y-51390810D02*
X94108743Y-51309998D01*
X94108743Y-51309998D02*
X94108743Y-51256123D01*
X94108743Y-51256123D02*
X94135680Y-51175311D01*
X94135680Y-51175311D02*
X94243430Y-51067561D01*
X94243430Y-51067561D02*
X94324242Y-51040624D01*
X94324242Y-51040624D02*
X94378117Y-51040624D01*
X94378117Y-51040624D02*
X94458929Y-51067561D01*
X94458929Y-51067561D02*
X94485866Y-51094499D01*
X94485866Y-51094499D02*
X94512804Y-51175311D01*
X94512804Y-51175311D02*
X94512804Y-51229186D01*
X94512804Y-51229186D02*
X94485866Y-51309998D01*
X94485866Y-51309998D02*
X94378117Y-51417747D01*
X94378117Y-51417747D02*
X94351179Y-51498560D01*
X94351179Y-51498560D02*
X94351179Y-51552434D01*
X94351179Y-51552434D02*
X94378117Y-51633247D01*
X94378117Y-51633247D02*
X94485866Y-51740996D01*
X94485866Y-51740996D02*
X94566679Y-51767934D01*
X94566679Y-51767934D02*
X94620553Y-51767934D01*
X94620553Y-51767934D02*
X94701366Y-51740996D01*
X94701366Y-51740996D02*
X94809115Y-51633247D01*
X94809115Y-51633247D02*
X94836053Y-51552434D01*
X94836053Y-51552434D02*
X94836053Y-51498560D01*
X94836053Y-51498560D02*
X94809115Y-51417747D01*
X94809115Y-51417747D02*
X94701366Y-51309998D01*
X94701366Y-51309998D02*
X94620553Y-51283060D01*
X94620553Y-51283060D02*
X94566679Y-51283060D01*
X94566679Y-51283060D02*
X94485866Y-51309998D01*
X67096435Y-55208431D02*
X67015623Y-55235368D01*
X67015623Y-55235368D02*
X66934811Y-55316180D01*
X66934811Y-55316180D02*
X66880936Y-55423930D01*
X66880936Y-55423930D02*
X66880936Y-55531680D01*
X66880936Y-55531680D02*
X66907873Y-55612492D01*
X66907873Y-55612492D02*
X66988685Y-55747179D01*
X66988685Y-55747179D02*
X67069498Y-55827991D01*
X67069498Y-55827991D02*
X67204185Y-55908803D01*
X67204185Y-55908803D02*
X67284997Y-55935741D01*
X67284997Y-55935741D02*
X67392746Y-55935741D01*
X67392746Y-55935741D02*
X67500496Y-55881866D01*
X67500496Y-55881866D02*
X67554371Y-55827991D01*
X67554371Y-55827991D02*
X67608246Y-55720241D01*
X67608246Y-55720241D02*
X67608246Y-55666367D01*
X67608246Y-55666367D02*
X67419684Y-55477805D01*
X67419684Y-55477805D02*
X67311934Y-55585554D01*
X67904557Y-55477805D02*
X67338872Y-54912119D01*
X67338872Y-54912119D02*
X68227806Y-55154556D01*
X68227806Y-55154556D02*
X67662120Y-54588871D01*
X68497180Y-54885182D02*
X67931494Y-54319497D01*
X67931494Y-54319497D02*
X68066181Y-54184810D01*
X68066181Y-54184810D02*
X68173931Y-54130935D01*
X68173931Y-54130935D02*
X68281680Y-54130935D01*
X68281680Y-54130935D02*
X68362493Y-54157872D01*
X68362493Y-54157872D02*
X68497180Y-54238685D01*
X68497180Y-54238685D02*
X68577992Y-54319497D01*
X68577992Y-54319497D02*
X68658804Y-54454184D01*
X68658804Y-54454184D02*
X68685741Y-54534996D01*
X68685741Y-54534996D02*
X68685741Y-54642746D01*
X68685741Y-54642746D02*
X68631867Y-54750495D01*
X68631867Y-54750495D02*
X68497180Y-54885182D01*
X92696435Y-67908431D02*
X92615623Y-67935368D01*
X92615623Y-67935368D02*
X92534811Y-68016180D01*
X92534811Y-68016180D02*
X92480936Y-68123930D01*
X92480936Y-68123930D02*
X92480936Y-68231680D01*
X92480936Y-68231680D02*
X92507873Y-68312492D01*
X92507873Y-68312492D02*
X92588685Y-68447179D01*
X92588685Y-68447179D02*
X92669498Y-68527991D01*
X92669498Y-68527991D02*
X92804185Y-68608803D01*
X92804185Y-68608803D02*
X92884997Y-68635741D01*
X92884997Y-68635741D02*
X92992746Y-68635741D01*
X92992746Y-68635741D02*
X93100496Y-68581866D01*
X93100496Y-68581866D02*
X93154371Y-68527991D01*
X93154371Y-68527991D02*
X93208246Y-68420241D01*
X93208246Y-68420241D02*
X93208246Y-68366367D01*
X93208246Y-68366367D02*
X93019684Y-68177805D01*
X93019684Y-68177805D02*
X92911934Y-68285554D01*
X93504557Y-68177805D02*
X92938872Y-67612119D01*
X92938872Y-67612119D02*
X93827806Y-67854556D01*
X93827806Y-67854556D02*
X93262120Y-67288871D01*
X94097180Y-67585182D02*
X93531494Y-67019497D01*
X93531494Y-67019497D02*
X93666181Y-66884810D01*
X93666181Y-66884810D02*
X93773931Y-66830935D01*
X93773931Y-66830935D02*
X93881680Y-66830935D01*
X93881680Y-66830935D02*
X93962493Y-66857872D01*
X93962493Y-66857872D02*
X94097180Y-66938685D01*
X94097180Y-66938685D02*
X94177992Y-67019497D01*
X94177992Y-67019497D02*
X94258804Y-67154184D01*
X94258804Y-67154184D02*
X94285741Y-67234996D01*
X94285741Y-67234996D02*
X94285741Y-67342746D01*
X94285741Y-67342746D02*
X94231867Y-67450495D01*
X94231867Y-67450495D02*
X94097180Y-67585182D01*
X92707998Y-85930868D02*
X92627185Y-85957805D01*
X92627185Y-85957805D02*
X92546373Y-86038618D01*
X92546373Y-86038618D02*
X92492498Y-86146367D01*
X92492498Y-86146367D02*
X92492498Y-86254117D01*
X92492498Y-86254117D02*
X92519436Y-86334929D01*
X92519436Y-86334929D02*
X92600248Y-86469616D01*
X92600248Y-86469616D02*
X92681060Y-86550428D01*
X92681060Y-86550428D02*
X92815747Y-86631241D01*
X92815747Y-86631241D02*
X92896560Y-86658178D01*
X92896560Y-86658178D02*
X93004309Y-86658178D01*
X93004309Y-86658178D02*
X93112059Y-86604303D01*
X93112059Y-86604303D02*
X93165934Y-86550428D01*
X93165934Y-86550428D02*
X93219808Y-86442679D01*
X93219808Y-86442679D02*
X93219808Y-86388804D01*
X93219808Y-86388804D02*
X93031247Y-86200242D01*
X93031247Y-86200242D02*
X92923497Y-86307992D01*
X93516120Y-86200242D02*
X92950434Y-85634557D01*
X92950434Y-85634557D02*
X93165934Y-85419057D01*
X93165934Y-85419057D02*
X93246746Y-85392120D01*
X93246746Y-85392120D02*
X93300621Y-85392120D01*
X93300621Y-85392120D02*
X93381433Y-85419057D01*
X93381433Y-85419057D02*
X93462245Y-85499870D01*
X93462245Y-85499870D02*
X93489182Y-85580682D01*
X93489182Y-85580682D02*
X93489182Y-85634557D01*
X93489182Y-85634557D02*
X93462245Y-85715369D01*
X93462245Y-85715369D02*
X93246746Y-85930868D01*
X94378117Y-85338245D02*
X94054868Y-85661494D01*
X94216492Y-85499870D02*
X93650807Y-84934184D01*
X93650807Y-84934184D02*
X93677744Y-85068871D01*
X93677744Y-85068871D02*
X93677744Y-85176621D01*
X93677744Y-85176621D02*
X93650807Y-85257433D01*
X94297305Y-84287686D02*
X94189555Y-84395436D01*
X94189555Y-84395436D02*
X94162618Y-84476248D01*
X94162618Y-84476248D02*
X94162618Y-84530123D01*
X94162618Y-84530123D02*
X94189555Y-84664810D01*
X94189555Y-84664810D02*
X94270367Y-84799497D01*
X94270367Y-84799497D02*
X94485866Y-85014996D01*
X94485866Y-85014996D02*
X94566679Y-85041934D01*
X94566679Y-85041934D02*
X94620553Y-85041934D01*
X94620553Y-85041934D02*
X94701366Y-85014996D01*
X94701366Y-85014996D02*
X94809115Y-84907247D01*
X94809115Y-84907247D02*
X94836053Y-84826434D01*
X94836053Y-84826434D02*
X94836053Y-84772560D01*
X94836053Y-84772560D02*
X94809115Y-84691747D01*
X94809115Y-84691747D02*
X94674428Y-84557060D01*
X94674428Y-84557060D02*
X94593616Y-84530123D01*
X94593616Y-84530123D02*
X94539741Y-84530123D01*
X94539741Y-84530123D02*
X94458929Y-84557060D01*
X94458929Y-84557060D02*
X94351179Y-84664810D01*
X94351179Y-84664810D02*
X94324242Y-84745622D01*
X94324242Y-84745622D02*
X94324242Y-84799497D01*
X94324242Y-84799497D02*
X94351179Y-84880309D01*
X67123372Y-62801494D02*
X67042560Y-62828431D01*
X67042560Y-62828431D02*
X66961748Y-62909243D01*
X66961748Y-62909243D02*
X66907873Y-63016993D01*
X66907873Y-63016993D02*
X66907873Y-63124742D01*
X66907873Y-63124742D02*
X66934810Y-63205555D01*
X66934810Y-63205555D02*
X67015623Y-63340242D01*
X67015623Y-63340242D02*
X67096435Y-63421054D01*
X67096435Y-63421054D02*
X67231122Y-63501866D01*
X67231122Y-63501866D02*
X67311934Y-63528803D01*
X67311934Y-63528803D02*
X67419684Y-63528803D01*
X67419684Y-63528803D02*
X67527433Y-63474929D01*
X67527433Y-63474929D02*
X67581308Y-63421054D01*
X67581308Y-63421054D02*
X67635183Y-63313304D01*
X67635183Y-63313304D02*
X67635183Y-63259429D01*
X67635183Y-63259429D02*
X67446621Y-63070868D01*
X67446621Y-63070868D02*
X67338871Y-63178617D01*
X67931494Y-63070868D02*
X67365809Y-62505182D01*
X67365809Y-62505182D02*
X67581308Y-62289683D01*
X67581308Y-62289683D02*
X67662120Y-62262746D01*
X67662120Y-62262746D02*
X67715995Y-62262746D01*
X67715995Y-62262746D02*
X67796807Y-62289683D01*
X67796807Y-62289683D02*
X67877619Y-62370495D01*
X67877619Y-62370495D02*
X67904557Y-62451307D01*
X67904557Y-62451307D02*
X67904557Y-62505182D01*
X67904557Y-62505182D02*
X67877619Y-62585994D01*
X67877619Y-62585994D02*
X67662120Y-62801494D01*
X68254743Y-62101121D02*
X68173931Y-62128059D01*
X68173931Y-62128059D02*
X68120056Y-62128059D01*
X68120056Y-62128059D02*
X68039244Y-62101121D01*
X68039244Y-62101121D02*
X68012306Y-62074184D01*
X68012306Y-62074184D02*
X67985369Y-61993372D01*
X67985369Y-61993372D02*
X67985369Y-61939497D01*
X67985369Y-61939497D02*
X68012306Y-61858685D01*
X68012306Y-61858685D02*
X68120056Y-61750935D01*
X68120056Y-61750935D02*
X68200868Y-61723998D01*
X68200868Y-61723998D02*
X68254743Y-61723998D01*
X68254743Y-61723998D02*
X68335555Y-61750935D01*
X68335555Y-61750935D02*
X68362493Y-61777872D01*
X68362493Y-61777872D02*
X68389430Y-61858685D01*
X68389430Y-61858685D02*
X68389430Y-61912559D01*
X68389430Y-61912559D02*
X68362493Y-61993372D01*
X68362493Y-61993372D02*
X68254743Y-62101121D01*
X68254743Y-62101121D02*
X68227806Y-62181933D01*
X68227806Y-62181933D02*
X68227806Y-62235808D01*
X68227806Y-62235808D02*
X68254743Y-62316620D01*
X68254743Y-62316620D02*
X68362493Y-62424370D01*
X68362493Y-62424370D02*
X68443305Y-62451307D01*
X68443305Y-62451307D02*
X68497180Y-62451307D01*
X68497180Y-62451307D02*
X68577992Y-62424370D01*
X68577992Y-62424370D02*
X68685741Y-62316620D01*
X68685741Y-62316620D02*
X68712679Y-62235808D01*
X68712679Y-62235808D02*
X68712679Y-62181933D01*
X68712679Y-62181933D02*
X68685741Y-62101121D01*
X68685741Y-62101121D02*
X68577992Y-61993372D01*
X68577992Y-61993372D02*
X68497180Y-61966434D01*
X68497180Y-61966434D02*
X68443305Y-61966434D01*
X68443305Y-61966434D02*
X68362493Y-61993372D01*
X92500123Y-47900868D02*
X92850309Y-47550682D01*
X92850309Y-47550682D02*
X92877247Y-47954743D01*
X92877247Y-47954743D02*
X92958059Y-47873931D01*
X92958059Y-47873931D02*
X93038871Y-47846993D01*
X93038871Y-47846993D02*
X93092746Y-47846993D01*
X93092746Y-47846993D02*
X93173558Y-47873931D01*
X93173558Y-47873931D02*
X93308245Y-48008618D01*
X93308245Y-48008618D02*
X93335182Y-48089430D01*
X93335182Y-48089430D02*
X93335182Y-48143305D01*
X93335182Y-48143305D02*
X93308245Y-48224117D01*
X93308245Y-48224117D02*
X93146621Y-48385741D01*
X93146621Y-48385741D02*
X93065808Y-48412679D01*
X93065808Y-48412679D02*
X93011934Y-48412679D01*
X93011934Y-47389057D02*
X93766181Y-47766181D01*
X93766181Y-47766181D02*
X93389057Y-47011934D01*
X93523744Y-46877247D02*
X93873930Y-46527061D01*
X93873930Y-46527061D02*
X93900868Y-46931122D01*
X93900868Y-46931122D02*
X93981680Y-46850309D01*
X93981680Y-46850309D02*
X94062492Y-46823372D01*
X94062492Y-46823372D02*
X94116367Y-46823372D01*
X94116367Y-46823372D02*
X94197179Y-46850309D01*
X94197179Y-46850309D02*
X94331866Y-46984996D01*
X94331866Y-46984996D02*
X94358804Y-47065809D01*
X94358804Y-47065809D02*
X94358804Y-47119683D01*
X94358804Y-47119683D02*
X94331866Y-47200496D01*
X94331866Y-47200496D02*
X94170242Y-47362120D01*
X94170242Y-47362120D02*
X94089430Y-47389057D01*
X94089430Y-47389057D02*
X94035555Y-47389057D01*
X92532407Y-45368584D02*
X92882593Y-45018398D01*
X92882593Y-45018398D02*
X92909531Y-45422459D01*
X92909531Y-45422459D02*
X92990343Y-45341646D01*
X92990343Y-45341646D02*
X93071155Y-45314709D01*
X93071155Y-45314709D02*
X93125030Y-45314709D01*
X93125030Y-45314709D02*
X93205842Y-45341646D01*
X93205842Y-45341646D02*
X93340529Y-45476333D01*
X93340529Y-45476333D02*
X93367467Y-45557146D01*
X93367467Y-45557146D02*
X93367467Y-45611020D01*
X93367467Y-45611020D02*
X93340529Y-45691833D01*
X93340529Y-45691833D02*
X93178905Y-45853457D01*
X93178905Y-45853457D02*
X93098093Y-45880394D01*
X93098093Y-45880394D02*
X93044218Y-45880394D01*
X93044218Y-44856773D02*
X93798465Y-45233897D01*
X93798465Y-45233897D02*
X93421342Y-44479649D01*
X93556028Y-44344963D02*
X93906215Y-43994776D01*
X93906215Y-43994776D02*
X93933152Y-44398837D01*
X93933152Y-44398837D02*
X94013964Y-44318025D01*
X94013964Y-44318025D02*
X94094776Y-44291088D01*
X94094776Y-44291088D02*
X94148651Y-44291088D01*
X94148651Y-44291088D02*
X94229464Y-44318025D01*
X94229464Y-44318025D02*
X94364151Y-44452712D01*
X94364151Y-44452712D02*
X94391088Y-44533524D01*
X94391088Y-44533524D02*
X94391088Y-44587399D01*
X94391088Y-44587399D02*
X94364151Y-44668211D01*
X94364151Y-44668211D02*
X94202526Y-44829836D01*
X94202526Y-44829836D02*
X94121714Y-44856773D01*
X94121714Y-44856773D02*
X94067839Y-44856773D01*
X94633525Y-44506587D02*
X95064523Y-44075588D01*
X94849024Y-43590715D02*
X95037586Y-43402153D01*
X95414709Y-43617652D02*
X95145335Y-43887026D01*
X95145335Y-43887026D02*
X94579650Y-43321341D01*
X94579650Y-43321341D02*
X94849024Y-43051967D01*
X95657146Y-43375215D02*
X95091461Y-42809530D01*
X95091461Y-42809530D02*
X95980395Y-43051967D01*
X95980395Y-43051967D02*
X95414710Y-42486281D01*
X73100475Y-87934200D02*
X73214761Y-87972295D01*
X73214761Y-87972295D02*
X73405237Y-87972295D01*
X73405237Y-87972295D02*
X73481428Y-87934200D01*
X73481428Y-87934200D02*
X73519523Y-87896104D01*
X73519523Y-87896104D02*
X73557618Y-87819914D01*
X73557618Y-87819914D02*
X73557618Y-87743723D01*
X73557618Y-87743723D02*
X73519523Y-87667533D01*
X73519523Y-87667533D02*
X73481428Y-87629438D01*
X73481428Y-87629438D02*
X73405237Y-87591342D01*
X73405237Y-87591342D02*
X73252856Y-87553247D01*
X73252856Y-87553247D02*
X73176666Y-87515152D01*
X73176666Y-87515152D02*
X73138571Y-87477057D01*
X73138571Y-87477057D02*
X73100475Y-87400866D01*
X73100475Y-87400866D02*
X73100475Y-87324676D01*
X73100475Y-87324676D02*
X73138571Y-87248485D01*
X73138571Y-87248485D02*
X73176666Y-87210390D01*
X73176666Y-87210390D02*
X73252856Y-87172295D01*
X73252856Y-87172295D02*
X73443333Y-87172295D01*
X73443333Y-87172295D02*
X73557618Y-87210390D01*
X73824285Y-87172295D02*
X74014761Y-87972295D01*
X74014761Y-87972295D02*
X74167142Y-87400866D01*
X74167142Y-87400866D02*
X74319523Y-87972295D01*
X74319523Y-87972295D02*
X74510000Y-87172295D01*
X75271905Y-87896104D02*
X75233809Y-87934200D01*
X75233809Y-87934200D02*
X75119524Y-87972295D01*
X75119524Y-87972295D02*
X75043333Y-87972295D01*
X75043333Y-87972295D02*
X74929047Y-87934200D01*
X74929047Y-87934200D02*
X74852857Y-87858009D01*
X74852857Y-87858009D02*
X74814762Y-87781819D01*
X74814762Y-87781819D02*
X74776666Y-87629438D01*
X74776666Y-87629438D02*
X74776666Y-87515152D01*
X74776666Y-87515152D02*
X74814762Y-87362771D01*
X74814762Y-87362771D02*
X74852857Y-87286580D01*
X74852857Y-87286580D02*
X74929047Y-87210390D01*
X74929047Y-87210390D02*
X75043333Y-87172295D01*
X75043333Y-87172295D02*
X75119524Y-87172295D01*
X75119524Y-87172295D02*
X75233809Y-87210390D01*
X75233809Y-87210390D02*
X75271905Y-87248485D01*
X75995714Y-87972295D02*
X75614762Y-87972295D01*
X75614762Y-87972295D02*
X75614762Y-87172295D01*
X76262381Y-87972295D02*
X76262381Y-87172295D01*
X76719524Y-87972295D02*
X76376666Y-87515152D01*
X76719524Y-87172295D02*
X76262381Y-87629438D01*
X92707998Y-60530868D02*
X92627185Y-60557805D01*
X92627185Y-60557805D02*
X92546373Y-60638618D01*
X92546373Y-60638618D02*
X92492498Y-60746367D01*
X92492498Y-60746367D02*
X92492498Y-60854117D01*
X92492498Y-60854117D02*
X92519436Y-60934929D01*
X92519436Y-60934929D02*
X92600248Y-61069616D01*
X92600248Y-61069616D02*
X92681060Y-61150428D01*
X92681060Y-61150428D02*
X92815747Y-61231241D01*
X92815747Y-61231241D02*
X92896560Y-61258178D01*
X92896560Y-61258178D02*
X93004309Y-61258178D01*
X93004309Y-61258178D02*
X93112059Y-61204303D01*
X93112059Y-61204303D02*
X93165934Y-61150428D01*
X93165934Y-61150428D02*
X93219808Y-61042679D01*
X93219808Y-61042679D02*
X93219808Y-60988804D01*
X93219808Y-60988804D02*
X93031247Y-60800242D01*
X93031247Y-60800242D02*
X92923497Y-60907992D01*
X93516120Y-60800242D02*
X92950434Y-60234557D01*
X92950434Y-60234557D02*
X93165934Y-60019057D01*
X93165934Y-60019057D02*
X93246746Y-59992120D01*
X93246746Y-59992120D02*
X93300621Y-59992120D01*
X93300621Y-59992120D02*
X93381433Y-60019057D01*
X93381433Y-60019057D02*
X93462245Y-60099870D01*
X93462245Y-60099870D02*
X93489182Y-60180682D01*
X93489182Y-60180682D02*
X93489182Y-60234557D01*
X93489182Y-60234557D02*
X93462245Y-60315369D01*
X93462245Y-60315369D02*
X93246746Y-60530868D01*
X93543057Y-59749683D02*
X93543057Y-59695809D01*
X93543057Y-59695809D02*
X93569995Y-59614996D01*
X93569995Y-59614996D02*
X93704682Y-59480309D01*
X93704682Y-59480309D02*
X93785494Y-59453372D01*
X93785494Y-59453372D02*
X93839369Y-59453372D01*
X93839369Y-59453372D02*
X93920181Y-59480309D01*
X93920181Y-59480309D02*
X93974056Y-59534184D01*
X93974056Y-59534184D02*
X94027930Y-59641934D01*
X94027930Y-59641934D02*
X94027930Y-60288431D01*
X94027930Y-60288431D02*
X94378117Y-59938245D01*
X94297305Y-58887686D02*
X94189555Y-58995436D01*
X94189555Y-58995436D02*
X94162618Y-59076248D01*
X94162618Y-59076248D02*
X94162618Y-59130123D01*
X94162618Y-59130123D02*
X94189555Y-59264810D01*
X94189555Y-59264810D02*
X94270367Y-59399497D01*
X94270367Y-59399497D02*
X94485866Y-59614996D01*
X94485866Y-59614996D02*
X94566679Y-59641934D01*
X94566679Y-59641934D02*
X94620553Y-59641934D01*
X94620553Y-59641934D02*
X94701366Y-59614996D01*
X94701366Y-59614996D02*
X94809115Y-59507247D01*
X94809115Y-59507247D02*
X94836053Y-59426434D01*
X94836053Y-59426434D02*
X94836053Y-59372560D01*
X94836053Y-59372560D02*
X94809115Y-59291747D01*
X94809115Y-59291747D02*
X94674428Y-59157060D01*
X94674428Y-59157060D02*
X94593616Y-59130123D01*
X94593616Y-59130123D02*
X94539741Y-59130123D01*
X94539741Y-59130123D02*
X94458929Y-59157060D01*
X94458929Y-59157060D02*
X94351179Y-59264810D01*
X94351179Y-59264810D02*
X94324242Y-59345622D01*
X94324242Y-59345622D02*
X94324242Y-59399497D01*
X94324242Y-59399497D02*
X94351179Y-59480309D01*
X92707998Y-83390868D02*
X92627185Y-83417805D01*
X92627185Y-83417805D02*
X92546373Y-83498618D01*
X92546373Y-83498618D02*
X92492498Y-83606367D01*
X92492498Y-83606367D02*
X92492498Y-83714117D01*
X92492498Y-83714117D02*
X92519436Y-83794929D01*
X92519436Y-83794929D02*
X92600248Y-83929616D01*
X92600248Y-83929616D02*
X92681060Y-84010428D01*
X92681060Y-84010428D02*
X92815747Y-84091241D01*
X92815747Y-84091241D02*
X92896560Y-84118178D01*
X92896560Y-84118178D02*
X93004309Y-84118178D01*
X93004309Y-84118178D02*
X93112059Y-84064303D01*
X93112059Y-84064303D02*
X93165934Y-84010428D01*
X93165934Y-84010428D02*
X93219808Y-83902679D01*
X93219808Y-83902679D02*
X93219808Y-83848804D01*
X93219808Y-83848804D02*
X93031247Y-83660242D01*
X93031247Y-83660242D02*
X92923497Y-83767992D01*
X93516120Y-83660242D02*
X92950434Y-83094557D01*
X92950434Y-83094557D02*
X93165934Y-82879057D01*
X93165934Y-82879057D02*
X93246746Y-82852120D01*
X93246746Y-82852120D02*
X93300621Y-82852120D01*
X93300621Y-82852120D02*
X93381433Y-82879057D01*
X93381433Y-82879057D02*
X93462245Y-82959870D01*
X93462245Y-82959870D02*
X93489182Y-83040682D01*
X93489182Y-83040682D02*
X93489182Y-83094557D01*
X93489182Y-83094557D02*
X93462245Y-83175369D01*
X93462245Y-83175369D02*
X93246746Y-83390868D01*
X94378117Y-82798245D02*
X94054868Y-83121494D01*
X94216492Y-82959870D02*
X93650807Y-82394184D01*
X93650807Y-82394184D02*
X93677744Y-82528871D01*
X93677744Y-82528871D02*
X93677744Y-82636621D01*
X93677744Y-82636621D02*
X93650807Y-82717433D01*
X94000993Y-82043998D02*
X94378117Y-81666874D01*
X94378117Y-81666874D02*
X94701366Y-82474996D01*
X66599998Y-85930868D02*
X66519185Y-85957805D01*
X66519185Y-85957805D02*
X66438373Y-86038618D01*
X66438373Y-86038618D02*
X66384498Y-86146367D01*
X66384498Y-86146367D02*
X66384498Y-86254117D01*
X66384498Y-86254117D02*
X66411436Y-86334929D01*
X66411436Y-86334929D02*
X66492248Y-86469616D01*
X66492248Y-86469616D02*
X66573060Y-86550428D01*
X66573060Y-86550428D02*
X66707747Y-86631241D01*
X66707747Y-86631241D02*
X66788560Y-86658178D01*
X66788560Y-86658178D02*
X66896309Y-86658178D01*
X66896309Y-86658178D02*
X67004059Y-86604303D01*
X67004059Y-86604303D02*
X67057934Y-86550428D01*
X67057934Y-86550428D02*
X67111808Y-86442679D01*
X67111808Y-86442679D02*
X67111808Y-86388804D01*
X67111808Y-86388804D02*
X66923247Y-86200242D01*
X66923247Y-86200242D02*
X66815497Y-86307992D01*
X67408120Y-86200242D02*
X66842434Y-85634557D01*
X66842434Y-85634557D02*
X67057934Y-85419057D01*
X67057934Y-85419057D02*
X67138746Y-85392120D01*
X67138746Y-85392120D02*
X67192621Y-85392120D01*
X67192621Y-85392120D02*
X67273433Y-85419057D01*
X67273433Y-85419057D02*
X67354245Y-85499870D01*
X67354245Y-85499870D02*
X67381182Y-85580682D01*
X67381182Y-85580682D02*
X67381182Y-85634557D01*
X67381182Y-85634557D02*
X67354245Y-85715369D01*
X67354245Y-85715369D02*
X67138746Y-85930868D01*
X68270117Y-85338245D02*
X67946868Y-85661494D01*
X68108492Y-85499870D02*
X67542807Y-84934184D01*
X67542807Y-84934184D02*
X67569744Y-85068871D01*
X67569744Y-85068871D02*
X67569744Y-85176621D01*
X67569744Y-85176621D02*
X67542807Y-85257433D01*
X68216242Y-84260749D02*
X67946868Y-84530123D01*
X67946868Y-84530123D02*
X68189305Y-84826434D01*
X68189305Y-84826434D02*
X68189305Y-84772560D01*
X68189305Y-84772560D02*
X68216242Y-84691747D01*
X68216242Y-84691747D02*
X68350929Y-84557060D01*
X68350929Y-84557060D02*
X68431741Y-84530123D01*
X68431741Y-84530123D02*
X68485616Y-84530123D01*
X68485616Y-84530123D02*
X68566428Y-84557060D01*
X68566428Y-84557060D02*
X68701115Y-84691747D01*
X68701115Y-84691747D02*
X68728053Y-84772560D01*
X68728053Y-84772560D02*
X68728053Y-84826434D01*
X68728053Y-84826434D02*
X68701115Y-84907247D01*
X68701115Y-84907247D02*
X68566428Y-85041934D01*
X68566428Y-85041934D02*
X68485616Y-85068871D01*
X68485616Y-85068871D02*
X68431741Y-85068871D01*
X67223372Y-60231494D02*
X67142560Y-60258431D01*
X67142560Y-60258431D02*
X67061748Y-60339243D01*
X67061748Y-60339243D02*
X67007873Y-60446993D01*
X67007873Y-60446993D02*
X67007873Y-60554742D01*
X67007873Y-60554742D02*
X67034810Y-60635555D01*
X67034810Y-60635555D02*
X67115623Y-60770242D01*
X67115623Y-60770242D02*
X67196435Y-60851054D01*
X67196435Y-60851054D02*
X67331122Y-60931866D01*
X67331122Y-60931866D02*
X67411934Y-60958803D01*
X67411934Y-60958803D02*
X67519684Y-60958803D01*
X67519684Y-60958803D02*
X67627433Y-60904929D01*
X67627433Y-60904929D02*
X67681308Y-60851054D01*
X67681308Y-60851054D02*
X67735183Y-60743304D01*
X67735183Y-60743304D02*
X67735183Y-60689429D01*
X67735183Y-60689429D02*
X67546621Y-60500868D01*
X67546621Y-60500868D02*
X67438871Y-60608617D01*
X68031494Y-60500868D02*
X67465809Y-59935182D01*
X67465809Y-59935182D02*
X67681308Y-59719683D01*
X67681308Y-59719683D02*
X67762120Y-59692746D01*
X67762120Y-59692746D02*
X67815995Y-59692746D01*
X67815995Y-59692746D02*
X67896807Y-59719683D01*
X67896807Y-59719683D02*
X67977619Y-59800495D01*
X67977619Y-59800495D02*
X68004557Y-59881307D01*
X68004557Y-59881307D02*
X68004557Y-59935182D01*
X68004557Y-59935182D02*
X67977619Y-60015994D01*
X67977619Y-60015994D02*
X67762120Y-60231494D01*
X67977619Y-59423372D02*
X68354743Y-59046248D01*
X68354743Y-59046248D02*
X68677992Y-59854370D01*
X67123372Y-50101494D02*
X67042560Y-50128431D01*
X67042560Y-50128431D02*
X66961748Y-50209243D01*
X66961748Y-50209243D02*
X66907873Y-50316993D01*
X66907873Y-50316993D02*
X66907873Y-50424742D01*
X66907873Y-50424742D02*
X66934810Y-50505555D01*
X66934810Y-50505555D02*
X67015623Y-50640242D01*
X67015623Y-50640242D02*
X67096435Y-50721054D01*
X67096435Y-50721054D02*
X67231122Y-50801866D01*
X67231122Y-50801866D02*
X67311934Y-50828803D01*
X67311934Y-50828803D02*
X67419684Y-50828803D01*
X67419684Y-50828803D02*
X67527433Y-50774929D01*
X67527433Y-50774929D02*
X67581308Y-50721054D01*
X67581308Y-50721054D02*
X67635183Y-50613304D01*
X67635183Y-50613304D02*
X67635183Y-50559429D01*
X67635183Y-50559429D02*
X67446621Y-50370868D01*
X67446621Y-50370868D02*
X67338871Y-50478617D01*
X67931494Y-50370868D02*
X67365809Y-49805182D01*
X67365809Y-49805182D02*
X67581308Y-49589683D01*
X67581308Y-49589683D02*
X67662120Y-49562746D01*
X67662120Y-49562746D02*
X67715995Y-49562746D01*
X67715995Y-49562746D02*
X67796807Y-49589683D01*
X67796807Y-49589683D02*
X67877619Y-49670495D01*
X67877619Y-49670495D02*
X67904557Y-49751307D01*
X67904557Y-49751307D02*
X67904557Y-49805182D01*
X67904557Y-49805182D02*
X67877619Y-49885994D01*
X67877619Y-49885994D02*
X67662120Y-50101494D01*
X68362493Y-49185622D02*
X68739616Y-49562746D01*
X68012306Y-49104810D02*
X68281680Y-49643558D01*
X68281680Y-49643558D02*
X68631867Y-49293372D01*
X92765064Y-50944049D02*
X93034438Y-50674675D01*
X92872813Y-51159549D02*
X92495690Y-50405301D01*
X92495690Y-50405301D02*
X93249937Y-50782425D01*
X93438499Y-50593863D02*
X92872813Y-50028178D01*
X92872813Y-50028178D02*
X93007500Y-49893491D01*
X93007500Y-49893491D02*
X93115250Y-49839616D01*
X93115250Y-49839616D02*
X93222999Y-49839616D01*
X93222999Y-49839616D02*
X93303812Y-49866553D01*
X93303812Y-49866553D02*
X93438499Y-49947366D01*
X93438499Y-49947366D02*
X93519311Y-50028178D01*
X93519311Y-50028178D02*
X93600123Y-50162865D01*
X93600123Y-50162865D02*
X93627060Y-50243677D01*
X93627060Y-50243677D02*
X93627060Y-50351427D01*
X93627060Y-50351427D02*
X93573186Y-50459176D01*
X93573186Y-50459176D02*
X93438499Y-50593863D01*
X94273558Y-49651054D02*
X94273558Y-49704929D01*
X94273558Y-49704929D02*
X94219683Y-49812679D01*
X94219683Y-49812679D02*
X94165808Y-49866553D01*
X94165808Y-49866553D02*
X94058059Y-49920428D01*
X94058059Y-49920428D02*
X93950309Y-49920428D01*
X93950309Y-49920428D02*
X93869497Y-49893491D01*
X93869497Y-49893491D02*
X93734810Y-49812679D01*
X93734810Y-49812679D02*
X93653998Y-49731866D01*
X93653998Y-49731866D02*
X93573186Y-49597179D01*
X93573186Y-49597179D02*
X93546248Y-49516367D01*
X93546248Y-49516367D02*
X93546248Y-49408618D01*
X93546248Y-49408618D02*
X93600123Y-49300868D01*
X93600123Y-49300868D02*
X93653998Y-49246993D01*
X93653998Y-49246993D02*
X93761747Y-49193118D01*
X93761747Y-49193118D02*
X93815622Y-49193118D01*
X94489057Y-49651054D02*
X94920056Y-49220056D01*
X94354370Y-48546621D02*
X95108618Y-48923744D01*
X95108618Y-48923744D02*
X94731494Y-48169497D01*
X95808990Y-48223372D02*
X95351054Y-48142560D01*
X95485741Y-48546621D02*
X94920056Y-47980935D01*
X94920056Y-47980935D02*
X95135555Y-47765436D01*
X95135555Y-47765436D02*
X95216367Y-47738499D01*
X95216367Y-47738499D02*
X95270242Y-47738499D01*
X95270242Y-47738499D02*
X95351054Y-47765436D01*
X95351054Y-47765436D02*
X95431866Y-47846248D01*
X95431866Y-47846248D02*
X95458804Y-47927061D01*
X95458804Y-47927061D02*
X95458804Y-47980935D01*
X95458804Y-47980935D02*
X95431866Y-48061748D01*
X95431866Y-48061748D02*
X95216367Y-48277247D01*
X95755115Y-47684624D02*
X95943677Y-47496062D01*
X96320800Y-47711561D02*
X96051426Y-47980935D01*
X96051426Y-47980935D02*
X95485741Y-47415250D01*
X95485741Y-47415250D02*
X95755115Y-47145876D01*
X96455488Y-46984251D02*
X96266926Y-47172813D01*
X96563237Y-47469125D02*
X95997552Y-46903439D01*
X95997552Y-46903439D02*
X96266926Y-46634065D01*
X66599998Y-78310868D02*
X66519185Y-78337805D01*
X66519185Y-78337805D02*
X66438373Y-78418618D01*
X66438373Y-78418618D02*
X66384498Y-78526367D01*
X66384498Y-78526367D02*
X66384498Y-78634117D01*
X66384498Y-78634117D02*
X66411436Y-78714929D01*
X66411436Y-78714929D02*
X66492248Y-78849616D01*
X66492248Y-78849616D02*
X66573060Y-78930428D01*
X66573060Y-78930428D02*
X66707747Y-79011241D01*
X66707747Y-79011241D02*
X66788560Y-79038178D01*
X66788560Y-79038178D02*
X66896309Y-79038178D01*
X66896309Y-79038178D02*
X67004059Y-78984303D01*
X67004059Y-78984303D02*
X67057934Y-78930428D01*
X67057934Y-78930428D02*
X67111808Y-78822679D01*
X67111808Y-78822679D02*
X67111808Y-78768804D01*
X67111808Y-78768804D02*
X66923247Y-78580242D01*
X66923247Y-78580242D02*
X66815497Y-78687992D01*
X67408120Y-78580242D02*
X66842434Y-78014557D01*
X66842434Y-78014557D02*
X67057934Y-77799057D01*
X67057934Y-77799057D02*
X67138746Y-77772120D01*
X67138746Y-77772120D02*
X67192621Y-77772120D01*
X67192621Y-77772120D02*
X67273433Y-77799057D01*
X67273433Y-77799057D02*
X67354245Y-77879870D01*
X67354245Y-77879870D02*
X67381182Y-77960682D01*
X67381182Y-77960682D02*
X67381182Y-78014557D01*
X67381182Y-78014557D02*
X67354245Y-78095369D01*
X67354245Y-78095369D02*
X67138746Y-78310868D01*
X68270117Y-77718245D02*
X67946868Y-78041494D01*
X68108492Y-77879870D02*
X67542807Y-77314184D01*
X67542807Y-77314184D02*
X67569744Y-77448871D01*
X67569744Y-77448871D02*
X67569744Y-77556621D01*
X67569744Y-77556621D02*
X67542807Y-77637433D01*
X67892993Y-76963998D02*
X68243179Y-76613812D01*
X68243179Y-76613812D02*
X68270117Y-77017873D01*
X68270117Y-77017873D02*
X68350929Y-76937060D01*
X68350929Y-76937060D02*
X68431741Y-76910123D01*
X68431741Y-76910123D02*
X68485616Y-76910123D01*
X68485616Y-76910123D02*
X68566428Y-76937060D01*
X68566428Y-76937060D02*
X68701115Y-77071747D01*
X68701115Y-77071747D02*
X68728053Y-77152560D01*
X68728053Y-77152560D02*
X68728053Y-77206434D01*
X68728053Y-77206434D02*
X68701115Y-77287247D01*
X68701115Y-77287247D02*
X68539491Y-77448871D01*
X68539491Y-77448871D02*
X68458679Y-77475808D01*
X68458679Y-77475808D02*
X68404804Y-77475808D01*
X92696435Y-42508431D02*
X92615623Y-42535368D01*
X92615623Y-42535368D02*
X92534811Y-42616180D01*
X92534811Y-42616180D02*
X92480936Y-42723930D01*
X92480936Y-42723930D02*
X92480936Y-42831680D01*
X92480936Y-42831680D02*
X92507873Y-42912492D01*
X92507873Y-42912492D02*
X92588685Y-43047179D01*
X92588685Y-43047179D02*
X92669498Y-43127991D01*
X92669498Y-43127991D02*
X92804185Y-43208803D01*
X92804185Y-43208803D02*
X92884997Y-43235741D01*
X92884997Y-43235741D02*
X92992746Y-43235741D01*
X92992746Y-43235741D02*
X93100496Y-43181866D01*
X93100496Y-43181866D02*
X93154371Y-43127991D01*
X93154371Y-43127991D02*
X93208246Y-43020241D01*
X93208246Y-43020241D02*
X93208246Y-42966367D01*
X93208246Y-42966367D02*
X93019684Y-42777805D01*
X93019684Y-42777805D02*
X92911934Y-42885554D01*
X93504557Y-42777805D02*
X92938872Y-42212119D01*
X92938872Y-42212119D02*
X93827806Y-42454556D01*
X93827806Y-42454556D02*
X93262120Y-41888871D01*
X94097180Y-42185182D02*
X93531494Y-41619497D01*
X93531494Y-41619497D02*
X93666181Y-41484810D01*
X93666181Y-41484810D02*
X93773931Y-41430935D01*
X93773931Y-41430935D02*
X93881680Y-41430935D01*
X93881680Y-41430935D02*
X93962493Y-41457872D01*
X93962493Y-41457872D02*
X94097180Y-41538685D01*
X94097180Y-41538685D02*
X94177992Y-41619497D01*
X94177992Y-41619497D02*
X94258804Y-41754184D01*
X94258804Y-41754184D02*
X94285741Y-41834996D01*
X94285741Y-41834996D02*
X94285741Y-41942746D01*
X94285741Y-41942746D02*
X94231867Y-42050495D01*
X94231867Y-42050495D02*
X94097180Y-42185182D01*
X92563406Y-37937585D02*
X93317653Y-38314709D01*
X93317653Y-38314709D02*
X92940529Y-37560462D01*
X93587027Y-37452712D02*
X93694776Y-37398838D01*
X93694776Y-37398838D02*
X93748651Y-37398838D01*
X93748651Y-37398838D02*
X93829463Y-37425775D01*
X93829463Y-37425775D02*
X93910276Y-37506587D01*
X93910276Y-37506587D02*
X93937213Y-37587399D01*
X93937213Y-37587399D02*
X93937213Y-37641274D01*
X93937213Y-37641274D02*
X93910276Y-37722086D01*
X93910276Y-37722086D02*
X93694776Y-37937586D01*
X93694776Y-37937586D02*
X93129091Y-37371900D01*
X93129091Y-37371900D02*
X93317653Y-37183338D01*
X93317653Y-37183338D02*
X93398465Y-37156401D01*
X93398465Y-37156401D02*
X93452340Y-37156401D01*
X93452340Y-37156401D02*
X93533152Y-37183338D01*
X93533152Y-37183338D02*
X93587027Y-37237213D01*
X93587027Y-37237213D02*
X93613964Y-37318025D01*
X93613964Y-37318025D02*
X93613964Y-37371900D01*
X93613964Y-37371900D02*
X93587027Y-37452712D01*
X93587027Y-37452712D02*
X93398465Y-37641274D01*
X93694776Y-36806215D02*
X94152712Y-37264151D01*
X94152712Y-37264151D02*
X94233524Y-37291088D01*
X94233524Y-37291088D02*
X94287399Y-37291088D01*
X94287399Y-37291088D02*
X94368211Y-37264151D01*
X94368211Y-37264151D02*
X94475961Y-37156401D01*
X94475961Y-37156401D02*
X94502898Y-37075589D01*
X94502898Y-37075589D02*
X94502898Y-37021714D01*
X94502898Y-37021714D02*
X94475961Y-36940902D01*
X94475961Y-36940902D02*
X94018025Y-36482966D01*
X94799210Y-36779277D02*
X94906959Y-36725403D01*
X94906959Y-36725403D02*
X95041646Y-36590716D01*
X95041646Y-36590716D02*
X95068584Y-36509903D01*
X95068584Y-36509903D02*
X95068584Y-36456029D01*
X95068584Y-36456029D02*
X95041646Y-36375216D01*
X95041646Y-36375216D02*
X94987771Y-36321342D01*
X94987771Y-36321342D02*
X94906959Y-36294404D01*
X94906959Y-36294404D02*
X94853084Y-36294404D01*
X94853084Y-36294404D02*
X94772272Y-36321342D01*
X94772272Y-36321342D02*
X94637585Y-36402154D01*
X94637585Y-36402154D02*
X94556773Y-36429091D01*
X94556773Y-36429091D02*
X94502898Y-36429091D01*
X94502898Y-36429091D02*
X94422086Y-36402154D01*
X94422086Y-36402154D02*
X94368211Y-36348279D01*
X94368211Y-36348279D02*
X94341274Y-36267467D01*
X94341274Y-36267467D02*
X94341274Y-36213592D01*
X94341274Y-36213592D02*
X94368211Y-36132780D01*
X94368211Y-36132780D02*
X94502898Y-35998093D01*
X94502898Y-35998093D02*
X94610648Y-35944218D01*
X92696435Y-80608431D02*
X92615623Y-80635368D01*
X92615623Y-80635368D02*
X92534811Y-80716180D01*
X92534811Y-80716180D02*
X92480936Y-80823930D01*
X92480936Y-80823930D02*
X92480936Y-80931680D01*
X92480936Y-80931680D02*
X92507873Y-81012492D01*
X92507873Y-81012492D02*
X92588685Y-81147179D01*
X92588685Y-81147179D02*
X92669498Y-81227991D01*
X92669498Y-81227991D02*
X92804185Y-81308803D01*
X92804185Y-81308803D02*
X92884997Y-81335741D01*
X92884997Y-81335741D02*
X92992746Y-81335741D01*
X92992746Y-81335741D02*
X93100496Y-81281866D01*
X93100496Y-81281866D02*
X93154371Y-81227991D01*
X93154371Y-81227991D02*
X93208246Y-81120241D01*
X93208246Y-81120241D02*
X93208246Y-81066367D01*
X93208246Y-81066367D02*
X93019684Y-80877805D01*
X93019684Y-80877805D02*
X92911934Y-80985554D01*
X93504557Y-80877805D02*
X92938872Y-80312119D01*
X92938872Y-80312119D02*
X93827806Y-80554556D01*
X93827806Y-80554556D02*
X93262120Y-79988871D01*
X94097180Y-80285182D02*
X93531494Y-79719497D01*
X93531494Y-79719497D02*
X93666181Y-79584810D01*
X93666181Y-79584810D02*
X93773931Y-79530935D01*
X93773931Y-79530935D02*
X93881680Y-79530935D01*
X93881680Y-79530935D02*
X93962493Y-79557872D01*
X93962493Y-79557872D02*
X94097180Y-79638685D01*
X94097180Y-79638685D02*
X94177992Y-79719497D01*
X94177992Y-79719497D02*
X94258804Y-79854184D01*
X94258804Y-79854184D02*
X94285741Y-79934996D01*
X94285741Y-79934996D02*
X94285741Y-80042746D01*
X94285741Y-80042746D02*
X94231867Y-80150495D01*
X94231867Y-80150495D02*
X94097180Y-80285182D01*
X92761873Y-56151240D02*
X93031247Y-55881866D01*
X92869623Y-56366739D02*
X92492499Y-55612492D01*
X92492499Y-55612492D02*
X93246746Y-55989615D01*
X93192871Y-54965994D02*
X93112059Y-54992932D01*
X93112059Y-54992932D02*
X93031247Y-55073744D01*
X93031247Y-55073744D02*
X92977372Y-55181494D01*
X92977372Y-55181494D02*
X92977372Y-55289243D01*
X92977372Y-55289243D02*
X93004310Y-55370055D01*
X93004310Y-55370055D02*
X93085122Y-55504742D01*
X93085122Y-55504742D02*
X93165934Y-55585555D01*
X93165934Y-55585555D02*
X93300621Y-55666367D01*
X93300621Y-55666367D02*
X93381433Y-55693304D01*
X93381433Y-55693304D02*
X93489183Y-55693304D01*
X93489183Y-55693304D02*
X93596932Y-55639429D01*
X93596932Y-55639429D02*
X93650807Y-55585555D01*
X93650807Y-55585555D02*
X93704682Y-55477805D01*
X93704682Y-55477805D02*
X93704682Y-55423930D01*
X93704682Y-55423930D02*
X93516120Y-55235368D01*
X93516120Y-55235368D02*
X93408371Y-55343118D01*
X94000993Y-55235368D02*
X93435308Y-54669683D01*
X93435308Y-54669683D02*
X94324242Y-54912120D01*
X94324242Y-54912120D02*
X93758557Y-54346434D01*
X94593616Y-54642746D02*
X94027931Y-54077060D01*
X94027931Y-54077060D02*
X94162618Y-53942373D01*
X94162618Y-53942373D02*
X94270367Y-53888498D01*
X94270367Y-53888498D02*
X94378117Y-53888498D01*
X94378117Y-53888498D02*
X94458929Y-53915436D01*
X94458929Y-53915436D02*
X94593616Y-53996248D01*
X94593616Y-53996248D02*
X94674428Y-54077060D01*
X94674428Y-54077060D02*
X94755241Y-54211747D01*
X94755241Y-54211747D02*
X94782178Y-54292560D01*
X94782178Y-54292560D02*
X94782178Y-54400309D01*
X94782178Y-54400309D02*
X94728303Y-54508059D01*
X94728303Y-54508059D02*
X94593616Y-54642746D01*
X66453998Y-73230868D02*
X66373185Y-73257805D01*
X66373185Y-73257805D02*
X66292373Y-73338618D01*
X66292373Y-73338618D02*
X66238498Y-73446367D01*
X66238498Y-73446367D02*
X66238498Y-73554117D01*
X66238498Y-73554117D02*
X66265436Y-73634929D01*
X66265436Y-73634929D02*
X66346248Y-73769616D01*
X66346248Y-73769616D02*
X66427060Y-73850428D01*
X66427060Y-73850428D02*
X66561747Y-73931241D01*
X66561747Y-73931241D02*
X66642560Y-73958178D01*
X66642560Y-73958178D02*
X66750309Y-73958178D01*
X66750309Y-73958178D02*
X66858059Y-73904303D01*
X66858059Y-73904303D02*
X66911934Y-73850428D01*
X66911934Y-73850428D02*
X66965808Y-73742679D01*
X66965808Y-73742679D02*
X66965808Y-73688804D01*
X66965808Y-73688804D02*
X66777247Y-73500242D01*
X66777247Y-73500242D02*
X66669497Y-73607992D01*
X67262120Y-73500242D02*
X66696434Y-72934557D01*
X66696434Y-72934557D02*
X66911934Y-72719057D01*
X66911934Y-72719057D02*
X66992746Y-72692120D01*
X66992746Y-72692120D02*
X67046621Y-72692120D01*
X67046621Y-72692120D02*
X67127433Y-72719057D01*
X67127433Y-72719057D02*
X67208245Y-72799870D01*
X67208245Y-72799870D02*
X67235182Y-72880682D01*
X67235182Y-72880682D02*
X67235182Y-72934557D01*
X67235182Y-72934557D02*
X67208245Y-73015369D01*
X67208245Y-73015369D02*
X66992746Y-73230868D01*
X68124117Y-72638245D02*
X67800868Y-72961494D01*
X67962492Y-72799870D02*
X67396807Y-72234184D01*
X67396807Y-72234184D02*
X67423744Y-72368871D01*
X67423744Y-72368871D02*
X67423744Y-72476621D01*
X67423744Y-72476621D02*
X67396807Y-72557433D01*
X68662865Y-72099497D02*
X68339616Y-72422746D01*
X68501240Y-72261121D02*
X67935555Y-71695436D01*
X67935555Y-71695436D02*
X67962492Y-71830123D01*
X67962492Y-71830123D02*
X67962492Y-71937873D01*
X67962492Y-71937873D02*
X67935555Y-72018685D01*
D11*
X91110000Y-76510000D02*
X91110000Y-76910000D01*
X70110000Y-43410000D02*
X70110000Y-43810000D01*
X91110000Y-35910000D02*
X91110000Y-36210000D01*
X70110000Y-63710000D02*
X70110000Y-64110000D01*
X91110000Y-43410000D02*
X91110000Y-43810000D01*
X91110000Y-73910000D02*
X91110000Y-74310000D01*
X91110000Y-81510000D02*
X91110000Y-81910000D01*
X70110000Y-35910000D02*
X70110000Y-36210000D01*
X91110000Y-53610000D02*
X91110000Y-54010000D01*
X91110000Y-79010000D02*
X91110000Y-79410000D01*
X91110000Y-51010000D02*
X91110000Y-51410000D01*
X91110000Y-68810000D02*
X91110000Y-69210000D01*
X70110000Y-73910000D02*
X70110000Y-74310000D01*
X70110000Y-79010000D02*
X70110000Y-79410000D01*
X70110000Y-61210000D02*
X70110000Y-61610000D01*
X70110000Y-51010000D02*
X70110000Y-51410000D01*
X91110000Y-63710000D02*
X91110000Y-64110000D01*
X70110000Y-71410000D02*
X70110000Y-71810000D01*
X91110000Y-48510000D02*
X91110000Y-48910000D01*
X81710000Y-86910000D02*
X82110000Y-86910000D01*
X70110000Y-76510000D02*
X70110000Y-76910000D01*
X91110000Y-40910000D02*
X91110000Y-41310000D01*
X70110000Y-48510000D02*
X70110000Y-48910000D01*
X79110000Y-86910000D02*
X79510000Y-86910000D01*
X70110000Y-66310000D02*
X70110000Y-66710000D01*
X70110000Y-53610000D02*
X70110000Y-54010000D01*
X70110000Y-38577000D02*
X73117000Y-38577000D01*
X70110000Y-68810000D02*
X70110000Y-69210000D01*
X91110000Y-46010000D02*
X91110000Y-46410000D01*
X91110000Y-86910000D02*
X84310000Y-86910000D01*
X91110000Y-58710000D02*
X91110000Y-59110000D01*
X70110000Y-56110000D02*
X70110000Y-56510000D01*
X70110000Y-46010000D02*
X70110000Y-46410000D01*
X70110000Y-84110000D02*
X70110000Y-84510000D01*
X70110000Y-58710000D02*
X70110000Y-59110000D01*
X70110000Y-81510000D02*
X70110000Y-81910000D01*
X70110000Y-35910000D02*
X91110000Y-35910000D01*
X91110000Y-56110000D02*
X91110000Y-56510000D01*
X73117000Y-38577000D02*
X73117000Y-35910000D01*
X91110000Y-38310000D02*
X91110000Y-38710000D01*
X91110000Y-84110000D02*
X91110000Y-84510000D01*
X91110000Y-61210000D02*
X91110000Y-61610000D01*
X76910000Y-86910000D02*
X70110000Y-86910000D01*
X91110000Y-71410000D02*
X91110000Y-71810000D01*
X70110000Y-40910000D02*
X70110000Y-41310000D01*
X70110000Y-38310000D02*
X70110000Y-38710000D01*
X91110000Y-66310000D02*
X91110000Y-66710000D01*
%LPC*%
D12*
X83150000Y-86210000D03*
D13*
X83150000Y-85310000D03*
D12*
X80610000Y-86210000D03*
D14*
X80610000Y-85310000D03*
D13*
X78070000Y-85310000D03*
D12*
X78070000Y-86210000D03*
D15*
X90400000Y-37280000D03*
D13*
X89500000Y-37280000D03*
X89500000Y-39820000D03*
D15*
X90400000Y-39820000D03*
D14*
X89500000Y-42360000D03*
D15*
X90400000Y-42360000D03*
D13*
X89500000Y-44900000D03*
D15*
X90400000Y-44900000D03*
X90400000Y-47440000D03*
D13*
X89500000Y-47440000D03*
X89500000Y-49980000D03*
D15*
X90400000Y-49980000D03*
D13*
X89500000Y-52520000D03*
D15*
X90400000Y-52520000D03*
D14*
X89500000Y-55060000D03*
D15*
X90400000Y-55060000D03*
X90400000Y-57600000D03*
D13*
X89500000Y-57600000D03*
D15*
X90400000Y-60140000D03*
D13*
X89500000Y-60140000D03*
X89500000Y-62680000D03*
D15*
X90400000Y-62680000D03*
X90400000Y-65220000D03*
D13*
X89500000Y-65220000D03*
D15*
X90400000Y-67760000D03*
D14*
X89500000Y-67760000D03*
D15*
X90400000Y-70300000D03*
D13*
X89500000Y-70300000D03*
X89500000Y-72840000D03*
D15*
X90400000Y-72840000D03*
D13*
X89500000Y-75380000D03*
D15*
X90400000Y-75380000D03*
X90400000Y-77920000D03*
D13*
X89500000Y-77920000D03*
D14*
X89500000Y-80460000D03*
D15*
X90400000Y-80460000D03*
D13*
X89500000Y-83000000D03*
D15*
X90400000Y-83000000D03*
D13*
X89500000Y-85540000D03*
D15*
X90400000Y-85540000D03*
D13*
X71720000Y-85540000D03*
D15*
X70820000Y-85540000D03*
X70820000Y-83000000D03*
D13*
X71720000Y-83000000D03*
D14*
X71720000Y-80460000D03*
D15*
X70820000Y-80460000D03*
D13*
X71720000Y-77920000D03*
D15*
X70820000Y-77920000D03*
D13*
X71720000Y-75380000D03*
D15*
X70820000Y-75380000D03*
X70820000Y-72840000D03*
D13*
X71720000Y-72840000D03*
X71720000Y-70300000D03*
D15*
X70820000Y-70300000D03*
X70820000Y-67760000D03*
D14*
X71720000Y-67760000D03*
D15*
X70820000Y-65220000D03*
D13*
X71720000Y-65220000D03*
X71720000Y-62680000D03*
D15*
X70820000Y-62680000D03*
X70820000Y-60140000D03*
D13*
X71720000Y-60140000D03*
X71720000Y-57600000D03*
D15*
X70820000Y-57600000D03*
X70820000Y-55060000D03*
D14*
X71720000Y-55060000D03*
D13*
X71720000Y-52520000D03*
D15*
X70820000Y-52520000D03*
X70820000Y-49980000D03*
D13*
X71720000Y-49980000D03*
D15*
X70820000Y-47440000D03*
D13*
X71720000Y-47440000D03*
D15*
X70820000Y-44900000D03*
D13*
X71720000Y-44900000D03*
D14*
X71720000Y-42360000D03*
D15*
X70820000Y-42360000D03*
X70820000Y-39820000D03*
D13*
X71720000Y-39820000D03*
D15*
X70820000Y-37280000D03*
D13*
X71720000Y-37280000D03*
D16*
X83035000Y-40440000D03*
X78185000Y-40440000D03*
D17*
X77885000Y-37410000D03*
X83335000Y-37410000D03*
D18*
X83040000Y-91512500D03*
X81770000Y-91512500D03*
X80500000Y-91512500D03*
X79230000Y-91512500D03*
X77960000Y-91512500D03*
%LPD*%
M02*
