M48
; DRILL file {KiCad 7.0.7-7.0.7~ubuntu22.04.1} date Sun 07 Jan 2024 15:40:40 CET
; FORMAT={-:-/ absolute / metric / decimal}
; #@! TF.CreationDate,2024-01-07T15:40:40+01:00
; #@! TF.GenerationSoftware,Kicad,Pcbnew,7.0.7-7.0.7~ubuntu22.04.1
; #@! TF.FileFunction,Plated,1,2,PTH
FMAT,2
METRIC
; #@! TA.AperFunction,Plated,PTH,ViaDrill
T1C0.400
; #@! TA.AperFunction,Plated,PTH,ComponentDrill
T2C1.020
%
G90
G05
T1
X66.95Y-38.362
X66.95Y-44.362
X66.95Y-50.362
X66.95Y-56.362
X66.95Y-62.362
X66.95Y-68.362
X66.95Y-74.362
X66.95Y-80.362
X66.95Y-86.362
X68.95Y-90.362
X72.95Y-88.362
X74.95Y-38.362
X74.95Y-44.362
X74.95Y-54.362
X74.95Y-60.362
X74.95Y-66.362
X74.95Y-72.362
X74.95Y-78.362
X74.95Y-84.362
X78.95Y-42.362
X78.95Y-48.362
X78.95Y-56.362
X78.95Y-62.362
X78.95Y-68.362
X78.95Y-74.362
X78.95Y-80.362
X79.5Y-89.0
X80.95Y-38.362
X82.95Y-44.362
X82.95Y-50.362
X82.95Y-58.362
X82.95Y-64.362
X82.95Y-70.362
X82.95Y-76.362
X82.95Y-82.362
X84.95Y-40.362
X84.95Y-54.362
X84.95Y-90.362
X86.95Y-46.362
X86.95Y-60.362
X86.95Y-66.362
X86.95Y-72.362
X86.95Y-78.362
X86.95Y-84.362
X88.95Y-88.362
X92.95Y-90.362
X94.95Y-38.362
X94.95Y-44.362
X94.95Y-50.362
X94.95Y-56.362
X94.95Y-62.362
X94.95Y-68.362
X94.95Y-74.362
X94.95Y-80.362
X94.95Y-86.362
T2
X71.72Y-37.28
X71.72Y-39.82
X71.72Y-42.36
X71.72Y-44.9
X71.72Y-47.44
X71.72Y-49.98
X71.72Y-52.52
X71.72Y-55.06
X71.72Y-57.6
X71.72Y-60.14
X71.72Y-62.68
X71.72Y-65.22
X71.72Y-67.76
X71.72Y-70.3
X71.72Y-72.84
X71.72Y-75.38
X71.72Y-77.92
X71.72Y-80.46
X71.72Y-83.0
X71.72Y-85.54
X78.07Y-85.31
X80.61Y-85.31
X83.15Y-85.31
X89.5Y-37.28
X89.5Y-39.82
X89.5Y-42.36
X89.5Y-44.9
X89.5Y-47.44
X89.5Y-49.98
X89.5Y-52.52
X89.5Y-55.06
X89.5Y-57.6
X89.5Y-60.14
X89.5Y-62.68
X89.5Y-65.22
X89.5Y-67.76
X89.5Y-70.3
X89.5Y-72.84
X89.5Y-75.38
X89.5Y-77.92
X89.5Y-80.46
X89.5Y-83.0
X89.5Y-85.54
T0
M30
