G04 #@! TF.GenerationSoftware,KiCad,Pcbnew,7.0.7-7.0.7~ubuntu22.04.1*
G04 #@! TF.CreationDate,2024-01-07T15:40:38+01:00*
G04 #@! TF.ProjectId,pico-dap-swd,7069636f-2d64-4617-902d-7377642e6b69,rev?*
G04 #@! TF.SameCoordinates,Original*
G04 #@! TF.FileFunction,Copper,L1,Top*
G04 #@! TF.FilePolarity,Positive*
%FSLAX46Y46*%
G04 Gerber Fmt 4.6, Leading zero omitted, Abs format (unit mm)*
G04 Created by KiCad (PCBNEW 7.0.7-7.0.7~ubuntu22.04.1) date 2024-01-07 15:40:38*
%MOMM*%
%LPD*%
G01*
G04 APERTURE LIST*
G04 #@! TA.AperFunction,SMDPad,CuDef*
%ADD10R,1.700000X3.500000*%
G04 #@! TD*
G04 #@! TA.AperFunction,ComponentPad*
%ADD11O,1.700000X1.700000*%
G04 #@! TD*
G04 #@! TA.AperFunction,ComponentPad*
%ADD12R,1.700000X1.700000*%
G04 #@! TD*
G04 #@! TA.AperFunction,SMDPad,CuDef*
%ADD13R,3.500000X1.700000*%
G04 #@! TD*
G04 #@! TA.AperFunction,SMDPad,CuDef*
%ADD14R,0.750000X3.000000*%
G04 #@! TD*
G04 #@! TA.AperFunction,ViaPad*
%ADD15C,0.800000*%
G04 #@! TD*
G04 #@! TA.AperFunction,Conductor*
%ADD16C,0.400000*%
G04 #@! TD*
G04 APERTURE END LIST*
D10*
X83150000Y-86210000D03*
D11*
X83150000Y-85310000D03*
D10*
X80610000Y-86210000D03*
D12*
X80610000Y-85310000D03*
D11*
X78070000Y-85310000D03*
D10*
X78070000Y-86210000D03*
D13*
X90400000Y-37280000D03*
D11*
X89500000Y-37280000D03*
X89500000Y-39820000D03*
D13*
X90400000Y-39820000D03*
D12*
X89500000Y-42360000D03*
D13*
X90400000Y-42360000D03*
D11*
X89500000Y-44900000D03*
D13*
X90400000Y-44900000D03*
X90400000Y-47440000D03*
D11*
X89500000Y-47440000D03*
X89500000Y-49980000D03*
D13*
X90400000Y-49980000D03*
D11*
X89500000Y-52520000D03*
D13*
X90400000Y-52520000D03*
D12*
X89500000Y-55060000D03*
D13*
X90400000Y-55060000D03*
X90400000Y-57600000D03*
D11*
X89500000Y-57600000D03*
D13*
X90400000Y-60140000D03*
D11*
X89500000Y-60140000D03*
X89500000Y-62680000D03*
D13*
X90400000Y-62680000D03*
X90400000Y-65220000D03*
D11*
X89500000Y-65220000D03*
D13*
X90400000Y-67760000D03*
D12*
X89500000Y-67760000D03*
D13*
X90400000Y-70300000D03*
D11*
X89500000Y-70300000D03*
X89500000Y-72840000D03*
D13*
X90400000Y-72840000D03*
D11*
X89500000Y-75380000D03*
D13*
X90400000Y-75380000D03*
X90400000Y-77920000D03*
D11*
X89500000Y-77920000D03*
D12*
X89500000Y-80460000D03*
D13*
X90400000Y-80460000D03*
D11*
X89500000Y-83000000D03*
D13*
X90400000Y-83000000D03*
D11*
X89500000Y-85540000D03*
D13*
X90400000Y-85540000D03*
D11*
X71720000Y-85540000D03*
D13*
X70820000Y-85540000D03*
X70820000Y-83000000D03*
D11*
X71720000Y-83000000D03*
D12*
X71720000Y-80460000D03*
D13*
X70820000Y-80460000D03*
D11*
X71720000Y-77920000D03*
D13*
X70820000Y-77920000D03*
D11*
X71720000Y-75380000D03*
D13*
X70820000Y-75380000D03*
X70820000Y-72840000D03*
D11*
X71720000Y-72840000D03*
X71720000Y-70300000D03*
D13*
X70820000Y-70300000D03*
X70820000Y-67760000D03*
D12*
X71720000Y-67760000D03*
D13*
X70820000Y-65220000D03*
D11*
X71720000Y-65220000D03*
X71720000Y-62680000D03*
D13*
X70820000Y-62680000D03*
X70820000Y-60140000D03*
D11*
X71720000Y-60140000D03*
X71720000Y-57600000D03*
D13*
X70820000Y-57600000D03*
X70820000Y-55060000D03*
D12*
X71720000Y-55060000D03*
D11*
X71720000Y-52520000D03*
D13*
X70820000Y-52520000D03*
X70820000Y-49980000D03*
D11*
X71720000Y-49980000D03*
D13*
X70820000Y-47440000D03*
D11*
X71720000Y-47440000D03*
D13*
X70820000Y-44900000D03*
D11*
X71720000Y-44900000D03*
D12*
X71720000Y-42360000D03*
D13*
X70820000Y-42360000D03*
X70820000Y-39820000D03*
D11*
X71720000Y-39820000D03*
D13*
X70820000Y-37280000D03*
D11*
X71720000Y-37280000D03*
D14*
X83040000Y-91512500D03*
X81770000Y-91512500D03*
X80500000Y-91512500D03*
X79230000Y-91512500D03*
X77960000Y-91512500D03*
D15*
X66950000Y-38361750D03*
X66950000Y-44361750D03*
X66950000Y-50361750D03*
X66950000Y-56361750D03*
X66950000Y-62361750D03*
X66950000Y-68361750D03*
X66950000Y-74361750D03*
X66950000Y-80361750D03*
X66950000Y-86361750D03*
X68950000Y-90361750D03*
X72950000Y-88361750D03*
X74950000Y-38361750D03*
X74950000Y-44361750D03*
X74950000Y-54361750D03*
X74950000Y-60361750D03*
X74950000Y-66361750D03*
X74950000Y-72361750D03*
X74950000Y-78361750D03*
X74950000Y-84361750D03*
X78950000Y-42361750D03*
X78950000Y-48361750D03*
X78950000Y-56361750D03*
X78950000Y-62361750D03*
X78950000Y-68361750D03*
X78950000Y-74361750D03*
X78950000Y-80361750D03*
X80950000Y-38361750D03*
X82950000Y-44361750D03*
X82950000Y-50361750D03*
X82950000Y-58361750D03*
X82950000Y-64361750D03*
X82950000Y-70361750D03*
X82950000Y-76361750D03*
X82950000Y-82361750D03*
X84950000Y-40361750D03*
X84950000Y-54361750D03*
X84950000Y-90361750D03*
X86950000Y-46361750D03*
X86950000Y-60361750D03*
X86950000Y-66361750D03*
X86950000Y-72361750D03*
X86950000Y-78361750D03*
X86950000Y-84361750D03*
X88950000Y-88361750D03*
X92950000Y-90361750D03*
X94950000Y-38361750D03*
X94950000Y-44361750D03*
X94950000Y-50361750D03*
X94950000Y-56361750D03*
X94950000Y-62361750D03*
X94950000Y-68361750D03*
X94950000Y-74361750D03*
X94950000Y-80361750D03*
X94950000Y-86361750D03*
X79500000Y-89000000D03*
D16*
X79230000Y-91512500D02*
X79230000Y-89270000D01*
X79230000Y-89270000D02*
X79500000Y-89000000D01*
X80500000Y-91512500D02*
X80500000Y-90107500D01*
X84500000Y-57680000D02*
X71720000Y-44900000D01*
X80500000Y-90107500D02*
X81607500Y-89000000D01*
X81607500Y-89000000D02*
X83760000Y-89000000D01*
X83760000Y-89000000D02*
X84500000Y-88260000D01*
X84500000Y-88260000D02*
X84500000Y-57680000D01*
X77960000Y-91512500D02*
X76820000Y-90372500D01*
X76820000Y-90372500D02*
X76820000Y-52540000D01*
X76820000Y-52540000D02*
X71720000Y-47440000D01*
G04 #@! TA.AperFunction,Conductor*
G36*
X68586454Y-36020185D02*
G01*
X68632209Y-36072989D01*
X68642153Y-36142147D01*
X68628246Y-36183929D01*
X68626203Y-36187669D01*
X68575908Y-36322517D01*
X68569877Y-36378621D01*
X68569501Y-36382123D01*
X68569500Y-36382135D01*
X68569500Y-38177870D01*
X68569501Y-38177876D01*
X68575908Y-38237483D01*
X68626202Y-38372328D01*
X68626204Y-38372331D01*
X68703577Y-38475688D01*
X68727995Y-38541152D01*
X68713144Y-38609425D01*
X68703578Y-38624310D01*
X68626204Y-38727668D01*
X68626202Y-38727671D01*
X68575908Y-38862517D01*
X68569501Y-38922116D01*
X68569501Y-38922123D01*
X68569500Y-38922135D01*
X68569500Y-40717870D01*
X68569501Y-40717876D01*
X68575908Y-40777483D01*
X68626202Y-40912328D01*
X68626206Y-40912335D01*
X68712452Y-41027544D01*
X68712455Y-41027547D01*
X68827664Y-41113793D01*
X68827671Y-41113797D01*
X68962517Y-41164091D01*
X68962516Y-41164091D01*
X68969444Y-41164835D01*
X69022127Y-41170500D01*
X71658317Y-41170499D01*
X71663721Y-41170734D01*
X71686774Y-41172751D01*
X71719999Y-41175659D01*
X71719999Y-41175658D01*
X71720000Y-41175659D01*
X71776280Y-41170734D01*
X71781682Y-41170499D01*
X72617871Y-41170499D01*
X72617872Y-41170499D01*
X72677483Y-41164091D01*
X72812331Y-41113796D01*
X72927546Y-41027546D01*
X73013796Y-40912331D01*
X73064091Y-40777483D01*
X73070500Y-40717873D01*
X73070500Y-40440003D01*
X76929723Y-40440003D01*
X76931688Y-40462470D01*
X76931862Y-40470660D01*
X76930709Y-40496324D01*
X76930710Y-40496328D01*
X76941641Y-40577031D01*
X76941966Y-40579949D01*
X76948792Y-40657972D01*
X76948795Y-40657987D01*
X76955482Y-40682941D01*
X76957034Y-40690670D01*
X76960924Y-40719381D01*
X76960926Y-40719392D01*
X76985075Y-40793713D01*
X76985997Y-40796825D01*
X77005423Y-40869324D01*
X77005427Y-40869336D01*
X77017736Y-40895732D01*
X77020512Y-40902779D01*
X77030483Y-40933464D01*
X77065970Y-40999411D01*
X77067558Y-41002576D01*
X77097898Y-41067639D01*
X77116490Y-41094191D01*
X77120303Y-41100378D01*
X77137146Y-41131678D01*
X77137152Y-41131687D01*
X77181792Y-41187663D01*
X77184106Y-41190758D01*
X77210510Y-41228465D01*
X77223402Y-41246877D01*
X77223405Y-41246880D01*
X77248646Y-41272121D01*
X77253283Y-41277309D01*
X77277492Y-41307666D01*
X77328959Y-41352632D01*
X77332008Y-41355483D01*
X77378116Y-41401592D01*
X77378122Y-41401597D01*
X77378123Y-41401598D01*
X77389802Y-41409775D01*
X77410055Y-41423957D01*
X77415290Y-41428057D01*
X77447004Y-41455765D01*
X77447013Y-41455771D01*
X77502849Y-41489131D01*
X77506613Y-41491568D01*
X77557359Y-41527101D01*
X77557364Y-41527104D01*
X77579917Y-41537620D01*
X77595677Y-41544969D01*
X77601271Y-41547935D01*
X77638349Y-41570088D01*
X77640236Y-41571215D01*
X77658828Y-41578192D01*
X77698083Y-41592925D01*
X77702503Y-41594782D01*
X77755670Y-41619575D01*
X77755674Y-41619577D01*
X77786069Y-41627720D01*
X77799677Y-41631366D01*
X77805413Y-41633207D01*
X77822264Y-41639531D01*
X77850976Y-41650307D01*
X77908545Y-41660754D01*
X77913511Y-41661868D01*
X77967023Y-41676207D01*
X78015689Y-41680464D01*
X78021306Y-41681218D01*
X78072453Y-41690500D01*
X78127691Y-41690500D01*
X78133092Y-41690735D01*
X78161548Y-41693225D01*
X78184998Y-41695277D01*
X78185000Y-41695277D01*
X78237992Y-41690640D01*
X78241121Y-41690500D01*
X78241155Y-41690500D01*
X78295172Y-41685638D01*
X78402977Y-41676207D01*
X78403000Y-41676200D01*
X78403475Y-41676117D01*
X78408713Y-41675419D01*
X78409188Y-41675377D01*
X78512997Y-41646726D01*
X78614330Y-41619575D01*
X78614337Y-41619571D01*
X78621254Y-41617053D01*
X78625948Y-41615554D01*
X78626170Y-41615493D01*
X78626181Y-41615487D01*
X78626183Y-41615487D01*
X78720454Y-41570088D01*
X78720453Y-41570087D01*
X78812639Y-41527102D01*
X78812644Y-41527097D01*
X78817327Y-41524395D01*
X78817400Y-41524522D01*
X78828164Y-41518218D01*
X78828973Y-41517829D01*
X78911156Y-41458118D01*
X78991877Y-41401598D01*
X78992747Y-41400727D01*
X79007550Y-41388084D01*
X79011078Y-41385522D01*
X79079131Y-41314343D01*
X79146598Y-41246877D01*
X79149285Y-41243039D01*
X79161239Y-41228465D01*
X79166629Y-41222828D01*
X79166628Y-41222828D01*
X79166632Y-41222825D01*
X79219164Y-41143241D01*
X79272102Y-41067639D01*
X79275543Y-41060259D01*
X79284432Y-41044364D01*
X79290635Y-41034968D01*
X79326889Y-40950146D01*
X79364575Y-40869330D01*
X79367570Y-40858148D01*
X79373325Y-40841505D01*
X79379103Y-40827988D01*
X79398936Y-40741092D01*
X79421207Y-40657977D01*
X79422887Y-40638766D01*
X79424206Y-40630377D01*
X79424445Y-40629325D01*
X79429191Y-40608537D01*
X79433050Y-40522602D01*
X79440277Y-40440003D01*
X81779723Y-40440003D01*
X81781688Y-40462470D01*
X81781862Y-40470660D01*
X81780709Y-40496324D01*
X81780710Y-40496328D01*
X81791641Y-40577031D01*
X81791966Y-40579949D01*
X81798792Y-40657972D01*
X81798795Y-40657987D01*
X81805482Y-40682941D01*
X81807034Y-40690670D01*
X81810924Y-40719381D01*
X81810926Y-40719392D01*
X81835075Y-40793713D01*
X81835997Y-40796825D01*
X81855423Y-40869324D01*
X81855427Y-40869336D01*
X81867736Y-40895732D01*
X81870512Y-40902779D01*
X81880483Y-40933464D01*
X81915970Y-40999411D01*
X81917558Y-41002576D01*
X81947898Y-41067639D01*
X81966490Y-41094191D01*
X81970303Y-41100378D01*
X81987146Y-41131678D01*
X81987152Y-41131687D01*
X82031792Y-41187663D01*
X82034106Y-41190758D01*
X82060510Y-41228465D01*
X82073402Y-41246877D01*
X82073405Y-41246880D01*
X82098646Y-41272121D01*
X82103283Y-41277309D01*
X82127492Y-41307666D01*
X82178959Y-41352632D01*
X82182008Y-41355483D01*
X82228116Y-41401592D01*
X82228122Y-41401597D01*
X82228123Y-41401598D01*
X82239802Y-41409775D01*
X82260055Y-41423957D01*
X82265290Y-41428057D01*
X82297004Y-41455765D01*
X82297013Y-41455771D01*
X82352849Y-41489131D01*
X82356613Y-41491568D01*
X82407359Y-41527101D01*
X82407364Y-41527104D01*
X82429917Y-41537620D01*
X82445677Y-41544969D01*
X82451271Y-41547935D01*
X82488349Y-41570088D01*
X82490236Y-41571215D01*
X82508828Y-41578192D01*
X82548083Y-41592925D01*
X82552503Y-41594782D01*
X82605670Y-41619575D01*
X82605674Y-41619577D01*
X82636069Y-41627720D01*
X82649677Y-41631366D01*
X82655413Y-41633207D01*
X82672264Y-41639531D01*
X82700976Y-41650307D01*
X82758545Y-41660754D01*
X82763511Y-41661868D01*
X82817023Y-41676207D01*
X82865689Y-41680464D01*
X82871306Y-41681218D01*
X82922453Y-41690500D01*
X82977691Y-41690500D01*
X82983092Y-41690735D01*
X83011548Y-41693225D01*
X83034998Y-41695277D01*
X83035000Y-41695277D01*
X83087992Y-41690640D01*
X83091121Y-41690500D01*
X83091155Y-41690500D01*
X83145172Y-41685638D01*
X83252977Y-41676207D01*
X83253000Y-41676200D01*
X83253475Y-41676117D01*
X83258713Y-41675419D01*
X83259188Y-41675377D01*
X83362997Y-41646726D01*
X83464330Y-41619575D01*
X83464337Y-41619571D01*
X83471254Y-41617053D01*
X83475948Y-41615554D01*
X83476170Y-41615493D01*
X83476181Y-41615487D01*
X83476183Y-41615487D01*
X83570454Y-41570088D01*
X83570453Y-41570088D01*
X83662639Y-41527102D01*
X83662644Y-41527097D01*
X83667327Y-41524395D01*
X83667400Y-41524522D01*
X83678164Y-41518218D01*
X83678973Y-41517829D01*
X83761156Y-41458118D01*
X83841877Y-41401598D01*
X83842747Y-41400727D01*
X83857550Y-41388084D01*
X83861078Y-41385522D01*
X83929131Y-41314343D01*
X83996598Y-41246877D01*
X83999285Y-41243039D01*
X84011239Y-41228465D01*
X84016629Y-41222828D01*
X84016628Y-41222828D01*
X84016632Y-41222825D01*
X84069164Y-41143241D01*
X84122102Y-41067639D01*
X84125543Y-41060259D01*
X84134432Y-41044364D01*
X84140635Y-41034968D01*
X84176889Y-40950146D01*
X84214575Y-40869330D01*
X84217570Y-40858148D01*
X84223325Y-40841505D01*
X84229103Y-40827988D01*
X84248936Y-40741092D01*
X84271207Y-40657977D01*
X84272887Y-40638766D01*
X84274206Y-40630377D01*
X84274445Y-40629325D01*
X84279191Y-40608537D01*
X84283050Y-40522602D01*
X84290277Y-40440000D01*
X84288310Y-40417528D01*
X84288137Y-40409334D01*
X84289290Y-40383670D01*
X84278353Y-40302939D01*
X84278034Y-40300067D01*
X84271207Y-40222023D01*
X84264515Y-40197053D01*
X84262963Y-40189322D01*
X84259076Y-40160618D01*
X84259075Y-40160616D01*
X84259075Y-40160613D01*
X84234921Y-40086276D01*
X84233998Y-40083161D01*
X84214576Y-40010673D01*
X84214574Y-40010669D01*
X84202266Y-39984274D01*
X84199488Y-39977222D01*
X84189519Y-39946541D01*
X84189517Y-39946537D01*
X84189517Y-39946536D01*
X84176988Y-39923253D01*
X84154027Y-39880583D01*
X84152432Y-39877405D01*
X84137338Y-39845036D01*
X84122102Y-39812362D01*
X84103512Y-39785813D01*
X84099698Y-39779625D01*
X84099359Y-39778995D01*
X84082852Y-39748319D01*
X84038192Y-39692318D01*
X84035896Y-39689247D01*
X83996598Y-39633123D01*
X83971353Y-39607878D01*
X83966715Y-39602689D01*
X83942506Y-39572332D01*
X83891039Y-39527366D01*
X83887990Y-39524515D01*
X83841878Y-39478402D01*
X83809940Y-39456039D01*
X83804705Y-39451939D01*
X83772996Y-39424235D01*
X83772994Y-39424233D01*
X83772992Y-39424232D01*
X83717149Y-39390868D01*
X83713386Y-39388431D01*
X83662641Y-39352899D01*
X83624333Y-39335035D01*
X83618735Y-39332067D01*
X83579769Y-39308787D01*
X83579767Y-39308786D01*
X83521928Y-39287079D01*
X83517515Y-39285226D01*
X83464330Y-39260425D01*
X83420321Y-39248632D01*
X83414581Y-39246790D01*
X83369025Y-39229692D01*
X83311456Y-39219245D01*
X83306480Y-39218128D01*
X83252977Y-39203793D01*
X83204327Y-39199536D01*
X83198659Y-39198775D01*
X83147551Y-39189500D01*
X83147547Y-39189500D01*
X83092309Y-39189500D01*
X83086907Y-39189264D01*
X83058451Y-39186774D01*
X83035002Y-39184723D01*
X83034997Y-39184723D01*
X82982050Y-39189355D01*
X82978862Y-39189499D01*
X82978851Y-39189500D01*
X82978845Y-39189500D01*
X82932671Y-39193655D01*
X82924826Y-39194361D01*
X82817020Y-39203793D01*
X82816468Y-39203891D01*
X82811275Y-39204581D01*
X82810812Y-39204622D01*
X82810809Y-39204623D01*
X82707002Y-39233273D01*
X82605659Y-39260428D01*
X82598739Y-39262946D01*
X82594050Y-39264444D01*
X82593849Y-39264499D01*
X82593832Y-39264505D01*
X82499528Y-39309919D01*
X82407358Y-39352899D01*
X82402670Y-39355606D01*
X82402598Y-39355481D01*
X82391871Y-39361764D01*
X82391030Y-39362168D01*
X82308831Y-39421889D01*
X82228123Y-39478401D01*
X82227241Y-39479284D01*
X82212461Y-39491906D01*
X82208928Y-39494472D01*
X82208916Y-39494483D01*
X82177477Y-39527366D01*
X82140868Y-39565656D01*
X82118379Y-39588144D01*
X82073403Y-39633120D01*
X82073402Y-39633121D01*
X82070711Y-39636965D01*
X82058773Y-39651521D01*
X82053368Y-39657174D01*
X82032476Y-39688822D01*
X82000828Y-39736768D01*
X81947897Y-39812362D01*
X81947898Y-39812362D01*
X81947891Y-39812374D01*
X81944457Y-39819738D01*
X81935572Y-39835628D01*
X81929362Y-39845035D01*
X81929362Y-39845036D01*
X81893108Y-39929859D01*
X81855425Y-40010669D01*
X81855424Y-40010671D01*
X81852425Y-40021860D01*
X81846681Y-40038475D01*
X81840899Y-40052005D01*
X81840896Y-40052016D01*
X81821063Y-40138907D01*
X81798793Y-40222022D01*
X81798793Y-40222023D01*
X81797112Y-40241226D01*
X81795793Y-40249625D01*
X81790809Y-40271459D01*
X81790809Y-40271464D01*
X81786949Y-40357397D01*
X81779723Y-40439996D01*
X81779723Y-40440003D01*
X79440277Y-40440003D01*
X79440277Y-40440000D01*
X79438310Y-40417528D01*
X79438137Y-40409334D01*
X79439290Y-40383670D01*
X79428353Y-40302939D01*
X79428034Y-40300067D01*
X79421207Y-40222023D01*
X79414515Y-40197053D01*
X79412963Y-40189322D01*
X79409076Y-40160618D01*
X79409075Y-40160616D01*
X79409075Y-40160613D01*
X79384921Y-40086276D01*
X79383998Y-40083161D01*
X79364576Y-40010673D01*
X79364574Y-40010669D01*
X79352266Y-39984274D01*
X79349488Y-39977222D01*
X79339519Y-39946541D01*
X79339517Y-39946537D01*
X79339517Y-39946536D01*
X79326988Y-39923253D01*
X79304027Y-39880583D01*
X79302432Y-39877405D01*
X79287338Y-39845036D01*
X79272102Y-39812362D01*
X79253512Y-39785813D01*
X79249698Y-39779625D01*
X79249359Y-39778995D01*
X79232852Y-39748319D01*
X79188192Y-39692318D01*
X79185896Y-39689247D01*
X79146598Y-39633123D01*
X79121353Y-39607878D01*
X79116715Y-39602689D01*
X79092506Y-39572332D01*
X79041039Y-39527366D01*
X79037990Y-39524515D01*
X78991878Y-39478402D01*
X78959940Y-39456039D01*
X78954705Y-39451939D01*
X78922996Y-39424235D01*
X78922994Y-39424233D01*
X78922992Y-39424232D01*
X78867149Y-39390868D01*
X78863386Y-39388431D01*
X78812641Y-39352899D01*
X78774333Y-39335035D01*
X78768735Y-39332067D01*
X78729769Y-39308787D01*
X78729767Y-39308786D01*
X78671928Y-39287079D01*
X78667515Y-39285226D01*
X78614330Y-39260425D01*
X78570321Y-39248632D01*
X78564581Y-39246790D01*
X78519025Y-39229692D01*
X78461456Y-39219245D01*
X78456480Y-39218128D01*
X78402977Y-39203793D01*
X78354327Y-39199536D01*
X78348659Y-39198775D01*
X78297551Y-39189500D01*
X78297547Y-39189500D01*
X78242309Y-39189500D01*
X78236907Y-39189264D01*
X78208451Y-39186774D01*
X78185002Y-39184723D01*
X78184997Y-39184723D01*
X78132050Y-39189355D01*
X78128862Y-39189499D01*
X78128851Y-39189500D01*
X78128845Y-39189500D01*
X78082671Y-39193655D01*
X78074826Y-39194361D01*
X77967020Y-39203793D01*
X77966468Y-39203891D01*
X77961275Y-39204581D01*
X77960812Y-39204622D01*
X77960809Y-39204623D01*
X77857002Y-39233273D01*
X77755659Y-39260428D01*
X77748739Y-39262946D01*
X77744050Y-39264444D01*
X77743849Y-39264499D01*
X77743832Y-39264505D01*
X77649528Y-39309919D01*
X77557358Y-39352899D01*
X77552670Y-39355606D01*
X77552598Y-39355481D01*
X77541871Y-39361764D01*
X77541030Y-39362168D01*
X77458831Y-39421889D01*
X77378123Y-39478401D01*
X77377241Y-39479284D01*
X77362461Y-39491906D01*
X77358928Y-39494472D01*
X77358916Y-39494483D01*
X77327477Y-39527366D01*
X77290868Y-39565656D01*
X77268379Y-39588144D01*
X77223403Y-39633120D01*
X77223402Y-39633121D01*
X77220711Y-39636965D01*
X77208773Y-39651521D01*
X77203368Y-39657174D01*
X77182476Y-39688822D01*
X77150828Y-39736768D01*
X77097898Y-39812362D01*
X77097891Y-39812374D01*
X77094457Y-39819738D01*
X77085572Y-39835628D01*
X77079362Y-39845035D01*
X77079362Y-39845036D01*
X77043108Y-39929859D01*
X77005425Y-40010669D01*
X77005424Y-40010671D01*
X77002425Y-40021860D01*
X76996681Y-40038475D01*
X76990899Y-40052005D01*
X76990896Y-40052016D01*
X76971063Y-40138907D01*
X76948793Y-40222022D01*
X76948793Y-40222023D01*
X76947112Y-40241226D01*
X76945793Y-40249625D01*
X76940809Y-40271459D01*
X76940809Y-40271464D01*
X76936949Y-40357397D01*
X76929723Y-40439996D01*
X76929723Y-40440003D01*
X73070500Y-40440003D01*
X73070499Y-39881677D01*
X73070735Y-39876272D01*
X73074292Y-39835628D01*
X73075659Y-39820000D01*
X73070734Y-39763722D01*
X73070499Y-39758319D01*
X73070499Y-38922129D01*
X73070498Y-38922123D01*
X73070497Y-38922116D01*
X73064091Y-38862517D01*
X73041178Y-38801085D01*
X73013797Y-38727671D01*
X73013795Y-38727668D01*
X73003011Y-38713262D01*
X72936421Y-38624309D01*
X72912004Y-38558848D01*
X72926855Y-38490575D01*
X72936416Y-38475696D01*
X73013796Y-38372331D01*
X73064091Y-38237483D01*
X73070500Y-38177873D01*
X73070499Y-37341677D01*
X73070735Y-37336272D01*
X73075659Y-37280000D01*
X73075659Y-37279999D01*
X73071413Y-37231474D01*
X73070734Y-37223722D01*
X73070499Y-37218319D01*
X73070499Y-36382129D01*
X73070498Y-36382123D01*
X73070497Y-36382116D01*
X73064091Y-36322517D01*
X73061817Y-36316421D01*
X73013796Y-36187669D01*
X73011754Y-36183929D01*
X73010847Y-36179762D01*
X73010697Y-36179359D01*
X73010755Y-36179337D01*
X72996901Y-36115657D01*
X73021316Y-36050192D01*
X73077249Y-36008319D01*
X73120585Y-36000500D01*
X77057310Y-36000500D01*
X77124349Y-36020185D01*
X77170104Y-36072989D01*
X77180048Y-36142147D01*
X77151023Y-36205703D01*
X77120387Y-36230296D01*
X77120667Y-36230725D01*
X77116367Y-36233533D01*
X77063487Y-36274692D01*
X77060124Y-36277133D01*
X77002001Y-36316417D01*
X77001994Y-36316422D01*
X76970248Y-36346847D01*
X76965430Y-36351011D01*
X76933218Y-36376085D01*
X76933209Y-36376093D01*
X76885613Y-36427795D01*
X76882900Y-36430564D01*
X76829882Y-36481378D01*
X76829880Y-36481380D01*
X76805681Y-36514098D01*
X76801448Y-36519223D01*
X76776022Y-36546845D01*
X76735797Y-36608412D01*
X76733741Y-36611367D01*
X76688124Y-36673047D01*
X76688120Y-36673054D01*
X76671268Y-36706475D01*
X76667811Y-36712472D01*
X76649076Y-36741149D01*
X76618219Y-36811496D01*
X76616803Y-36814503D01*
X76580790Y-36885931D01*
X76570792Y-36918573D01*
X76568288Y-36925323D01*
X76555845Y-36953691D01*
X76555845Y-36953692D01*
X76536178Y-37031347D01*
X76535358Y-37034279D01*
X76510984Y-37113876D01*
X76510983Y-37113879D01*
X76507063Y-37144485D01*
X76505668Y-37151830D01*
X76498867Y-37178688D01*
X76498864Y-37178705D01*
X76491867Y-37263154D01*
X76480702Y-37350344D01*
X76480701Y-37350344D01*
X76481872Y-37377900D01*
X76481716Y-37385655D01*
X76479700Y-37409995D01*
X76479700Y-37410000D01*
X76482359Y-37442097D01*
X76486955Y-37497567D01*
X76490819Y-37588523D01*
X76490820Y-37588534D01*
X76495939Y-37612284D01*
X76497120Y-37620233D01*
X76498865Y-37641301D01*
X76521205Y-37729519D01*
X76541046Y-37821582D01*
X76548883Y-37841084D01*
X76551458Y-37848987D01*
X76555844Y-37866303D01*
X76593655Y-37952504D01*
X76629934Y-38042787D01*
X76629935Y-38042788D01*
X76639232Y-38057888D01*
X76643218Y-38065495D01*
X76649076Y-38078850D01*
X76702275Y-38160277D01*
X76754930Y-38245794D01*
X76761543Y-38253308D01*
X76772263Y-38267402D01*
X76774738Y-38271189D01*
X76776021Y-38273153D01*
X76844027Y-38347028D01*
X76912436Y-38424755D01*
X76917564Y-38428895D01*
X76930882Y-38441377D01*
X76933216Y-38443913D01*
X77014933Y-38507515D01*
X77097920Y-38574523D01*
X77097922Y-38574524D01*
X77100678Y-38576064D01*
X77116360Y-38586460D01*
X77116367Y-38586465D01*
X77116371Y-38586467D01*
X77116374Y-38586470D01*
X77164389Y-38612454D01*
X77210162Y-38637225D01*
X77306046Y-38690790D01*
X77308849Y-38692058D01*
X77315695Y-38695097D01*
X77315794Y-38694873D01*
X77320490Y-38696932D01*
X77320497Y-38696936D01*
X77424276Y-38732563D01*
X77530829Y-38770211D01*
X77531398Y-38770308D01*
X77536129Y-38771312D01*
X77540007Y-38772294D01*
X77540019Y-38772298D01*
X77651324Y-38790871D01*
X77765791Y-38810499D01*
X77765800Y-38810500D01*
X78001044Y-38810500D01*
X78001049Y-38810500D01*
X78034073Y-38804988D01*
X78057469Y-38801085D01*
X78062407Y-38800463D01*
X78122541Y-38795346D01*
X78174615Y-38781786D01*
X78180017Y-38780634D01*
X78229981Y-38772298D01*
X78287186Y-38752658D01*
X78291663Y-38751309D01*
X78353249Y-38735275D01*
X78359249Y-38732563D01*
X78364262Y-38730296D01*
X78399297Y-38714459D01*
X78404681Y-38712322D01*
X78449503Y-38696936D01*
X78505554Y-38666601D01*
X78509527Y-38664632D01*
X78518156Y-38660730D01*
X78570486Y-38637077D01*
X78609647Y-38610608D01*
X78614820Y-38607469D01*
X78653626Y-38586470D01*
X78706532Y-38545290D01*
X78709850Y-38542881D01*
X78768003Y-38503579D01*
X78799770Y-38473131D01*
X78804548Y-38469002D01*
X78836784Y-38443913D01*
X78839109Y-38441388D01*
X78854420Y-38424755D01*
X78884389Y-38392198D01*
X78887101Y-38389432D01*
X78940118Y-38338621D01*
X78964329Y-38305883D01*
X78968540Y-38300785D01*
X78993979Y-38273153D01*
X79034206Y-38211578D01*
X79036241Y-38208652D01*
X79081879Y-38146947D01*
X79098733Y-38113517D01*
X79102170Y-38107552D01*
X79120924Y-38078849D01*
X79151805Y-38008445D01*
X79153174Y-38005538D01*
X79189207Y-37934074D01*
X79199208Y-37901413D01*
X79201701Y-37894694D01*
X79214157Y-37866300D01*
X79233827Y-37788621D01*
X79234635Y-37785732D01*
X79259016Y-37706123D01*
X79262936Y-37675508D01*
X79264330Y-37668170D01*
X79271134Y-37641305D01*
X79278132Y-37556845D01*
X79289298Y-37469654D01*
X79288126Y-37442079D01*
X79288281Y-37434355D01*
X79290300Y-37410000D01*
X79287962Y-37381788D01*
X79283044Y-37322432D01*
X79279180Y-37231468D01*
X79274059Y-37207709D01*
X79272879Y-37199762D01*
X79271134Y-37178695D01*
X79271133Y-37178692D01*
X79271133Y-37178688D01*
X79248794Y-37090480D01*
X79236682Y-37034279D01*
X79228954Y-36998419D01*
X79221115Y-36978912D01*
X79218541Y-36971015D01*
X79214157Y-36953700D01*
X79176344Y-36867495D01*
X79140064Y-36777210D01*
X79130768Y-36762112D01*
X79126779Y-36754500D01*
X79120924Y-36741151D01*
X79067724Y-36659721D01*
X79015071Y-36574208D01*
X79015070Y-36574207D01*
X79015069Y-36574205D01*
X79008451Y-36566686D01*
X78997727Y-36552584D01*
X78993978Y-36546845D01*
X78925972Y-36472971D01*
X78857565Y-36395246D01*
X78852439Y-36391107D01*
X78839117Y-36378621D01*
X78836785Y-36376088D01*
X78836783Y-36376086D01*
X78755066Y-36312484D01*
X78672080Y-36245477D01*
X78672073Y-36245472D01*
X78669311Y-36243929D01*
X78653643Y-36233542D01*
X78653631Y-36233532D01*
X78649339Y-36230729D01*
X78649922Y-36229835D01*
X78604079Y-36184332D01*
X78588973Y-36116114D01*
X78613146Y-36050560D01*
X78668923Y-36008480D01*
X78712689Y-36000500D01*
X82507310Y-36000500D01*
X82574349Y-36020185D01*
X82620104Y-36072989D01*
X82630048Y-36142147D01*
X82601023Y-36205703D01*
X82570387Y-36230296D01*
X82570667Y-36230725D01*
X82566367Y-36233533D01*
X82513487Y-36274692D01*
X82510124Y-36277133D01*
X82452001Y-36316417D01*
X82451994Y-36316422D01*
X82420248Y-36346847D01*
X82415430Y-36351011D01*
X82383218Y-36376085D01*
X82383209Y-36376093D01*
X82335613Y-36427795D01*
X82332900Y-36430564D01*
X82279882Y-36481378D01*
X82279880Y-36481380D01*
X82255681Y-36514098D01*
X82251448Y-36519223D01*
X82226022Y-36546845D01*
X82185797Y-36608412D01*
X82183741Y-36611367D01*
X82138124Y-36673047D01*
X82138120Y-36673054D01*
X82121268Y-36706475D01*
X82117811Y-36712472D01*
X82099076Y-36741149D01*
X82068219Y-36811496D01*
X82066803Y-36814503D01*
X82030790Y-36885931D01*
X82020792Y-36918573D01*
X82018288Y-36925323D01*
X82005845Y-36953691D01*
X82005845Y-36953692D01*
X81986178Y-37031347D01*
X81985358Y-37034279D01*
X81960984Y-37113876D01*
X81960983Y-37113879D01*
X81957063Y-37144485D01*
X81955668Y-37151830D01*
X81948867Y-37178688D01*
X81948864Y-37178705D01*
X81941867Y-37263154D01*
X81930702Y-37350344D01*
X81930701Y-37350344D01*
X81931872Y-37377900D01*
X81931716Y-37385655D01*
X81929700Y-37409995D01*
X81929700Y-37410000D01*
X81932359Y-37442097D01*
X81936955Y-37497567D01*
X81940819Y-37588523D01*
X81940820Y-37588534D01*
X81945939Y-37612284D01*
X81947120Y-37620233D01*
X81948865Y-37641301D01*
X81971205Y-37729519D01*
X81991046Y-37821582D01*
X81998883Y-37841084D01*
X82001458Y-37848987D01*
X82005844Y-37866303D01*
X82043655Y-37952504D01*
X82079934Y-38042787D01*
X82079935Y-38042788D01*
X82089232Y-38057888D01*
X82093218Y-38065495D01*
X82099076Y-38078850D01*
X82152275Y-38160277D01*
X82204930Y-38245794D01*
X82211543Y-38253308D01*
X82222263Y-38267402D01*
X82224738Y-38271189D01*
X82226021Y-38273153D01*
X82294027Y-38347028D01*
X82362436Y-38424755D01*
X82367564Y-38428895D01*
X82380882Y-38441377D01*
X82383216Y-38443913D01*
X82464933Y-38507515D01*
X82547920Y-38574523D01*
X82547922Y-38574524D01*
X82550678Y-38576064D01*
X82566360Y-38586460D01*
X82566367Y-38586465D01*
X82566371Y-38586467D01*
X82566374Y-38586470D01*
X82614389Y-38612454D01*
X82660162Y-38637225D01*
X82756046Y-38690790D01*
X82758849Y-38692058D01*
X82765695Y-38695097D01*
X82765794Y-38694873D01*
X82770490Y-38696932D01*
X82770497Y-38696936D01*
X82874276Y-38732563D01*
X82980829Y-38770211D01*
X82981398Y-38770308D01*
X82986129Y-38771312D01*
X82990007Y-38772294D01*
X82990019Y-38772298D01*
X83101324Y-38790871D01*
X83215791Y-38810499D01*
X83215800Y-38810500D01*
X83451044Y-38810500D01*
X83451049Y-38810500D01*
X83484073Y-38804988D01*
X83507469Y-38801085D01*
X83512407Y-38800463D01*
X83572541Y-38795346D01*
X83624615Y-38781786D01*
X83630017Y-38780634D01*
X83679981Y-38772298D01*
X83737186Y-38752658D01*
X83741663Y-38751309D01*
X83803249Y-38735275D01*
X83809249Y-38732563D01*
X83814262Y-38730296D01*
X83849297Y-38714459D01*
X83854681Y-38712322D01*
X83899503Y-38696936D01*
X83955554Y-38666601D01*
X83959527Y-38664632D01*
X83968156Y-38660730D01*
X84020486Y-38637077D01*
X84059647Y-38610608D01*
X84064820Y-38607469D01*
X84103626Y-38586470D01*
X84156532Y-38545290D01*
X84159850Y-38542881D01*
X84218003Y-38503579D01*
X84249770Y-38473131D01*
X84254548Y-38469002D01*
X84286784Y-38443913D01*
X84289109Y-38441388D01*
X84304420Y-38424755D01*
X84334389Y-38392198D01*
X84337101Y-38389432D01*
X84390118Y-38338621D01*
X84414329Y-38305883D01*
X84418540Y-38300785D01*
X84443979Y-38273153D01*
X84484206Y-38211578D01*
X84486241Y-38208652D01*
X84531879Y-38146947D01*
X84548733Y-38113517D01*
X84552170Y-38107552D01*
X84570924Y-38078849D01*
X84601805Y-38008445D01*
X84603174Y-38005538D01*
X84639207Y-37934074D01*
X84649208Y-37901413D01*
X84651701Y-37894694D01*
X84664157Y-37866300D01*
X84683827Y-37788621D01*
X84684635Y-37785732D01*
X84709016Y-37706123D01*
X84712936Y-37675508D01*
X84714330Y-37668170D01*
X84721134Y-37641305D01*
X84728132Y-37556845D01*
X84739298Y-37469654D01*
X84738126Y-37442079D01*
X84738281Y-37434355D01*
X84740300Y-37410000D01*
X84737962Y-37381788D01*
X84733044Y-37322432D01*
X84729180Y-37231468D01*
X84724059Y-37207709D01*
X84722879Y-37199762D01*
X84721134Y-37178695D01*
X84721133Y-37178692D01*
X84721133Y-37178688D01*
X84698794Y-37090480D01*
X84686682Y-37034279D01*
X84678954Y-36998419D01*
X84671115Y-36978912D01*
X84668541Y-36971015D01*
X84664157Y-36953700D01*
X84626344Y-36867495D01*
X84590064Y-36777210D01*
X84580768Y-36762112D01*
X84576779Y-36754500D01*
X84570924Y-36741151D01*
X84517724Y-36659721D01*
X84465071Y-36574208D01*
X84465070Y-36574207D01*
X84465069Y-36574205D01*
X84458451Y-36566686D01*
X84447727Y-36552584D01*
X84443978Y-36546845D01*
X84375972Y-36472971D01*
X84307565Y-36395246D01*
X84302439Y-36391107D01*
X84289117Y-36378621D01*
X84286785Y-36376088D01*
X84286783Y-36376086D01*
X84205066Y-36312484D01*
X84122080Y-36245477D01*
X84122073Y-36245472D01*
X84119311Y-36243929D01*
X84103643Y-36233542D01*
X84103631Y-36233532D01*
X84099339Y-36230729D01*
X84099922Y-36229835D01*
X84054079Y-36184332D01*
X84038973Y-36116114D01*
X84063146Y-36050560D01*
X84118923Y-36008480D01*
X84162689Y-36000500D01*
X88099415Y-36000500D01*
X88166454Y-36020185D01*
X88212209Y-36072989D01*
X88222153Y-36142147D01*
X88208246Y-36183929D01*
X88206203Y-36187669D01*
X88155908Y-36322517D01*
X88149877Y-36378621D01*
X88149501Y-36382123D01*
X88149500Y-36382135D01*
X88149500Y-37218322D01*
X88149264Y-37223728D01*
X88144341Y-37279998D01*
X88144341Y-37280001D01*
X88149264Y-37336271D01*
X88149500Y-37341677D01*
X88149500Y-38177870D01*
X88149501Y-38177876D01*
X88155908Y-38237483D01*
X88206202Y-38372328D01*
X88206203Y-38372330D01*
X88206204Y-38372331D01*
X88283576Y-38475687D01*
X88283578Y-38475689D01*
X88307995Y-38541153D01*
X88293144Y-38609426D01*
X88283578Y-38624311D01*
X88206203Y-38727669D01*
X88206202Y-38727671D01*
X88155908Y-38862517D01*
X88149501Y-38922116D01*
X88149501Y-38922123D01*
X88149500Y-38922135D01*
X88149500Y-39758322D01*
X88149264Y-39763728D01*
X88144341Y-39819998D01*
X88144341Y-39820001D01*
X88149264Y-39876271D01*
X88149500Y-39881677D01*
X88149500Y-40717870D01*
X88149501Y-40717876D01*
X88155908Y-40777483D01*
X88206202Y-40912328D01*
X88206206Y-40912335D01*
X88292452Y-41027544D01*
X88292455Y-41027547D01*
X88407664Y-41113793D01*
X88407671Y-41113797D01*
X88542517Y-41164091D01*
X88542516Y-41164091D01*
X88549444Y-41164835D01*
X88602127Y-41170500D01*
X89438322Y-41170499D01*
X89443727Y-41170734D01*
X89500000Y-41175659D01*
X89556272Y-41170734D01*
X89561678Y-41170499D01*
X92197871Y-41170499D01*
X92197872Y-41170499D01*
X92257483Y-41164091D01*
X92392331Y-41113796D01*
X92507546Y-41027546D01*
X92593796Y-40912331D01*
X92644091Y-40777483D01*
X92650500Y-40717873D01*
X92650499Y-38922128D01*
X92644091Y-38862517D01*
X92621178Y-38801085D01*
X92593797Y-38727671D01*
X92593795Y-38727668D01*
X92583011Y-38713262D01*
X92516421Y-38624309D01*
X92492004Y-38558848D01*
X92506855Y-38490575D01*
X92516416Y-38475696D01*
X92593796Y-38372331D01*
X92644091Y-38237483D01*
X92650500Y-38177873D01*
X92650499Y-36382128D01*
X92644091Y-36322517D01*
X92641817Y-36316421D01*
X92593796Y-36187669D01*
X92591754Y-36183929D01*
X92590847Y-36179762D01*
X92590697Y-36179359D01*
X92590755Y-36179337D01*
X92576901Y-36115657D01*
X92601316Y-36050192D01*
X92657249Y-36008319D01*
X92700585Y-36000500D01*
X95875500Y-36000500D01*
X95942539Y-36020185D01*
X95988294Y-36072989D01*
X95999500Y-36124500D01*
X95999500Y-92875500D01*
X95979815Y-92942539D01*
X95927011Y-92988294D01*
X95875500Y-92999500D01*
X84039500Y-92999500D01*
X83972461Y-92979815D01*
X83926706Y-92927011D01*
X83915500Y-92875500D01*
X83915499Y-89964629D01*
X83915498Y-89964623D01*
X83915497Y-89964616D01*
X83909091Y-89905017D01*
X83883911Y-89837507D01*
X83878928Y-89767819D01*
X83912412Y-89706496D01*
X83963204Y-89675792D01*
X83969925Y-89673697D01*
X83969927Y-89673695D01*
X83969932Y-89673695D01*
X84026512Y-89648229D01*
X84029942Y-89646809D01*
X84087930Y-89624818D01*
X84096266Y-89619062D01*
X84115821Y-89608034D01*
X84125057Y-89603878D01*
X84173896Y-89565613D01*
X84176876Y-89563421D01*
X84227929Y-89528183D01*
X84269065Y-89481748D01*
X84271599Y-89479056D01*
X84979056Y-88771599D01*
X84981748Y-88769065D01*
X85028183Y-88727929D01*
X85063421Y-88676876D01*
X85065613Y-88673896D01*
X85103878Y-88625057D01*
X85108034Y-88615821D01*
X85119062Y-88596266D01*
X85124818Y-88587930D01*
X85146809Y-88529942D01*
X85148229Y-88526512D01*
X85173695Y-88469932D01*
X85175521Y-88459961D01*
X85181552Y-88438331D01*
X85185140Y-88428871D01*
X85185140Y-88428868D01*
X85188185Y-88403797D01*
X85192613Y-88367325D01*
X85193177Y-88363621D01*
X85199993Y-88326422D01*
X85204358Y-88302606D01*
X85200613Y-88240696D01*
X85200500Y-88236951D01*
X85200500Y-85540001D01*
X88144341Y-85540001D01*
X88149264Y-85596271D01*
X88149500Y-85601677D01*
X88149500Y-86437870D01*
X88149501Y-86437876D01*
X88155908Y-86497483D01*
X88206202Y-86632328D01*
X88206206Y-86632335D01*
X88292452Y-86747544D01*
X88292455Y-86747547D01*
X88407664Y-86833793D01*
X88407671Y-86833797D01*
X88542517Y-86884091D01*
X88542516Y-86884091D01*
X88549444Y-86884835D01*
X88602127Y-86890500D01*
X89438322Y-86890499D01*
X89443727Y-86890734D01*
X89500000Y-86895659D01*
X89556272Y-86890734D01*
X89561678Y-86890499D01*
X92197871Y-86890499D01*
X92197872Y-86890499D01*
X92257483Y-86884091D01*
X92392331Y-86833796D01*
X92507546Y-86747546D01*
X92593796Y-86632331D01*
X92644091Y-86497483D01*
X92650500Y-86437873D01*
X92650499Y-84642128D01*
X92644091Y-84582517D01*
X92593796Y-84447669D01*
X92516421Y-84344309D01*
X92492004Y-84278848D01*
X92506855Y-84210575D01*
X92516416Y-84195696D01*
X92593796Y-84092331D01*
X92644091Y-83957483D01*
X92650500Y-83897873D01*
X92650499Y-82102128D01*
X92644091Y-82042517D01*
X92593796Y-81907669D01*
X92593795Y-81907668D01*
X92593793Y-81907664D01*
X92507547Y-81792455D01*
X92507544Y-81792452D01*
X92392335Y-81706206D01*
X92392328Y-81706202D01*
X92257482Y-81655908D01*
X92257483Y-81655908D01*
X92197883Y-81649501D01*
X92197881Y-81649500D01*
X92197873Y-81649500D01*
X92197865Y-81649500D01*
X89561680Y-81649500D01*
X89556278Y-81649264D01*
X89517494Y-81645871D01*
X89500001Y-81644341D01*
X89499998Y-81644341D01*
X89472715Y-81646727D01*
X89443719Y-81649264D01*
X89438319Y-81649500D01*
X88602129Y-81649500D01*
X88602123Y-81649501D01*
X88542516Y-81655908D01*
X88407671Y-81706202D01*
X88407664Y-81706206D01*
X88292455Y-81792452D01*
X88292452Y-81792455D01*
X88206206Y-81907664D01*
X88206202Y-81907671D01*
X88155908Y-82042517D01*
X88149501Y-82102116D01*
X88149501Y-82102123D01*
X88149500Y-82102135D01*
X88149500Y-82938322D01*
X88149264Y-82943728D01*
X88144341Y-82999998D01*
X88144341Y-83000001D01*
X88149264Y-83056271D01*
X88149500Y-83061677D01*
X88149500Y-83897870D01*
X88149501Y-83897876D01*
X88155908Y-83957483D01*
X88206202Y-84092328D01*
X88206204Y-84092331D01*
X88283577Y-84195688D01*
X88307995Y-84261152D01*
X88293144Y-84329425D01*
X88283578Y-84344310D01*
X88206204Y-84447668D01*
X88206202Y-84447671D01*
X88155908Y-84582517D01*
X88149501Y-84642116D01*
X88149501Y-84642123D01*
X88149500Y-84642135D01*
X88149500Y-85478322D01*
X88149264Y-85483728D01*
X88144341Y-85539998D01*
X88144341Y-85540001D01*
X85200500Y-85540001D01*
X85200500Y-77920001D01*
X88144341Y-77920001D01*
X88149264Y-77976271D01*
X88149500Y-77981677D01*
X88149500Y-78817870D01*
X88149501Y-78817876D01*
X88155908Y-78877483D01*
X88206202Y-79012328D01*
X88206206Y-79012335D01*
X88292452Y-79127544D01*
X88292455Y-79127547D01*
X88407664Y-79213793D01*
X88407671Y-79213797D01*
X88542517Y-79264091D01*
X88542516Y-79264091D01*
X88549444Y-79264835D01*
X88602127Y-79270500D01*
X89438322Y-79270499D01*
X89443727Y-79270734D01*
X89500000Y-79275659D01*
X89556272Y-79270734D01*
X89561678Y-79270499D01*
X92197871Y-79270499D01*
X92197872Y-79270499D01*
X92257483Y-79264091D01*
X92392331Y-79213796D01*
X92507546Y-79127546D01*
X92593796Y-79012331D01*
X92644091Y-78877483D01*
X92650500Y-78817873D01*
X92650499Y-77022128D01*
X92644091Y-76962517D01*
X92593796Y-76827669D01*
X92516421Y-76724309D01*
X92492004Y-76658848D01*
X92506855Y-76590575D01*
X92516416Y-76575696D01*
X92593796Y-76472331D01*
X92644091Y-76337483D01*
X92650500Y-76277873D01*
X92650499Y-74482128D01*
X92644091Y-74422517D01*
X92593796Y-74287669D01*
X92516421Y-74184309D01*
X92492004Y-74118848D01*
X92506855Y-74050575D01*
X92516416Y-74035696D01*
X92593796Y-73932331D01*
X92644091Y-73797483D01*
X92650500Y-73737873D01*
X92650499Y-71942128D01*
X92644091Y-71882517D01*
X92593796Y-71747669D01*
X92516421Y-71644309D01*
X92492004Y-71578848D01*
X92506855Y-71510575D01*
X92516416Y-71495696D01*
X92593796Y-71392331D01*
X92644091Y-71257483D01*
X92650500Y-71197873D01*
X92650499Y-69402128D01*
X92644091Y-69342517D01*
X92593796Y-69207669D01*
X92593795Y-69207668D01*
X92593793Y-69207664D01*
X92507547Y-69092455D01*
X92507544Y-69092452D01*
X92392335Y-69006206D01*
X92392328Y-69006202D01*
X92257482Y-68955908D01*
X92257483Y-68955908D01*
X92197883Y-68949501D01*
X92197881Y-68949500D01*
X92197873Y-68949500D01*
X92197865Y-68949500D01*
X89561680Y-68949500D01*
X89556278Y-68949264D01*
X89517494Y-68945871D01*
X89500001Y-68944341D01*
X89499998Y-68944341D01*
X89472715Y-68946727D01*
X89443719Y-68949264D01*
X89438319Y-68949500D01*
X88602129Y-68949500D01*
X88602123Y-68949501D01*
X88542516Y-68955908D01*
X88407671Y-69006202D01*
X88407664Y-69006206D01*
X88292455Y-69092452D01*
X88292452Y-69092455D01*
X88206206Y-69207664D01*
X88206202Y-69207671D01*
X88155908Y-69342517D01*
X88149501Y-69402116D01*
X88149501Y-69402123D01*
X88149500Y-69402135D01*
X88149500Y-70238322D01*
X88149264Y-70243728D01*
X88144341Y-70299998D01*
X88144341Y-70300001D01*
X88149264Y-70356271D01*
X88149500Y-70361677D01*
X88149500Y-71197870D01*
X88149501Y-71197876D01*
X88155908Y-71257483D01*
X88206202Y-71392328D01*
X88206204Y-71392331D01*
X88283577Y-71495688D01*
X88307995Y-71561152D01*
X88293144Y-71629425D01*
X88283578Y-71644310D01*
X88206204Y-71747668D01*
X88206202Y-71747671D01*
X88155908Y-71882517D01*
X88149501Y-71942116D01*
X88149501Y-71942123D01*
X88149500Y-71942135D01*
X88149500Y-72778322D01*
X88149264Y-72783728D01*
X88144341Y-72839998D01*
X88144341Y-72840001D01*
X88149264Y-72896271D01*
X88149500Y-72901677D01*
X88149500Y-73737870D01*
X88149501Y-73737876D01*
X88155908Y-73797483D01*
X88206202Y-73932328D01*
X88206204Y-73932331D01*
X88283577Y-74035688D01*
X88307995Y-74101152D01*
X88293144Y-74169425D01*
X88283578Y-74184310D01*
X88206204Y-74287668D01*
X88206202Y-74287671D01*
X88155908Y-74422517D01*
X88149501Y-74482116D01*
X88149501Y-74482123D01*
X88149500Y-74482135D01*
X88149500Y-75318322D01*
X88149264Y-75323728D01*
X88144341Y-75379998D01*
X88144341Y-75380001D01*
X88149264Y-75436271D01*
X88149500Y-75441677D01*
X88149500Y-76277870D01*
X88149501Y-76277876D01*
X88155908Y-76337483D01*
X88206202Y-76472328D01*
X88206204Y-76472331D01*
X88283577Y-76575688D01*
X88307995Y-76641152D01*
X88293144Y-76709425D01*
X88283578Y-76724310D01*
X88206204Y-76827668D01*
X88206202Y-76827671D01*
X88155908Y-76962517D01*
X88149501Y-77022116D01*
X88149501Y-77022123D01*
X88149500Y-77022135D01*
X88149500Y-77858322D01*
X88149264Y-77863728D01*
X88144341Y-77919998D01*
X88144341Y-77920001D01*
X85200500Y-77920001D01*
X85200500Y-65220001D01*
X88144341Y-65220001D01*
X88149264Y-65276271D01*
X88149500Y-65281677D01*
X88149500Y-66117870D01*
X88149501Y-66117876D01*
X88155908Y-66177483D01*
X88206202Y-66312328D01*
X88206206Y-66312335D01*
X88292452Y-66427544D01*
X88292455Y-66427547D01*
X88407664Y-66513793D01*
X88407671Y-66513797D01*
X88542517Y-66564091D01*
X88542516Y-66564091D01*
X88549444Y-66564835D01*
X88602127Y-66570500D01*
X89438322Y-66570499D01*
X89443727Y-66570734D01*
X89500000Y-66575659D01*
X89556272Y-66570734D01*
X89561678Y-66570499D01*
X92197871Y-66570499D01*
X92197872Y-66570499D01*
X92257483Y-66564091D01*
X92392331Y-66513796D01*
X92507546Y-66427546D01*
X92593796Y-66312331D01*
X92644091Y-66177483D01*
X92650500Y-66117873D01*
X92650499Y-64322128D01*
X92644091Y-64262517D01*
X92593796Y-64127669D01*
X92516421Y-64024309D01*
X92492004Y-63958848D01*
X92506855Y-63890575D01*
X92516416Y-63875696D01*
X92593796Y-63772331D01*
X92644091Y-63637483D01*
X92650500Y-63577873D01*
X92650499Y-61782128D01*
X92644091Y-61722517D01*
X92593796Y-61587669D01*
X92516421Y-61484309D01*
X92492004Y-61418848D01*
X92506855Y-61350575D01*
X92516416Y-61335696D01*
X92593796Y-61232331D01*
X92644091Y-61097483D01*
X92650500Y-61037873D01*
X92650499Y-59242128D01*
X92644091Y-59182517D01*
X92593796Y-59047669D01*
X92516421Y-58944309D01*
X92492004Y-58878848D01*
X92506855Y-58810575D01*
X92516416Y-58795696D01*
X92593796Y-58692331D01*
X92644091Y-58557483D01*
X92650500Y-58497873D01*
X92650499Y-56702128D01*
X92644091Y-56642517D01*
X92593796Y-56507669D01*
X92516421Y-56404309D01*
X92492004Y-56338848D01*
X92506855Y-56270575D01*
X92516416Y-56255696D01*
X92593796Y-56152331D01*
X92644091Y-56017483D01*
X92650500Y-55957873D01*
X92650499Y-54162128D01*
X92644091Y-54102517D01*
X92593796Y-53967669D01*
X92516421Y-53864309D01*
X92492004Y-53798848D01*
X92506855Y-53730575D01*
X92516416Y-53715696D01*
X92593796Y-53612331D01*
X92644091Y-53477483D01*
X92650500Y-53417873D01*
X92650499Y-51622128D01*
X92644091Y-51562517D01*
X92593796Y-51427669D01*
X92516421Y-51324309D01*
X92492004Y-51258848D01*
X92506855Y-51190575D01*
X92516416Y-51175696D01*
X92593796Y-51072331D01*
X92644091Y-50937483D01*
X92650500Y-50877873D01*
X92650499Y-49082128D01*
X92644091Y-49022517D01*
X92593796Y-48887669D01*
X92516421Y-48784309D01*
X92492004Y-48718848D01*
X92506855Y-48650575D01*
X92516416Y-48635696D01*
X92593796Y-48532331D01*
X92644091Y-48397483D01*
X92650500Y-48337873D01*
X92650499Y-46542128D01*
X92644091Y-46482517D01*
X92593796Y-46347669D01*
X92516421Y-46244309D01*
X92492004Y-46178848D01*
X92506855Y-46110575D01*
X92516416Y-46095696D01*
X92593796Y-45992331D01*
X92644091Y-45857483D01*
X92650500Y-45797873D01*
X92650499Y-44002128D01*
X92644091Y-43942517D01*
X92593796Y-43807669D01*
X92593795Y-43807668D01*
X92593793Y-43807664D01*
X92507547Y-43692455D01*
X92507544Y-43692452D01*
X92392335Y-43606206D01*
X92392328Y-43606202D01*
X92257482Y-43555908D01*
X92257483Y-43555908D01*
X92197883Y-43549501D01*
X92197881Y-43549500D01*
X92197873Y-43549500D01*
X92197865Y-43549500D01*
X89561680Y-43549500D01*
X89556278Y-43549264D01*
X89517494Y-43545871D01*
X89500001Y-43544341D01*
X89499998Y-43544341D01*
X89472715Y-43546727D01*
X89443719Y-43549264D01*
X89438319Y-43549500D01*
X88602129Y-43549500D01*
X88602123Y-43549501D01*
X88542516Y-43555908D01*
X88407671Y-43606202D01*
X88407664Y-43606206D01*
X88292455Y-43692452D01*
X88292452Y-43692455D01*
X88206206Y-43807664D01*
X88206202Y-43807671D01*
X88155908Y-43942517D01*
X88149501Y-44002116D01*
X88149501Y-44002123D01*
X88149500Y-44002135D01*
X88149500Y-44838322D01*
X88149264Y-44843728D01*
X88144341Y-44899998D01*
X88144341Y-44900001D01*
X88149264Y-44956271D01*
X88149500Y-44961677D01*
X88149500Y-45797870D01*
X88149501Y-45797876D01*
X88155908Y-45857483D01*
X88206202Y-45992328D01*
X88206203Y-45992330D01*
X88283578Y-46095689D01*
X88307995Y-46161153D01*
X88293144Y-46229426D01*
X88283578Y-46244311D01*
X88206203Y-46347669D01*
X88206202Y-46347671D01*
X88155908Y-46482517D01*
X88149501Y-46542116D01*
X88149501Y-46542123D01*
X88149500Y-46542135D01*
X88149500Y-47378322D01*
X88149264Y-47383728D01*
X88144341Y-47439998D01*
X88144341Y-47440001D01*
X88149264Y-47496271D01*
X88149500Y-47501677D01*
X88149500Y-48337870D01*
X88149501Y-48337876D01*
X88155908Y-48397483D01*
X88206202Y-48532328D01*
X88206203Y-48532330D01*
X88283578Y-48635689D01*
X88307995Y-48701153D01*
X88293144Y-48769426D01*
X88283578Y-48784311D01*
X88206203Y-48887669D01*
X88206202Y-48887671D01*
X88155908Y-49022517D01*
X88149501Y-49082116D01*
X88149501Y-49082123D01*
X88149500Y-49082135D01*
X88149500Y-49918322D01*
X88149264Y-49923728D01*
X88144341Y-49979998D01*
X88144341Y-49980001D01*
X88149264Y-50036271D01*
X88149500Y-50041677D01*
X88149500Y-50877870D01*
X88149501Y-50877876D01*
X88155908Y-50937483D01*
X88206202Y-51072328D01*
X88206203Y-51072330D01*
X88283578Y-51175689D01*
X88307995Y-51241153D01*
X88293144Y-51309426D01*
X88283578Y-51324311D01*
X88206203Y-51427669D01*
X88206202Y-51427671D01*
X88155908Y-51562517D01*
X88149501Y-51622116D01*
X88149501Y-51622123D01*
X88149500Y-51622135D01*
X88149500Y-52458322D01*
X88149264Y-52463728D01*
X88144341Y-52519998D01*
X88144341Y-52520001D01*
X88149264Y-52576271D01*
X88149500Y-52581677D01*
X88149500Y-53417870D01*
X88149501Y-53417876D01*
X88155908Y-53477483D01*
X88206202Y-53612328D01*
X88206203Y-53612330D01*
X88283578Y-53715689D01*
X88307995Y-53781153D01*
X88293144Y-53849426D01*
X88283578Y-53864311D01*
X88206203Y-53967669D01*
X88206202Y-53967671D01*
X88155908Y-54102517D01*
X88149501Y-54162116D01*
X88149501Y-54162123D01*
X88149500Y-54162135D01*
X88149500Y-55957870D01*
X88149501Y-55957876D01*
X88155908Y-56017483D01*
X88206202Y-56152328D01*
X88206203Y-56152330D01*
X88283578Y-56255689D01*
X88307995Y-56321153D01*
X88293144Y-56389426D01*
X88283578Y-56404311D01*
X88206203Y-56507669D01*
X88206202Y-56507671D01*
X88155908Y-56642517D01*
X88149501Y-56702116D01*
X88149501Y-56702123D01*
X88149500Y-56702135D01*
X88149500Y-57538322D01*
X88149264Y-57543728D01*
X88144341Y-57599998D01*
X88144341Y-57600001D01*
X88149264Y-57656271D01*
X88149500Y-57661677D01*
X88149500Y-58497870D01*
X88149501Y-58497876D01*
X88155908Y-58557483D01*
X88206202Y-58692328D01*
X88206203Y-58692330D01*
X88283578Y-58795689D01*
X88307995Y-58861153D01*
X88293144Y-58929426D01*
X88283578Y-58944311D01*
X88206203Y-59047669D01*
X88206202Y-59047671D01*
X88155908Y-59182517D01*
X88149501Y-59242116D01*
X88149501Y-59242123D01*
X88149500Y-59242135D01*
X88149500Y-60078322D01*
X88149264Y-60083728D01*
X88144341Y-60139998D01*
X88144341Y-60140001D01*
X88149264Y-60196271D01*
X88149500Y-60201677D01*
X88149500Y-61037870D01*
X88149501Y-61037876D01*
X88155908Y-61097483D01*
X88206202Y-61232328D01*
X88206203Y-61232330D01*
X88283578Y-61335689D01*
X88307995Y-61401153D01*
X88293144Y-61469426D01*
X88283578Y-61484311D01*
X88206203Y-61587669D01*
X88206202Y-61587671D01*
X88155908Y-61722517D01*
X88149501Y-61782116D01*
X88149501Y-61782123D01*
X88149500Y-61782135D01*
X88149500Y-62618322D01*
X88149264Y-62623728D01*
X88144341Y-62679998D01*
X88144341Y-62680001D01*
X88149264Y-62736271D01*
X88149500Y-62741677D01*
X88149500Y-63577870D01*
X88149501Y-63577876D01*
X88155908Y-63637483D01*
X88206202Y-63772328D01*
X88206203Y-63772330D01*
X88283578Y-63875689D01*
X88307995Y-63941153D01*
X88293144Y-64009426D01*
X88283578Y-64024311D01*
X88206203Y-64127669D01*
X88206202Y-64127671D01*
X88155908Y-64262517D01*
X88149501Y-64322116D01*
X88149501Y-64322123D01*
X88149500Y-64322135D01*
X88149500Y-65158322D01*
X88149264Y-65163728D01*
X88144341Y-65219998D01*
X88144341Y-65220001D01*
X85200500Y-65220001D01*
X85200500Y-57703035D01*
X85200613Y-57699290D01*
X85204357Y-57637394D01*
X85193177Y-57576386D01*
X85192615Y-57572689D01*
X85185140Y-57511129D01*
X85185139Y-57511125D01*
X85181546Y-57501651D01*
X85175519Y-57480029D01*
X85173694Y-57470070D01*
X85173694Y-57470068D01*
X85148239Y-57413512D01*
X85146809Y-57410057D01*
X85124818Y-57352070D01*
X85119059Y-57343727D01*
X85108030Y-57324172D01*
X85103877Y-57314943D01*
X85103874Y-57314938D01*
X85065633Y-57266127D01*
X85063413Y-57263110D01*
X85049829Y-57243431D01*
X85028183Y-57212071D01*
X84981750Y-57170935D01*
X84979056Y-57168399D01*
X73106818Y-45296161D01*
X73073333Y-45234838D01*
X73070499Y-45208480D01*
X73070499Y-44961679D01*
X73070735Y-44956272D01*
X73075659Y-44900000D01*
X73075659Y-44899999D01*
X73070735Y-44843726D01*
X73070499Y-44838319D01*
X73070499Y-44002129D01*
X73070498Y-44002123D01*
X73070497Y-44002116D01*
X73064091Y-43942517D01*
X73013796Y-43807669D01*
X73013795Y-43807668D01*
X73013793Y-43807664D01*
X72927547Y-43692455D01*
X72927544Y-43692452D01*
X72812335Y-43606206D01*
X72812328Y-43606202D01*
X72677482Y-43555908D01*
X72677483Y-43555908D01*
X72617883Y-43549501D01*
X72617881Y-43549500D01*
X72617873Y-43549500D01*
X72617865Y-43549500D01*
X71781674Y-43549500D01*
X71776272Y-43549264D01*
X71736117Y-43545751D01*
X71720001Y-43544341D01*
X71719998Y-43544341D01*
X71686895Y-43547237D01*
X71663726Y-43549264D01*
X71658323Y-43549500D01*
X69022129Y-43549500D01*
X69022123Y-43549501D01*
X68962516Y-43555908D01*
X68827671Y-43606202D01*
X68827664Y-43606206D01*
X68712455Y-43692452D01*
X68712452Y-43692455D01*
X68626206Y-43807664D01*
X68626202Y-43807671D01*
X68575908Y-43942517D01*
X68569501Y-44002116D01*
X68569501Y-44002123D01*
X68569500Y-44002135D01*
X68569500Y-45797870D01*
X68569501Y-45797876D01*
X68575908Y-45857483D01*
X68626202Y-45992328D01*
X68626203Y-45992330D01*
X68703578Y-46095689D01*
X68727995Y-46161153D01*
X68713144Y-46229426D01*
X68703578Y-46244311D01*
X68626203Y-46347669D01*
X68626202Y-46347671D01*
X68575908Y-46482517D01*
X68569501Y-46542116D01*
X68569501Y-46542123D01*
X68569500Y-46542135D01*
X68569500Y-48337870D01*
X68569501Y-48337876D01*
X68575908Y-48397483D01*
X68626202Y-48532328D01*
X68626203Y-48532330D01*
X68703578Y-48635689D01*
X68727995Y-48701153D01*
X68713144Y-48769426D01*
X68703578Y-48784311D01*
X68626203Y-48887669D01*
X68626202Y-48887671D01*
X68575908Y-49022517D01*
X68569501Y-49082116D01*
X68569501Y-49082123D01*
X68569500Y-49082135D01*
X68569500Y-50877870D01*
X68569501Y-50877876D01*
X68575908Y-50937483D01*
X68626202Y-51072328D01*
X68626203Y-51072330D01*
X68703578Y-51175689D01*
X68727995Y-51241153D01*
X68713144Y-51309426D01*
X68703578Y-51324311D01*
X68626203Y-51427669D01*
X68626202Y-51427671D01*
X68575908Y-51562517D01*
X68569501Y-51622116D01*
X68569501Y-51622123D01*
X68569500Y-51622135D01*
X68569500Y-53417870D01*
X68569501Y-53417876D01*
X68575908Y-53477483D01*
X68626202Y-53612328D01*
X68626206Y-53612335D01*
X68712452Y-53727544D01*
X68712455Y-53727547D01*
X68827664Y-53813793D01*
X68827671Y-53813797D01*
X68962517Y-53864091D01*
X68962516Y-53864091D01*
X68969444Y-53864835D01*
X69022127Y-53870500D01*
X71658317Y-53870499D01*
X71663721Y-53870734D01*
X71686774Y-53872751D01*
X71719999Y-53875659D01*
X71719999Y-53875658D01*
X71720000Y-53875659D01*
X71776280Y-53870734D01*
X71781682Y-53870499D01*
X72617871Y-53870499D01*
X72617872Y-53870499D01*
X72677483Y-53864091D01*
X72812331Y-53813796D01*
X72927546Y-53727546D01*
X73013796Y-53612331D01*
X73064091Y-53477483D01*
X73070500Y-53417873D01*
X73070499Y-52581677D01*
X73070735Y-52576272D01*
X73075659Y-52520000D01*
X73075659Y-52519999D01*
X73070735Y-52463726D01*
X73070499Y-52458319D01*
X73070499Y-51622129D01*
X73070498Y-51622123D01*
X73070497Y-51622116D01*
X73064091Y-51562517D01*
X73013796Y-51427669D01*
X72936421Y-51324309D01*
X72912004Y-51258848D01*
X72926855Y-51190575D01*
X72936416Y-51175696D01*
X73013796Y-51072331D01*
X73064091Y-50937483D01*
X73070500Y-50877873D01*
X73070499Y-50080517D01*
X73090183Y-50013479D01*
X73142987Y-49967724D01*
X73212146Y-49957780D01*
X73275702Y-49986805D01*
X73282180Y-49992837D01*
X76083181Y-52793838D01*
X76116666Y-52855161D01*
X76119500Y-52881519D01*
X76119500Y-90349451D01*
X76119387Y-90353196D01*
X76115642Y-90415103D01*
X76115642Y-90415105D01*
X76126821Y-90476112D01*
X76127384Y-90479813D01*
X76134859Y-90541370D01*
X76134860Y-90541374D01*
X76138451Y-90550843D01*
X76144474Y-90572446D01*
X76146304Y-90582430D01*
X76171759Y-90638990D01*
X76173189Y-90642441D01*
X76195182Y-90700430D01*
X76195183Y-90700431D01*
X76200936Y-90708766D01*
X76211961Y-90728313D01*
X76216120Y-90737555D01*
X76216124Y-90737560D01*
X76254371Y-90786378D01*
X76256591Y-90789396D01*
X76291812Y-90840424D01*
X76291816Y-90840428D01*
X76291817Y-90840429D01*
X76338250Y-90881564D01*
X76340941Y-90884098D01*
X77048180Y-91591337D01*
X77048181Y-91591338D01*
X77081666Y-91652661D01*
X77084500Y-91679019D01*
X77084501Y-92875500D01*
X77064816Y-92942539D01*
X77012013Y-92988294D01*
X76960501Y-92999500D01*
X65124500Y-92999500D01*
X65057461Y-92979815D01*
X65011706Y-92927011D01*
X65000500Y-92875500D01*
X65000500Y-86437870D01*
X68569500Y-86437870D01*
X68569501Y-86437876D01*
X68575908Y-86497483D01*
X68626202Y-86632328D01*
X68626206Y-86632335D01*
X68712452Y-86747544D01*
X68712455Y-86747547D01*
X68827664Y-86833793D01*
X68827671Y-86833797D01*
X68962517Y-86884091D01*
X68962516Y-86884091D01*
X68969444Y-86884835D01*
X69022127Y-86890500D01*
X71658317Y-86890499D01*
X71663721Y-86890734D01*
X71686774Y-86892751D01*
X71719999Y-86895659D01*
X71719999Y-86895658D01*
X71720000Y-86895659D01*
X71776280Y-86890734D01*
X71781682Y-86890499D01*
X72617871Y-86890499D01*
X72617872Y-86890499D01*
X72677483Y-86884091D01*
X72812331Y-86833796D01*
X72927546Y-86747546D01*
X73013796Y-86632331D01*
X73064091Y-86497483D01*
X73070500Y-86437873D01*
X73070499Y-85601677D01*
X73070735Y-85596272D01*
X73075659Y-85540000D01*
X73075659Y-85539999D01*
X73070735Y-85483726D01*
X73070499Y-85478319D01*
X73070499Y-84642129D01*
X73070498Y-84642123D01*
X73070497Y-84642116D01*
X73064091Y-84582517D01*
X73013796Y-84447669D01*
X72936421Y-84344309D01*
X72912004Y-84278848D01*
X72926855Y-84210575D01*
X72936416Y-84195696D01*
X73013796Y-84092331D01*
X73064091Y-83957483D01*
X73070500Y-83897873D01*
X73070499Y-83061677D01*
X73070735Y-83056272D01*
X73075659Y-83000000D01*
X73075659Y-82999999D01*
X73070735Y-82943726D01*
X73070499Y-82938319D01*
X73070499Y-82102129D01*
X73070498Y-82102123D01*
X73070497Y-82102116D01*
X73064091Y-82042517D01*
X73013796Y-81907669D01*
X73013795Y-81907668D01*
X73013793Y-81907664D01*
X72927547Y-81792455D01*
X72927544Y-81792452D01*
X72812335Y-81706206D01*
X72812328Y-81706202D01*
X72677482Y-81655908D01*
X72677483Y-81655908D01*
X72617883Y-81649501D01*
X72617881Y-81649500D01*
X72617873Y-81649500D01*
X72617865Y-81649500D01*
X71781674Y-81649500D01*
X71776272Y-81649264D01*
X71736117Y-81645751D01*
X71720001Y-81644341D01*
X71719998Y-81644341D01*
X71686895Y-81647237D01*
X71663726Y-81649264D01*
X71658323Y-81649500D01*
X69022129Y-81649500D01*
X69022123Y-81649501D01*
X68962516Y-81655908D01*
X68827671Y-81706202D01*
X68827664Y-81706206D01*
X68712455Y-81792452D01*
X68712452Y-81792455D01*
X68626206Y-81907664D01*
X68626202Y-81907671D01*
X68575908Y-82042517D01*
X68569501Y-82102116D01*
X68569501Y-82102123D01*
X68569500Y-82102135D01*
X68569500Y-83897870D01*
X68569501Y-83897876D01*
X68575908Y-83957483D01*
X68626202Y-84092328D01*
X68626203Y-84092330D01*
X68645416Y-84117995D01*
X68703576Y-84195687D01*
X68703578Y-84195689D01*
X68727995Y-84261153D01*
X68713144Y-84329426D01*
X68703578Y-84344311D01*
X68626203Y-84447669D01*
X68626202Y-84447671D01*
X68575908Y-84582517D01*
X68569501Y-84642116D01*
X68569501Y-84642123D01*
X68569500Y-84642135D01*
X68569500Y-86437870D01*
X65000500Y-86437870D01*
X65000500Y-78817870D01*
X68569500Y-78817870D01*
X68569501Y-78817876D01*
X68575908Y-78877483D01*
X68626202Y-79012328D01*
X68626206Y-79012335D01*
X68712452Y-79127544D01*
X68712455Y-79127547D01*
X68827664Y-79213793D01*
X68827671Y-79213797D01*
X68962517Y-79264091D01*
X68962516Y-79264091D01*
X68969444Y-79264835D01*
X69022127Y-79270500D01*
X71658317Y-79270499D01*
X71663721Y-79270734D01*
X71686774Y-79272751D01*
X71719999Y-79275659D01*
X71719999Y-79275658D01*
X71720000Y-79275659D01*
X71776280Y-79270734D01*
X71781682Y-79270499D01*
X72617871Y-79270499D01*
X72617872Y-79270499D01*
X72677483Y-79264091D01*
X72812331Y-79213796D01*
X72927546Y-79127546D01*
X73013796Y-79012331D01*
X73064091Y-78877483D01*
X73070500Y-78817873D01*
X73070499Y-77981677D01*
X73070735Y-77976272D01*
X73075659Y-77920000D01*
X73075659Y-77919999D01*
X73070735Y-77863726D01*
X73070499Y-77858319D01*
X73070499Y-77022129D01*
X73070498Y-77022123D01*
X73070497Y-77022116D01*
X73064091Y-76962517D01*
X73013796Y-76827669D01*
X72936421Y-76724309D01*
X72912004Y-76658848D01*
X72926855Y-76590575D01*
X72936416Y-76575696D01*
X73013796Y-76472331D01*
X73064091Y-76337483D01*
X73070500Y-76277873D01*
X73070499Y-75441677D01*
X73070735Y-75436272D01*
X73075659Y-75380000D01*
X73075659Y-75379999D01*
X73070735Y-75323726D01*
X73070499Y-75318319D01*
X73070499Y-74482129D01*
X73070498Y-74482123D01*
X73070497Y-74482116D01*
X73064091Y-74422517D01*
X73013796Y-74287669D01*
X72936421Y-74184309D01*
X72912004Y-74118848D01*
X72926855Y-74050575D01*
X72936416Y-74035696D01*
X73013796Y-73932331D01*
X73064091Y-73797483D01*
X73070500Y-73737873D01*
X73070499Y-72901677D01*
X73070735Y-72896272D01*
X73075659Y-72840000D01*
X73075659Y-72839999D01*
X73070735Y-72783726D01*
X73070499Y-72778319D01*
X73070499Y-71942129D01*
X73070498Y-71942123D01*
X73070497Y-71942116D01*
X73064091Y-71882517D01*
X73013796Y-71747669D01*
X72936421Y-71644309D01*
X72912004Y-71578848D01*
X72926855Y-71510575D01*
X72936416Y-71495696D01*
X73013796Y-71392331D01*
X73064091Y-71257483D01*
X73070500Y-71197873D01*
X73070499Y-70361677D01*
X73070735Y-70356272D01*
X73075659Y-70300000D01*
X73075659Y-70299999D01*
X73070735Y-70243726D01*
X73070499Y-70238319D01*
X73070499Y-69402129D01*
X73070498Y-69402123D01*
X73070497Y-69402116D01*
X73064091Y-69342517D01*
X73013796Y-69207669D01*
X73013795Y-69207668D01*
X73013793Y-69207664D01*
X72927547Y-69092455D01*
X72927544Y-69092452D01*
X72812335Y-69006206D01*
X72812328Y-69006202D01*
X72677482Y-68955908D01*
X72677483Y-68955908D01*
X72617883Y-68949501D01*
X72617881Y-68949500D01*
X72617873Y-68949500D01*
X72617865Y-68949500D01*
X71781674Y-68949500D01*
X71776272Y-68949264D01*
X71736117Y-68945751D01*
X71720001Y-68944341D01*
X71719998Y-68944341D01*
X71686895Y-68947237D01*
X71663726Y-68949264D01*
X71658323Y-68949500D01*
X69022129Y-68949500D01*
X69022123Y-68949501D01*
X68962516Y-68955908D01*
X68827671Y-69006202D01*
X68827664Y-69006206D01*
X68712455Y-69092452D01*
X68712452Y-69092455D01*
X68626206Y-69207664D01*
X68626202Y-69207671D01*
X68575908Y-69342517D01*
X68569501Y-69402116D01*
X68569501Y-69402123D01*
X68569500Y-69402135D01*
X68569500Y-71197870D01*
X68569501Y-71197876D01*
X68575908Y-71257483D01*
X68626202Y-71392328D01*
X68626203Y-71392330D01*
X68626204Y-71392331D01*
X68703576Y-71495687D01*
X68703578Y-71495689D01*
X68727995Y-71561153D01*
X68713144Y-71629426D01*
X68703578Y-71644311D01*
X68626203Y-71747669D01*
X68626202Y-71747671D01*
X68575908Y-71882517D01*
X68569501Y-71942116D01*
X68569501Y-71942123D01*
X68569500Y-71942135D01*
X68569500Y-73737870D01*
X68569501Y-73737876D01*
X68575908Y-73797483D01*
X68626202Y-73932328D01*
X68626203Y-73932330D01*
X68626204Y-73932331D01*
X68703576Y-74035687D01*
X68703578Y-74035689D01*
X68727995Y-74101153D01*
X68713144Y-74169426D01*
X68703578Y-74184311D01*
X68626203Y-74287669D01*
X68626202Y-74287671D01*
X68575908Y-74422517D01*
X68569501Y-74482116D01*
X68569501Y-74482123D01*
X68569500Y-74482135D01*
X68569500Y-76277870D01*
X68569501Y-76277876D01*
X68575908Y-76337483D01*
X68626202Y-76472328D01*
X68626203Y-76472330D01*
X68626204Y-76472331D01*
X68703576Y-76575687D01*
X68703578Y-76575689D01*
X68727995Y-76641153D01*
X68713144Y-76709426D01*
X68703578Y-76724311D01*
X68626203Y-76827669D01*
X68626202Y-76827671D01*
X68575908Y-76962517D01*
X68569501Y-77022116D01*
X68569501Y-77022123D01*
X68569500Y-77022135D01*
X68569500Y-78817870D01*
X65000500Y-78817870D01*
X65000500Y-66117870D01*
X68569500Y-66117870D01*
X68569501Y-66117876D01*
X68575908Y-66177483D01*
X68626202Y-66312328D01*
X68626206Y-66312335D01*
X68712452Y-66427544D01*
X68712455Y-66427547D01*
X68827664Y-66513793D01*
X68827671Y-66513797D01*
X68962517Y-66564091D01*
X68962516Y-66564091D01*
X68969444Y-66564835D01*
X69022127Y-66570500D01*
X71658317Y-66570499D01*
X71663721Y-66570734D01*
X71686774Y-66572751D01*
X71719999Y-66575659D01*
X71719999Y-66575658D01*
X71720000Y-66575659D01*
X71776280Y-66570734D01*
X71781682Y-66570499D01*
X72617871Y-66570499D01*
X72617872Y-66570499D01*
X72677483Y-66564091D01*
X72812331Y-66513796D01*
X72927546Y-66427546D01*
X73013796Y-66312331D01*
X73064091Y-66177483D01*
X73070500Y-66117873D01*
X73070499Y-65281677D01*
X73070735Y-65276272D01*
X73075659Y-65220000D01*
X73075659Y-65219999D01*
X73070735Y-65163726D01*
X73070499Y-65158319D01*
X73070499Y-64322129D01*
X73070498Y-64322123D01*
X73070497Y-64322116D01*
X73064091Y-64262517D01*
X73013796Y-64127669D01*
X72936421Y-64024309D01*
X72912004Y-63958848D01*
X72926855Y-63890575D01*
X72936416Y-63875696D01*
X73013796Y-63772331D01*
X73064091Y-63637483D01*
X73070500Y-63577873D01*
X73070499Y-62741677D01*
X73070735Y-62736272D01*
X73075659Y-62680000D01*
X73075659Y-62679999D01*
X73070735Y-62623726D01*
X73070499Y-62618319D01*
X73070499Y-61782129D01*
X73070498Y-61782123D01*
X73070497Y-61782116D01*
X73064091Y-61722517D01*
X73013796Y-61587669D01*
X72936421Y-61484309D01*
X72912004Y-61418848D01*
X72926855Y-61350575D01*
X72936416Y-61335696D01*
X73013796Y-61232331D01*
X73064091Y-61097483D01*
X73070500Y-61037873D01*
X73070499Y-60201677D01*
X73070735Y-60196272D01*
X73075659Y-60140000D01*
X73075659Y-60139999D01*
X73070735Y-60083726D01*
X73070499Y-60078319D01*
X73070499Y-59242129D01*
X73070498Y-59242123D01*
X73070497Y-59242116D01*
X73064091Y-59182517D01*
X73013796Y-59047669D01*
X72936421Y-58944309D01*
X72912004Y-58878848D01*
X72926855Y-58810575D01*
X72936416Y-58795696D01*
X73013796Y-58692331D01*
X73064091Y-58557483D01*
X73070500Y-58497873D01*
X73070499Y-57661677D01*
X73070735Y-57656272D01*
X73075659Y-57600000D01*
X73075659Y-57599999D01*
X73070735Y-57543726D01*
X73070499Y-57538319D01*
X73070499Y-56702129D01*
X73070498Y-56702123D01*
X73070497Y-56702116D01*
X73064091Y-56642517D01*
X73013796Y-56507669D01*
X73013795Y-56507668D01*
X73013793Y-56507664D01*
X72927547Y-56392455D01*
X72927544Y-56392452D01*
X72812335Y-56306206D01*
X72812328Y-56306202D01*
X72677482Y-56255908D01*
X72677483Y-56255908D01*
X72617883Y-56249501D01*
X72617881Y-56249500D01*
X72617873Y-56249500D01*
X72617865Y-56249500D01*
X71781674Y-56249500D01*
X71776272Y-56249264D01*
X71736117Y-56245751D01*
X71720001Y-56244341D01*
X71719998Y-56244341D01*
X71686895Y-56247237D01*
X71663726Y-56249264D01*
X71658323Y-56249500D01*
X69022129Y-56249500D01*
X69022123Y-56249501D01*
X68962516Y-56255908D01*
X68827671Y-56306202D01*
X68827664Y-56306206D01*
X68712455Y-56392452D01*
X68712452Y-56392455D01*
X68626206Y-56507664D01*
X68626202Y-56507671D01*
X68575908Y-56642517D01*
X68569501Y-56702116D01*
X68569501Y-56702123D01*
X68569500Y-56702135D01*
X68569500Y-58497870D01*
X68569501Y-58497876D01*
X68575908Y-58557483D01*
X68626202Y-58692328D01*
X68626203Y-58692330D01*
X68703578Y-58795689D01*
X68727995Y-58861153D01*
X68713144Y-58929426D01*
X68703578Y-58944311D01*
X68626203Y-59047669D01*
X68626202Y-59047671D01*
X68575908Y-59182517D01*
X68569501Y-59242116D01*
X68569501Y-59242123D01*
X68569500Y-59242135D01*
X68569500Y-61037870D01*
X68569501Y-61037876D01*
X68575908Y-61097483D01*
X68626202Y-61232328D01*
X68626203Y-61232330D01*
X68703578Y-61335689D01*
X68727995Y-61401153D01*
X68713144Y-61469426D01*
X68703578Y-61484311D01*
X68626203Y-61587669D01*
X68626202Y-61587671D01*
X68575908Y-61722517D01*
X68569501Y-61782116D01*
X68569501Y-61782123D01*
X68569500Y-61782135D01*
X68569500Y-63577870D01*
X68569501Y-63577876D01*
X68575908Y-63637483D01*
X68626202Y-63772328D01*
X68626203Y-63772330D01*
X68703578Y-63875689D01*
X68727995Y-63941153D01*
X68713144Y-64009426D01*
X68703578Y-64024311D01*
X68626203Y-64127669D01*
X68626202Y-64127671D01*
X68575908Y-64262517D01*
X68569501Y-64322116D01*
X68569501Y-64322123D01*
X68569500Y-64322135D01*
X68569500Y-66117870D01*
X65000500Y-66117870D01*
X65000500Y-36124500D01*
X65020185Y-36057461D01*
X65072989Y-36011706D01*
X65124500Y-36000500D01*
X68519415Y-36000500D01*
X68586454Y-36020185D01*
G37*
G04 #@! TD.AperFunction*
G04 #@! TA.AperFunction,Conductor*
G36*
X79399425Y-88316855D02*
G01*
X79414303Y-88326416D01*
X79517668Y-88403795D01*
X79517671Y-88403797D01*
X79652517Y-88454091D01*
X79652516Y-88454091D01*
X79659444Y-88454835D01*
X79712127Y-88460500D01*
X80856981Y-88460499D01*
X80924020Y-88480184D01*
X80969775Y-88532987D01*
X80979719Y-88602146D01*
X80950694Y-88665702D01*
X80944662Y-88672180D01*
X80139111Y-89477730D01*
X80077788Y-89511215D01*
X80064686Y-89513338D01*
X80057449Y-89514116D01*
X80017516Y-89518408D01*
X79882671Y-89568702D01*
X79882664Y-89568706D01*
X79767455Y-89654952D01*
X79767452Y-89654955D01*
X79681206Y-89770164D01*
X79681202Y-89770171D01*
X79630908Y-89905017D01*
X79624501Y-89964616D01*
X79624501Y-89964623D01*
X79624500Y-89964635D01*
X79624501Y-92875500D01*
X79604816Y-92942539D01*
X79552013Y-92988294D01*
X79500501Y-92999500D01*
X78959500Y-92999500D01*
X78892461Y-92979815D01*
X78846706Y-92927011D01*
X78835500Y-92875500D01*
X78835499Y-89964629D01*
X78835498Y-89964623D01*
X78835497Y-89964616D01*
X78829091Y-89905017D01*
X78778796Y-89770169D01*
X78778795Y-89770168D01*
X78778793Y-89770164D01*
X78692547Y-89654955D01*
X78692544Y-89654952D01*
X78577335Y-89568706D01*
X78577328Y-89568702D01*
X78442482Y-89518408D01*
X78442483Y-89518408D01*
X78382883Y-89512001D01*
X78382881Y-89512000D01*
X78382873Y-89512000D01*
X78382865Y-89512000D01*
X77644500Y-89512000D01*
X77577461Y-89492315D01*
X77531706Y-89439511D01*
X77520500Y-89388000D01*
X77520500Y-88584499D01*
X77540185Y-88517460D01*
X77592989Y-88471705D01*
X77644500Y-88460499D01*
X78967871Y-88460499D01*
X78967872Y-88460499D01*
X79027483Y-88454091D01*
X79162331Y-88403796D01*
X79265690Y-88326421D01*
X79331152Y-88302004D01*
X79399425Y-88316855D01*
G37*
G04 #@! TD.AperFunction*
G04 #@! TA.AperFunction,Conductor*
G36*
X73275702Y-47446805D02*
G01*
X73282180Y-47452837D01*
X83763181Y-57933838D01*
X83796666Y-57995161D01*
X83799500Y-58021519D01*
X83799500Y-83835500D01*
X83779815Y-83902539D01*
X83727011Y-83948294D01*
X83675500Y-83959500D01*
X83211677Y-83959500D01*
X83206275Y-83959264D01*
X83175849Y-83956602D01*
X83150002Y-83954341D01*
X83149999Y-83954341D01*
X83132750Y-83955849D01*
X83093722Y-83959264D01*
X83088322Y-83959500D01*
X82252129Y-83959500D01*
X82252123Y-83959501D01*
X82192516Y-83965908D01*
X82057671Y-84016202D01*
X82057669Y-84016203D01*
X81954311Y-84093578D01*
X81888847Y-84117995D01*
X81820574Y-84103144D01*
X81805689Y-84093578D01*
X81702330Y-84016203D01*
X81702328Y-84016202D01*
X81567482Y-83965908D01*
X81567483Y-83965908D01*
X81507883Y-83959501D01*
X81507881Y-83959500D01*
X81507873Y-83959500D01*
X81507864Y-83959500D01*
X79712129Y-83959500D01*
X79712123Y-83959501D01*
X79652516Y-83965908D01*
X79517671Y-84016202D01*
X79517669Y-84016203D01*
X79414311Y-84093578D01*
X79348847Y-84117995D01*
X79280574Y-84103144D01*
X79265689Y-84093578D01*
X79162330Y-84016203D01*
X79162328Y-84016202D01*
X79027482Y-83965908D01*
X79027483Y-83965908D01*
X78967883Y-83959501D01*
X78967881Y-83959500D01*
X78967873Y-83959500D01*
X78967865Y-83959500D01*
X78131677Y-83959500D01*
X78126275Y-83959264D01*
X78095849Y-83956602D01*
X78070002Y-83954341D01*
X78069999Y-83954341D01*
X78052750Y-83955849D01*
X78013722Y-83959264D01*
X78008322Y-83959500D01*
X77644500Y-83959500D01*
X77577461Y-83939815D01*
X77531706Y-83887011D01*
X77520500Y-83835500D01*
X77520500Y-52563035D01*
X77520613Y-52559290D01*
X77524357Y-52497394D01*
X77513177Y-52436386D01*
X77512615Y-52432689D01*
X77505140Y-52371129D01*
X77505139Y-52371125D01*
X77501546Y-52361651D01*
X77495519Y-52340029D01*
X77493694Y-52330070D01*
X77493694Y-52330068D01*
X77468241Y-52273514D01*
X77466807Y-52270052D01*
X77444818Y-52212071D01*
X77444818Y-52212070D01*
X77439058Y-52203726D01*
X77428035Y-52184180D01*
X77423878Y-52174943D01*
X77385617Y-52126107D01*
X77383417Y-52123117D01*
X77366786Y-52099021D01*
X77348185Y-52072073D01*
X77348183Y-52072071D01*
X77301750Y-52030935D01*
X77299056Y-52028399D01*
X73106818Y-47836161D01*
X73073333Y-47774838D01*
X73070499Y-47748480D01*
X73070499Y-47540518D01*
X73090184Y-47473479D01*
X73142988Y-47427724D01*
X73212146Y-47417780D01*
X73275702Y-47446805D01*
G37*
G04 #@! TD.AperFunction*
M02*
